<svg xmlns="http://www.w3.org/2000/svg" xml:space="preserve" viewBox="1702.1975588999999 0 509.4167877 612.5052154195012" y="0px" x="0px" id="Livello_1" version="1.1" style="max-height: 500px" width="509.4167877" height="612.5052154195012"><defs id="defs148"/>
<style id="style1" type="text/css">
	.st0{fill:#FFFFFF;}
	.st1{fill:#5DBCA2;}
	.st2{fill:#E61D46;}
	.st3{fill:#522A42;}
</style>
<rect id="rect1" height="602.90002" width="512.29999" class="st0" y="743.89996" x="1699.7"/>
<rect id="rect2" height="629.5" width="1074.8" class="st0" y="739.89996" x="482.60004"/>
<path id="path2" d="m 840.6,1231.8 v 137.6 H 482.5 v -70.7 h -0.2 v -62.8 c 2,13.3 13.4,23.4 27.2,23.4 15.2,0 27.5,-12.3 27.5,-27.5 0,-15.2 -12.3,-27.5 -27.5,-27.5 -14.9,0 -7.1,-17.4 17.4,-17.4 24.8,0 44.9,20.1 44.9,44.9 v 4.1 c 2,13.3 13.4,23.4 27.2,23.4 15.2,0 27.5,-12.3 27.5,-27.5 0,-15.2 -12.3,-27.5 -27.5,-27.5 -14.9,0 -7.1,-17.4 17.4,-17.4 24.8,0 44.9,20.1 44.9,44.9 v 4.1 c 2,13.3 13.4,23.4 27.2,23.4 15.2,0 27.5,-12.3 27.5,-27.5 0,-15.2 -12.3,-27.5 -27.5,-27.5 -14.9,0 -7.1,-17.4 17.4,-17.4 24.8,0 44.9,20.1 44.9,44.9 v 4.1 c 2,13.3 13.4,23.4 27.2,23.4 15.2,0 27.5,-12.3 27.5,-27.5 0,-15.2 -12.3,-27.5 -27.5,-27.5 -14.9,0 -7.1,-17.4 17.4,-17.4 25.1,0 45.2,20.1 45.2,44.9 z"/>
<path id="path3" d="m 1429.7,1170.3 v 38.2 c 0,9.8 -7.9,17.7 -17.7,17.7 h -14.2 v 26 c -6.5,0 -12.6,-2.1 -17.6,-5.7 -5,-3.6 -8.9,-8.8 -10.9,-15 l -1.7,-5.3 h -248.2 c -34.6,0 -68.9,-5.4 -101.8,-16.1 -10,-3.2 -15,-12 -15,-20.7 0,-8.7 5,-17.4 15,-20.7 16.4,-5.3 33.3,-9.3 50.3,-12 13.3,-2.1 57.8,-3.4 71.3,-3.9 v 9.4 c 0,18.9 15.4,34.2 34.2,34.2 h 14 c 18.9,0 34.2,-15.4 34.2,-34.2 v -9.6 h 100.8 v 9.6 c 0,18.9 15.4,34.2 34.2,34.2 h 14 c 18.9,0 34.2,-15.4 34.2,-34.2 v -9.6 h 7.1 c 9.9,0.1 17.8,8 17.8,17.7 z"/>
<path id="path4" d="m 1143.3,1258.5 c 0.7,-0.2 1.4,-0.4 2.1,-0.6 -0.7,0.3 -1.4,0.5 -2.1,0.6 z"/>
<path id="path5" d="m 1164.3,1233.2 c -0.6,11.6 -8.3,21.2 -18.9,24.7 10.5,-3.5 18.2,-13.1 18.9,-24.7 z"/>
<path id="path6" d="m 1321.2,1307.7 c -0.9,-2.1 -2.2,-3.9 -3.8,-5.5 -1.6,-1.6 -3.5,-2.8 -5.7,-3.7 -2.2,-0.9 -4.5,-1.3 -7,-1.3 -2.5,0 -4.8,0.4 -6.9,1.3 -2.2,0.9 -4.1,2.1 -5.7,3.7 -1.6,1.6 -2.9,3.4 -3.8,5.5 -0.9,2.1 -1.4,4.3 -1.4,6.7 0,2.4 0.5,4.6 1.4,6.7 0.9,2.1 2.2,3.9 3.8,5.5 1.6,1.6 3.5,2.8 5.7,3.7 2.2,0.9 4.5,1.3 6.9,1.3 2.5,0 4.8,-0.5 7,-1.3 2.2,-0.9 4.1,-2.1 5.7,-3.7 1.6,-1.6 2.9,-3.4 3.8,-5.5 0.9,-2.1 1.4,-4.3 1.4,-6.7 0,-2.4 -0.5,-4.6 -1.4,-6.7 z m 0,0 c -0.9,-2.1 -2.2,-3.9 -3.8,-5.5 -1.6,-1.6 -3.5,-2.8 -5.7,-3.7 -2.2,-0.9 -4.5,-1.3 -7,-1.3 -2.5,0 -4.8,0.4 -6.9,1.3 -2.2,0.9 -4.1,2.1 -5.7,3.7 -1.6,1.6 -2.9,3.4 -3.8,5.5 -0.9,2.1 -1.4,4.3 -1.4,6.7 0,2.4 0.5,4.6 1.4,6.7 0.9,2.1 2.2,3.9 3.8,5.5 1.6,1.6 3.5,2.8 5.7,3.7 2.2,0.9 4.5,1.3 6.9,1.3 2.5,0 4.8,-0.5 7,-1.3 2.2,-0.9 4.1,-2.1 5.7,-3.7 1.6,-1.6 2.9,-3.4 3.8,-5.5 0.9,-2.1 1.4,-4.3 1.4,-6.7 0,-2.4 -0.5,-4.6 -1.4,-6.7 z m -230.5,0.8 -5.5,15.5 h 10.7 z m 230.5,-0.8 c -0.9,-2.1 -2.2,-3.9 -3.8,-5.5 -1.6,-1.6 -3.5,-2.8 -5.7,-3.7 -2.2,-0.9 -4.5,-1.3 -7,-1.3 -2.5,0 -4.8,0.4 -6.9,1.3 -2.2,0.9 -4.1,2.1 -5.7,3.7 -1.6,1.6 -2.9,3.4 -3.8,5.5 -0.9,2.1 -1.4,4.3 -1.4,6.7 0,2.4 0.5,4.6 1.4,6.7 0.9,2.1 2.2,3.9 3.8,5.5 1.6,1.6 3.5,2.8 5.7,3.7 2.2,0.9 4.5,1.3 6.9,1.3 2.5,0 4.8,-0.5 7,-1.3 2.2,-0.9 4.1,-2.1 5.7,-3.7 1.6,-1.6 2.9,-3.4 3.8,-5.5 0.9,-2.1 1.4,-4.3 1.4,-6.7 0,-2.4 -0.5,-4.6 -1.4,-6.7 z m 0,0 c -0.9,-2.1 -2.2,-3.9 -3.8,-5.5 -1.6,-1.6 -3.5,-2.8 -5.7,-3.7 -2.2,-0.9 -4.5,-1.3 -7,-1.3 -2.5,0 -4.8,0.4 -6.9,1.3 -2.2,0.9 -4.1,2.1 -5.7,3.7 -1.6,1.6 -2.9,3.4 -3.8,5.5 -0.9,2.1 -1.4,4.3 -1.4,6.7 0,2.4 0.5,4.6 1.4,6.7 0.9,2.1 2.2,3.9 3.8,5.5 1.6,1.6 3.5,2.8 5.7,3.7 2.2,0.9 4.5,1.3 6.9,1.3 2.5,0 4.8,-0.5 7,-1.3 2.2,-0.9 4.1,-2.1 5.7,-3.7 1.6,-1.6 2.9,-3.4 3.8,-5.5 0.9,-2.1 1.4,-4.3 1.4,-6.7 0,-2.4 -0.5,-4.6 -1.4,-6.7 z m -230.5,0.8 -5.5,15.5 h 10.7 z m 421.7,-121.6 c -24.5,0 -32.3,17.4 -17.4,17.4 15.2,0 27.5,12.3 27.5,27.5 0,15.2 -12.3,27.5 -27.5,27.5 -13.8,0 -25.2,-10.2 -27.2,-23.4 v -4.1 c 0,-19.8 -12.8,-36.5 -30.5,-42.5 v 19.2 c 0,5.9 -2.1,11.3 -5.5,15.5 0.8,2.5 1.1,5.1 1.1,7.8 0,15.2 -12.3,27.5 -27.5,27.5 -0.5,0 -0.9,0 -1.4,0 h -5.7 c -7.9,0 -15.4,-2.4 -21.8,-7.1 -6.4,-4.6 -11.1,-11 -13.5,-18.5 l -0.1,-0.5 h -19.6 c -0.7,14.5 -12.8,26.1 -27.5,26.1 -13.8,0 -25.2,-10.2 -27.2,-23.4 v -2.7 h -34.9 c -0.7,14.5 -12.8,26.1 -27.5,26.1 -13.8,0 -25.2,-10.2 -27.2,-23.4 v -2.7 h -34.9 c -0.6,11.6 -8.3,21.2 -18.9,24.7 0,0 0,0 0,0 -0.7,0.2 -1.4,0.4 -2.1,0.6 -0.4,0.1 -0.8,0.2 -1.3,0.3 -0.4,0.1 -0.8,0.2 -1.3,0.2 v 0 c -0.8,0.1 -1.7,0.2 -2.6,0.3 -0.4,0 -0.9,0 -1.3,0 h -0.1 c -13.8,0 -25.2,-10.2 -27.2,-23.4 v -2.8 c -11.7,-0.3 -23.3,-1.3 -34.9,-2.8 0,0.5 0,1 0,1.5 0,15.2 -12.3,27.5 -27.5,27.5 -13.8,0 -25.2,-10.2 -27.2,-23.4 v -4.1 c 0,-5 -0.8,-9.8 -2.3,-14.3 -0.8,-0.3 -1.5,-0.5 -2.3,-0.7 -11.3,-3.7 -18.9,-13.3 -19.8,-25 -6.1,-3.2 -13.1,-4.9 -20.5,-4.9 -24.6,0 -32.3,17.4 -17.4,17.4 15.2,0 27.5,12.3 27.5,27.5 0,15.2 -12.3,27.5 -27.5,27.5 -13.8,0 -25.2,-10.2 -27.2,-23.4 v -4.1 c 0,-24.8 -20.1,-44.9 -44.9,-44.9 -24.5,0 -32.3,17.4 -17.4,17.4 15.2,0 27.5,12.3 27.5,27.5 0,15.2 -12.3,27.5 -27.5,27.5 -13.8,0 -25.2,-10.2 -27.2,-23.4 v -4.1 c 0,-1.4 -0.1,-2.8 -0.2,-4.3 v 141.8 h 716.7 v -137.5 c 0.2,-24.8 -19.9,-44.9 -44.8,-44.9 z m -472.3,159.6 -1.6,-26.2 -9.2,26.2 H 1014 l -9.8,-27.2 -1.8,27.2 h -15.3 l 4.2,-64.1 h 15.7 l 14.5,40.1 14.2,-40.1 h 15.7 l 3.9,64.1 z m 63.3,0 -2.6,-7.8 H 1080 l -2.7,7.8 h -16.1 l 22.6,-64 h 14.4 l 21.4,64 z m 74.7,0 -1.6,-26.2 -9.2,26.2 H 1152 l -9.8,-27.2 -1.8,27.2 h -15.3 l 4.2,-64.1 h 15.7 l 14.5,40.1 14.2,-40.1 h 15.7 l 3.9,64.1 z m 74.3,0 -1.6,-26.2 -9.2,26.2 h -15.3 l -9.7,-27.2 -1.8,27.2 h -15.3 l 4.2,-64.1 h 15.7 l 14.5,40.1 14.2,-40.1 h 15.7 l 3.9,64.1 z m 82.8,-19.6 c -1.7,3.9 -4.1,7.3 -7.1,10.2 -3,2.9 -6.5,5.2 -10.6,6.8 -4,1.7 -8.3,2.5 -12.9,2.5 -4.6,0 -8.9,-0.8 -12.9,-2.5 -4,-1.7 -7.5,-4 -10.5,-6.8 -3,-2.8 -5.3,-6.3 -7.1,-10.2 -1.8,-3.9 -2.6,-8.1 -2.6,-12.5 0,-4.4 0.9,-8.6 2.6,-12.5 1.7,-3.9 4.1,-7.3 7.1,-10.2 3,-2.9 6.5,-5.2 10.5,-6.8 4,-1.7 8.3,-2.5 12.9,-2.5 4.6,0 8.9,0.8 12.9,2.5 4,1.7 7.6,4 10.6,6.8 3,2.9 5.4,6.3 7.1,10.2 1.7,3.9 2.6,8 2.6,12.5 0,4.5 -0.8,8.6 -2.6,12.5 z m 42.4,-30 h -12.8 v 49.5 h -15.3 v -49.5 h -12.6 v -14.7 h 40.6 v 14.7 z m 55.1,49.6 h -15.3 v -24.2 h -19.1 v 24.2 H 1383 v -64 h 15.3 v 25.1 h 19.1 v -25.1 h 15.3 z m -115.3,-44.3 c -1.6,-1.6 -3.5,-2.8 -5.7,-3.7 -2.2,-0.9 -4.5,-1.3 -7,-1.3 -2.5,0 -4.8,0.4 -6.9,1.3 -2.2,0.9 -4.1,2.1 -5.7,3.7 -1.6,1.6 -2.9,3.4 -3.8,5.5 -0.9,2.1 -1.4,4.3 -1.4,6.7 0,2.4 0.5,4.6 1.4,6.7 0.9,2.1 2.2,3.9 3.8,5.5 1.6,1.6 3.5,2.8 5.7,3.7 2.2,0.9 4.5,1.3 6.9,1.3 2.5,0 4.8,-0.5 7,-1.3 2.2,-0.9 4.1,-2.1 5.7,-3.7 1.6,-1.6 2.9,-3.4 3.8,-5.5 0.9,-2.1 1.4,-4.3 1.4,-6.7 0,-2.4 -0.5,-4.6 -1.4,-6.7 -0.9,-2.1 -2.2,-4 -3.8,-5.5 z m -232.2,21.8 h 10.7 l -5.2,-15.5 z m 236,-16.3 c -0.9,-2.1 -2.2,-3.9 -3.8,-5.5 -1.6,-1.6 -3.5,-2.8 -5.7,-3.7 -2.2,-0.9 -4.5,-1.3 -7,-1.3 -2.5,0 -4.8,0.4 -6.9,1.3 -2.2,0.9 -4.1,2.1 -5.7,3.7 -1.6,1.6 -2.9,3.4 -3.8,5.5 -0.9,2.1 -1.4,4.3 -1.4,6.7 0,2.4 0.5,4.6 1.4,6.7 0.9,2.1 2.2,3.9 3.8,5.5 1.6,1.6 3.5,2.8 5.7,3.7 2.2,0.9 4.5,1.3 6.9,1.3 2.5,0 4.8,-0.5 7,-1.3 2.2,-0.9 4.1,-2.1 5.7,-3.7 1.6,-1.6 2.9,-3.4 3.8,-5.5 0.9,-2.1 1.4,-4.3 1.4,-6.7 0,-2.4 -0.5,-4.6 -1.4,-6.7 z m 0,0 c -0.9,-2.1 -2.2,-3.9 -3.8,-5.5 -1.6,-1.6 -3.5,-2.8 -5.7,-3.7 -2.2,-0.9 -4.5,-1.3 -7,-1.3 -2.5,0 -4.8,0.4 -6.9,1.3 -2.2,0.9 -4.1,2.1 -5.7,3.7 -1.6,1.6 -2.9,3.4 -3.8,5.5 -0.9,2.1 -1.4,4.3 -1.4,6.7 0,2.4 0.5,4.6 1.4,6.7 0.9,2.1 2.2,3.9 3.8,5.5 1.6,1.6 3.5,2.8 5.7,3.7 2.2,0.9 4.5,1.3 6.9,1.3 2.5,0 4.8,-0.5 7,-1.3 2.2,-0.9 4.1,-2.1 5.7,-3.7 1.6,-1.6 2.9,-3.4 3.8,-5.5 0.9,-2.1 1.4,-4.3 1.4,-6.7 0,-2.4 -0.5,-4.6 -1.4,-6.7 z m 0,0 c -0.9,-2.1 -2.2,-3.9 -3.8,-5.5 -1.6,-1.6 -3.5,-2.8 -5.7,-3.7 -2.2,-0.9 -4.5,-1.3 -7,-1.3 -2.5,0 -4.8,0.4 -6.9,1.3 -2.2,0.9 -4.1,2.1 -5.7,3.7 -1.6,1.6 -2.9,3.4 -3.8,5.5 -0.9,2.1 -1.4,4.3 -1.4,6.7 0,2.4 0.5,4.6 1.4,6.7 0.9,2.1 2.2,3.9 3.8,5.5 1.6,1.6 3.5,2.8 5.7,3.7 2.2,0.9 4.5,1.3 6.9,1.3 2.5,0 4.8,-0.5 7,-1.3 2.2,-0.9 4.1,-2.1 5.7,-3.7 1.6,-1.6 2.9,-3.4 3.8,-5.5 0.9,-2.1 1.4,-4.3 1.4,-6.7 0,-2.4 -0.5,-4.6 -1.4,-6.7 z m 0,0 c -0.9,-2.1 -2.2,-3.9 -3.8,-5.5 -1.6,-1.6 -3.5,-2.8 -5.7,-3.7 -2.2,-0.9 -4.5,-1.3 -7,-1.3 -2.5,0 -4.8,0.4 -6.9,1.3 -2.2,0.9 -4.1,2.1 -5.7,3.7 -1.6,1.6 -2.9,3.4 -3.8,5.5 -0.9,2.1 -1.4,4.3 -1.4,6.7 0,2.4 0.5,4.6 1.4,6.7 0.9,2.1 2.2,3.9 3.8,5.5 1.6,1.6 3.5,2.8 5.7,3.7 2.2,0.9 4.5,1.3 6.9,1.3 2.5,0 4.8,-0.5 7,-1.3 2.2,-0.9 4.1,-2.1 5.7,-3.7 1.6,-1.6 2.9,-3.4 3.8,-5.5 0.9,-2.1 1.4,-4.3 1.4,-6.7 0,-2.4 -0.5,-4.6 -1.4,-6.7 z"/>
<g transform="translate(-1059.2,178.8)" id="g7">
	<path id="path7" d="M 2372.8,713.8 C 2361.2,667.6 2319.7,633.2 2270,632.5 V 643 c 14.6,3.2 25.6,16.3 25.6,31.9 0,15.6 -11,28.7 -25.6,31.9 v 38.1 c 0,34.9 -28,63.4 -62.4,63.4 -1.1,0 -2.3,0 -3.4,-0.1 -13.5,-0.8 -26.3,-5.9 -36.4,-14.4 l -7.1,-5.7 V 803 c 0,36.3 17.9,68.3 45.3,87.8 v 92.7 c 0,15 12.2,27.1 27.1,27.1 h 14 c 15,0 27.1,-12.2 27.1,-27.1 V 937 h 115 v 46.5 c 0,15 12.2,27.1 27.1,27.1 h 14 c 15,0 27.1,-12.2 27.1,-34.1 v -155 c 0.1,-47 -35.5,-92.7 -84.6,-107.7 z m -54.6,199 c -0.7,0.7 -1.6,1 -2.5,1 -0.9,0 -1.8,-0.3 -2.5,-1 l -28.1,-28.1 c -1.4,-1.4 -1.4,-3.6 0,-5 1.4,-1.4 3.6,-1.4 5,0 l 28.1,28.1 c 1.4,1.4 1.4,3.6 0,5 z m 28.1,0 c -0.7,0.7 -1.6,1 -2.5,1 -0.9,0 -1.8,-0.3 -2.5,-1 l -28.1,-28.1 c -1.4,-1.4 -1.4,-3.6 0,-5 1.4,-1.4 3.6,-1.4 5,0 l 28.1,28.1 c 1.4,1.4 1.4,3.6 0,5 z m 28.2,0 c -0.7,0.7 -1.6,1 -2.5,1 -0.9,0 -1.8,-0.3 -2.5,-1 l -28.2,-28.1 c -1.4,-1.4 -1.4,-3.6 0,-5 1.4,-1.4 3.6,-1.4 5,0 l 28.1,28.1 c 1.4,1.4 1.4,3.6 0.1,5 z"/>
</g>
<g transform="translate(-1059.2,178.8)" id="g8">
	<path id="path8" d="m 2140.8,839.2 c 3.7,3.7 5.5,8.5 5.5,13.3 0,4.8 -1.8,9.6 -5.5,13.3 -7.3,7.3 -19.2,7.3 -26.6,0 l -32,-32 c -6,-6 -10.9,-12.7 -14.6,-19.9 l 51.9,4 z"/>
</g>
<path id="path9" d="m 1148.4,979.9 c -1.6,0 -3.2,-0.1 -4.7,-0.2 v 0 c 0.5,0 1.1,0.1 1.6,0.1 1.1,0.1 2.1,0.1 3.1,0.1 0.5,0 1.1,0 1.6,0 0.5,0 1,0 1.5,-0.1 0.3,0 0.7,0 1,-0.1 0.3,0 0.7,-0.1 1.1,-0.1 0.4,0 0.8,-0.1 1.3,-0.1 -2.1,0.3 -4.3,0.4 -6.5,0.4 z m -11.6,-1.2 v 0 c -0.3,-0.1 -0.6,-0.1 -0.8,-0.2 0.2,0.1 0.5,0.1 0.8,0.2 z m -3.1,-0.8 c 0.4,0.1 0.7,0.2 1.1,0.3 0.4,0.1 0.8,0.2 1.2,0.3 -0.9,-0.2 -1.8,-0.4 -2.6,-0.7 0.1,0 0.2,0.1 0.3,0.1 z m -3.4,-1.1 c 0.1,0 0.3,0.1 0.5,0.1 -0.4,-0.1 -0.9,-0.3 -1.3,-0.5 0.2,0.2 0.5,0.3 0.8,0.4 z m -1.5,-0.5 c 0.2,0.1 0.4,0.2 0.7,0.2 -0.4,-0.1 -0.8,-0.3 -1.2,-0.4 0.1,0.1 0.3,0.1 0.5,0.2 z m -3.4,-1.4 c 0.1,0 0.2,0.1 0.3,0.1 -0.4,-0.2 -0.8,-0.4 -1.2,-0.6 0.3,0.2 0.6,0.3 0.9,0.5 z m -1.2,-0.6 c 0.1,0 0.2,0.1 0.3,0.1 -0.2,-0.1 -0.5,-0.2 -0.7,-0.3 0.1,0.1 0.3,0.1 0.4,0.2 z" class="st0"/>
<path id="path10" d="m 1203.7,828 v -26.2 c 0,-14.8 -12,-26.8 -26.8,-26.8 h -5.4 v 41.2 c 0,2.1 -1.9,3.8 -4.2,3.4 -1.6,-0.3 -2.8,-1.8 -2.8,-3.5 V 775 h -23.6 v 41.3 c 0,1.9 -1.6,3.5 -3.5,3.5 -1.9,0 -3.5,-1.6 -3.5,-3.5 V 775 h -6.9 c -14.8,0 -26.8,12 -26.8,26.8 v 18 l -77.3,77.3 c -18.5,18.5 -26.2,43.5 -23.3,67.6 h 49.3 c 1.7,-8.5 6.7,-16.4 14.8,-21.5 l 2.8,-1.8 v 16.9 c 0,7.4 -6,13.5 -13.5,13.5 h -79.2 c -3.5,0 -6.3,2.8 -6.3,6.3 0,3.3 2.6,6.1 5.9,6.3 l 88.9,5.2 c 16.8,1.3 31.2,-12 31.2,-28.9 v -31.5 c 0,0.2 0,0.5 0.1,0.7 0,0.1 0,0.2 0,0.3 0,0.2 0,0.5 0.1,0.7 0,0.4 0.1,0.8 0.2,1.3 0,0.3 0.1,0.6 0.1,0.8 0.2,1.1 0.4,2.2 0.6,3.2 0.1,0.6 0.3,1.2 0.4,1.8 0,0 0,0 0,0.1 0.5,1.8 1,3.6 1.7,5.4 0,0 0,0 0,0.1 0.2,0.5 0.4,1.1 0.6,1.6 0,0.1 0.1,0.2 0.1,0.3 0.2,0.5 0.4,1 0.7,1.6 0.3,0.6 0.5,1 0.7,1.5 0.1,0.1 0.1,0.3 0.2,0.4 0.2,0.5 0.5,0.9 0.7,1.4 0,0 0,0.1 0.1,0.1 0.3,0.5 0.6,1.1 0.9,1.6 0.2,0.4 0.5,0.8 0.7,1.2 0.1,0.2 0.2,0.3 0.3,0.5 0.3,0.4 0.5,0.9 0.8,1.3 0.3,0.5 0.6,0.9 0.9,1.3 0.3,0.4 0.5,0.7 0.8,1.1 0.2,0.2 0.4,0.5 0.5,0.7 0.3,0.4 0.6,0.8 0.9,1.1 0.2,0.3 0.5,0.6 0.7,0.8 0.5,0.6 1.1,1.2 1.6,1.8 0.3,0.3 0.6,0.6 0.8,0.9 0.1,0.1 0.2,0.2 0.3,0.3 2.4,2.4 4.9,4.6 7.7,6.6 0.3,0.2 0.6,0.5 1,0.7 0.4,0.3 0.8,0.5 1.1,0.8 1.4,0.9 2.8,1.7 4.2,2.5 0.3,0.2 0.6,0.3 0.9,0.5 0.2,0.1 0.5,0.2 0.7,0.3 0.4,0.2 0.8,0.4 1.2,0.6 0.8,0.4 1.7,0.7 2.6,1.1 0.4,0.1 0.8,0.3 1.2,0.4 0.4,0.2 0.9,0.3 1.3,0.5 0.9,0.3 1.7,0.6 2.6,0.8 0.2,0.1 0.5,0.1 0.7,0.2 v -38.6 c 0,-1.9 1.6,-3.5 3.5,-3.5 1.9,0 3.5,1.6 3.5,3.5 v 40 c 0.9,0.1 1.8,0.2 2.8,0.3 1.6,0.1 3.1,0.2 4.7,0.2 2.2,0 4.3,-0.1 6.4,-0.4 0,0 0.1,0 0.1,0 0.7,-0.1 1.4,-0.2 2.1,-0.3 0.4,-0.1 0.8,-0.1 1.2,-0.2 0.1,0 0.1,0 0.2,0 0.1,0 0.1,0 0.2,0 2,-0.4 4,-0.9 5.9,-1.5 v -37.9 c 0,-1.7 1.1,-3.2 2.8,-3.5 2.2,-0.4 4.2,1.3 4.2,3.4 v 35.2 c 18.6,-8.6 31.7,-27.2 32.2,-48.9 0,-0.1 0,-0.1 0,-0.2 0,-0.2 0,-0.4 0,-0.6 0,-0.5 0,-1.1 0,-1.6 v -44.4 c 14.1,0 25.6,-11.5 25.6,-25.6 -0.3,-14 -11.7,-25.5 -25.9,-25.5 z m -69.9,57.4 c -5.7,0 -10.5,-3.9 -11.8,-9.2 -0.2,-0.9 -0.3,-1.9 -0.3,-2.9 0,-6.7 5.4,-12.1 12.1,-12.1 5.4,0 9.9,3.5 11.5,8.3 0.4,1.2 0.6,2.5 0.6,3.8 0,6.7 -5.5,12.1 -12.1,12.1 z m 69.9,-19.4 v -24.8 c 6.8,0 12.4,5.5 12.4,12.4 0,6.9 -5.5,12.4 -12.4,12.4 z"/>
<path id="path11" d="m 1093.8,933.1 c 0.2,1.1 0.4,2.2 0.6,3.2 -0.2,-1.1 -0.4,-2.1 -0.6,-3.2 z" class="st0"/>
<path id="path12" d="m 1094.9,938.2 c 0.5,1.8 1,3.6 1.7,5.4 -0.7,-1.8 -1.3,-3.6 -1.7,-5.4 z" class="st0"/>
<path id="path13" d="m 1103.2,956.4 c 0.4,0.6 0.9,1.2 1.3,1.8 -0.2,-0.2 -0.4,-0.5 -0.5,-0.7 -0.2,-0.4 -0.5,-0.7 -0.8,-1.1 z" class="st0"/>
<path id="path14" d="m 1108.6,962.9 c 0.1,0.1 0.2,0.2 0.3,0.3 -0.4,-0.4 -0.7,-0.8 -1.1,-1.2 0.2,0.3 0.5,0.6 0.8,0.9 z" class="st0"/>
<path id="path15" d="m 1116.6,969.8 c 0.7,0.5 1.4,1 2.1,1.4 -0.4,-0.3 -0.8,-0.5 -1.1,-0.8 -0.4,-0.2 -0.7,-0.4 -1,-0.6 z" class="st0"/>
<path id="path16" d="m 2181.2,1170.3 v 38.2 c 0,9.8 -7.9,17.7 -17.7,17.7 h -14.2 v 26 c -6.5,0 -12.6,-2.1 -17.6,-5.7 -5,-3.6 -8.9,-8.8 -10.9,-15 l -1.7,-5.3 h -248.3 c -34.6,0 -68.9,-5.4 -101.8,-16.1 -10,-3.2 -15,-12 -15,-20.7 0,-8.7 5,-17.4 15,-20.7 16.4,-5.3 33.3,-9.3 50.3,-12 13.3,-2.1 57.8,-3.4 71.3,-3.9 v 9.4 c 0,18.9 15.4,34.2 34.2,34.2 h 14 c 18.9,0 34.2,-15.4 34.2,-34.2 v -9.6 h 100.8 v 9.6 c 0,18.9 15.4,34.2 34.2,34.2 h 14 c 18.9,0 34.2,-15.4 34.2,-34.2 v -9.6 h 7.1 c 10,0.1 17.9,8 17.9,17.7 z"/>
<g transform="translate(-1059.2,178.8)" id="g17">
	<path id="path17" d="m 3123.7,713.8 c -11.6,-46.2 -53.1,-80.6 -102.8,-81.3 V 643 c 14.6,3.2 25.6,16.3 25.6,31.9 0,15.6 -11,28.7 -25.6,31.9 v 38.1 c 0,34.9 -28,63.4 -62.4,63.4 -1.1,0 -2.3,0 -3.4,-0.1 -13.5,-0.8 -26.3,-5.9 -36.4,-14.4 l -7.1,-5.7 V 803 c 0,36.3 17.9,68.3 45.3,87.8 v 92.7 c 0,15 12.2,27.1 27.1,27.1 h 14 c 15,0 27.1,-12.2 27.1,-27.1 V 937 h 115 v 46.5 c 0,15 12.2,27.1 27.1,27.1 h 14 c 15,0 27.1,-12.2 27.1,-34.1 v -155 c 0.2,-47 -35.5,-92.7 -84.6,-107.7 z m -54.6,199 c -0.7,0.7 -1.6,1 -2.5,1 -0.9,0 -1.8,-0.3 -2.5,-1 L 3036,884.7 c -1.4,-1.4 -1.4,-3.6 0,-5 1.4,-1.4 3.6,-1.4 5,0 l 28.1,28.1 c 1.4,1.4 1.4,3.6 0,5 z m 28.2,0 c -0.7,0.7 -1.6,1 -2.5,1 -0.9,0 -1.8,-0.3 -2.5,-1 l -28.1,-28.1 c -1.4,-1.4 -1.4,-3.6 0,-5 1.4,-1.4 3.6,-1.4 5,0 l 28.1,28.1 c 1.3,1.4 1.3,3.6 0,5 z m 28.1,0 c -0.7,0.7 -1.6,1 -2.5,1 -0.9,0 -1.8,-0.3 -2.5,-1 l -28.2,-28.1 c -1.4,-1.4 -1.4,-3.6 0,-5 1.4,-1.4 3.6,-1.4 5,0 l 28.1,28.1 c 1.5,1.4 1.5,3.6 0.1,5 z"/>
</g>
<g transform="translate(-1059.2,178.8)" id="g18">
	<path id="path18" d="m 2891.8,839.2 c 3.7,3.7 5.5,8.5 5.5,13.3 0,4.8 -1.8,9.6 -5.5,13.3 -7.3,7.3 -19.2,7.3 -26.6,0 l -32,-32 c -6,-6 -10.9,-12.7 -14.6,-19.9 l 51.9,4 z"/>
</g>
<path id="path19" d="m 1899.4,979.9 c -1.6,0 -3.2,-0.1 -4.7,-0.2 v 0 c 0.5,0 1.1,0.1 1.6,0.1 1,0.1 2,0.1 3.1,0.1 0.5,0 1.1,0 1.6,0 0.5,0 1,0 1.5,-0.1 0.3,0 0.7,0 1,-0.1 0.3,0 0.7,-0.1 1.1,-0.1 0.4,0 0.8,-0.1 1.3,-0.1 -2.2,0.3 -4.3,0.4 -6.5,0.4 z m -11.7,-1.2 v 0 c -0.3,-0.1 -0.6,-0.1 -0.8,-0.2 0.3,0.1 0.6,0.1 0.8,0.2 z m -3,-0.8 c 0.4,0.1 0.7,0.2 1.1,0.3 0.4,0.1 0.8,0.2 1.2,0.3 -0.9,-0.2 -1.8,-0.4 -2.6,-0.7 0,0 0.1,0.1 0.3,0.1 z m -3.5,-1.1 c 0.1,0 0.3,0.1 0.5,0.1 -0.4,-0.1 -0.9,-0.3 -1.3,-0.5 0.3,0.2 0.5,0.3 0.8,0.4 z m -1.5,-0.5 c 0.2,0.1 0.4,0.2 0.7,0.2 -0.4,-0.1 -0.8,-0.3 -1.2,-0.4 0.2,0.1 0.4,0.1 0.5,0.2 z m -3.4,-1.4 c 0.1,0 0.2,0.1 0.3,0.1 -0.4,-0.2 -0.8,-0.4 -1.2,-0.6 0.3,0.2 0.6,0.3 0.9,0.5 z m -1.1,-0.6 c 0.1,0 0.2,0.1 0.3,0.1 -0.2,-0.1 -0.5,-0.2 -0.7,-0.3 0.1,0.1 0.2,0.1 0.4,0.2 z" class="st0"/>
<path id="path20" d="m 1954.7,828 v -26.2 c 0,-14.8 -12,-26.8 -26.8,-26.8 h -5.4 v 41.2 c 0,2.1 -2,3.8 -4.2,3.4 -1.6,-0.3 -2.8,-1.8 -2.8,-3.5 V 775 h -23.6 v 41.3 c 0,1.9 -1.6,3.5 -3.5,3.5 -1.9,0 -3.5,-1.6 -3.5,-3.5 V 775 h -7 c -14.8,0 -26.8,12 -26.8,26.8 v 18 l -77.3,77.3 c -18.5,18.5 -26.2,43.5 -23.3,67.6 h 49.3 c 1.7,-8.5 6.7,-16.4 14.8,-21.5 l 2.8,-1.8 v 16.9 c 0,7.4 -6,13.5 -13.5,13.5 h -79.3 c -3.5,0 -6.3,2.8 -6.3,6.3 0,3.3 2.6,6.1 5.9,6.3 l 88.9,5.2 c 16.8,1.3 31.2,-12 31.2,-28.9 v -31.5 c 0,0.2 0,0.5 0.1,0.7 0,0.1 0,0.2 0,0.3 0,0.2 0,0.5 0.1,0.7 0.1,0.4 0.1,0.8 0.2,1.3 0,0.3 0.1,0.6 0.1,0.8 0.2,1.1 0.4,2.2 0.6,3.2 0.1,0.6 0.3,1.2 0.4,1.8 0,0 0,0 0,0.1 0.5,1.8 1,3.6 1.7,5.4 0,0 0,0 0,0.1 0.2,0.5 0.4,1.1 0.6,1.6 0,0.1 0.1,0.2 0.1,0.3 0.2,0.5 0.4,1 0.7,1.6 0.3,0.6 0.5,1 0.7,1.5 0.1,0.1 0.1,0.3 0.2,0.4 0.2,0.5 0.5,0.9 0.7,1.4 0,0 0,0.1 0,0.1 0.3,0.5 0.6,1.1 0.9,1.6 0.2,0.4 0.5,0.8 0.7,1.2 0.1,0.2 0.2,0.3 0.3,0.5 0.3,0.4 0.5,0.9 0.8,1.3 0.3,0.5 0.6,0.9 0.9,1.3 0.3,0.4 0.5,0.7 0.8,1.1 0.2,0.2 0.3,0.5 0.5,0.7 0.3,0.4 0.6,0.8 0.9,1.1 0.2,0.3 0.5,0.6 0.7,0.8 0.5,0.6 1.1,1.2 1.6,1.8 0.3,0.3 0.5,0.6 0.8,0.9 0.1,0.1 0.2,0.2 0.3,0.3 2.4,2.4 4.9,4.6 7.7,6.6 0.3,0.2 0.6,0.5 1,0.7 0.4,0.3 0.8,0.5 1.1,0.8 1.4,0.9 2.8,1.7 4.2,2.5 0.3,0.2 0.6,0.3 0.9,0.5 0.2,0.1 0.5,0.2 0.7,0.3 0.4,0.2 0.8,0.4 1.2,0.6 0.8,0.4 1.7,0.7 2.6,1.1 0.4,0.1 0.8,0.3 1.2,0.4 0.4,0.2 0.9,0.3 1.3,0.5 0.9,0.3 1.7,0.6 2.6,0.8 0.2,0.1 0.5,0.1 0.7,0.2 v -38.6 c 0,-1.9 1.5,-3.5 3.5,-3.5 1.9,0 3.5,1.6 3.5,3.5 v 40 c 0.9,0.1 1.8,0.2 2.8,0.3 1.6,0.1 3.1,0.2 4.7,0.2 2.2,0 4.3,-0.1 6.4,-0.4 0,0 0.1,0 0.1,0 0.7,-0.1 1.4,-0.2 2.1,-0.3 0.4,-0.1 0.8,-0.1 1.2,-0.2 0,0 0.1,0 0.2,0 0.1,0 0.1,0 0.2,0 2,-0.4 4,-0.9 5.9,-1.5 v -37.9 c 0,-1.7 1.1,-3.2 2.8,-3.5 2.2,-0.4 4.2,1.3 4.2,3.4 v 35.2 c 18.6,-8.6 31.7,-27.2 32.1,-48.9 0,-0.1 0,-0.1 0,-0.2 0,-0.2 0,-0.4 0,-0.6 0,-0.5 0,-1.1 0,-1.6 v -44.4 c 14.1,0 25.6,-11.5 25.6,-25.6 0.1,-14 -11.4,-25.5 -25.5,-25.5 z m -70,57.4 c -5.7,0 -10.5,-3.9 -11.8,-9.2 -0.2,-0.9 -0.4,-1.9 -0.4,-2.9 0,-6.7 5.4,-12.1 12.1,-12.1 5.4,0 9.9,3.5 11.5,8.3 0.4,1.2 0.6,2.5 0.6,3.8 0.1,6.7 -5.3,12.1 -12,12.1 z m 70,-19.4 v -24.8 c 6.8,0 12.4,5.5 12.4,12.4 -0.1,6.9 -5.6,12.4 -12.4,12.4 z"/>
<path id="path21" d="m 1844.8,933.1 c 0.2,1.1 0.4,2.2 0.6,3.2 -0.3,-1.1 -0.5,-2.1 -0.6,-3.2 z" class="st0"/>
<path id="path22" d="m 1845.8,938.2 c 0.5,1.8 1,3.6 1.7,5.4 -0.7,-1.8 -1.2,-3.6 -1.7,-5.4 z" class="st0"/>
<path id="path23" d="m 1854.2,956.4 c 0.4,0.6 0.9,1.2 1.3,1.8 -0.2,-0.2 -0.4,-0.5 -0.5,-0.7 -0.3,-0.4 -0.6,-0.7 -0.8,-1.1 z" class="st0"/>
<path id="path24" d="m 1859.5,962.9 c 0.1,0.1 0.2,0.2 0.3,0.3 -0.4,-0.4 -0.7,-0.8 -1.1,-1.2 0.3,0.3 0.6,0.6 0.8,0.9 z" class="st0"/>
<path id="path25" d="m 1867.5,969.8 c 0.7,0.5 1.4,1 2.1,1.4 -0.4,-0.3 -0.8,-0.5 -1.1,-0.8 -0.4,-0.2 -0.7,-0.4 -1,-0.6 z" class="st0"/>
<path id="path26" d="m 558.4,1758.2 v 66.9 H 110.6 v -39.4 h 27.2 c 15.2,0 27.5,-12.3 27.5,-27.5 0,-15.2 -12.3,-27.5 -27.5,-27.5 -14.9,0 -7.1,-17.4 17.4,-17.4 24.8,0 44.9,20.1 44.9,44.9 v 4.1 c 2,13.3 13.4,23.4 27.2,23.4 15.2,0 27.5,-12.3 27.5,-27.5 0,-15.2 -12.3,-27.5 -27.5,-27.5 -14.9,0 -7.1,-17.4 17.4,-17.4 24.8,0 44.9,20.1 44.9,44.9 v 4.1 c 2,13.3 13.4,23.4 27.2,23.4 15.2,0 27.5,-12.3 27.5,-27.5 0,-15.2 -12.3,-27.5 -27.5,-27.5 -14.9,0 -7.1,-17.4 17.4,-17.4 24.8,0 44.9,20.1 44.9,44.9 v 4.1 c 2,13.3 13.4,23.4 27.2,23.4 15.2,0 27.5,-12.3 27.5,-27.5 0,-15.2 -12.3,-27.5 -27.5,-27.5 -14.9,0 -7.1,-17.4 17.4,-17.4 24.8,0 44.9,20.1 44.9,44.9 v 4.1 c 2,13.3 13.4,23.4 27.2,23.4 15.2,0 27.5,-12.3 27.5,-27.5 0,-15.2 -12.3,-27.5 -27.5,-27.5 -14.9,0 -7.1,-17.4 17.4,-17.4 25.1,-0.1 45.2,20.1 45.2,44.9 z"/>
<path id="path27" d="m 916.7,1758.2 v 66.9 H 468.9 v -39.4 h 27.2 c 15.2,0 27.5,-12.3 27.5,-27.5 0,-15.2 -12.3,-27.5 -27.5,-27.5 -14.9,0 -7.1,-17.4 17.4,-17.4 24.8,0 44.9,20.1 44.9,44.9 v 4.1 c 2,13.3 13.4,23.4 27.2,23.4 15.2,0 27.5,-12.3 27.5,-27.5 0,-15.2 -12.3,-27.5 -27.5,-27.5 -14.9,0 -7.1,-17.4 17.4,-17.4 24.8,0 44.9,20.1 44.9,44.9 v 4.1 c 2,13.3 13.4,23.4 27.2,23.4 15.2,0 27.5,-12.3 27.5,-27.5 0,-15.2 -12.3,-27.5 -27.5,-27.5 -14.9,0 -7.1,-17.4 17.4,-17.4 24.8,0 44.9,20.1 44.9,44.9 v 4.1 c 2,13.3 13.4,23.4 27.2,23.4 15.2,0 27.5,-12.3 27.5,-27.5 0,-15.2 -12.3,-27.5 -27.5,-27.5 -14.9,0 -7.1,-17.4 17.4,-17.4 24.8,0 44.9,20.1 44.9,44.9 v 4.1 c 2,13.3 13.4,23.4 27.2,23.4 15.2,0 27.5,-12.3 27.5,-27.5 0,-15.2 -12.3,-27.5 -27.5,-27.5 -14.9,0 -7.1,-17.4 17.4,-17.4 25.1,-0.1 45.2,20.1 45.2,44.9 z"/>
<path id="path28" d="m 1275,1758.2 v 66.9 H 827.2 v -39.4 h 27.2 c 15.2,0 27.5,-12.3 27.5,-27.5 0,-15.2 -12.3,-27.5 -27.5,-27.5 -14.9,0 -7.1,-17.4 17.4,-17.4 24.8,0 44.9,20.1 44.9,44.9 v 4.1 c 2,13.3 13.4,23.4 27.2,23.4 15.2,0 27.5,-12.3 27.5,-27.5 0,-15.2 -12.3,-27.5 -27.5,-27.5 -14.9,0 -7.1,-17.4 17.4,-17.4 24.8,0 44.9,20.1 44.9,44.9 v 4.1 c 2,13.3 13.4,23.4 27.2,23.4 15.2,0 27.5,-12.3 27.5,-27.5 0,-15.2 -12.3,-27.5 -27.5,-27.5 -14.9,0 -7.1,-17.4 17.4,-17.4 24.8,0 44.9,20.1 44.9,44.9 v 4.1 c 2,13.3 13.4,23.4 27.2,23.4 15.2,0 27.5,-12.3 27.5,-27.5 0,-15.2 -12.3,-27.5 -27.5,-27.5 -14.9,0 -7.1,-17.4 17.4,-17.4 24.8,0 44.9,20.1 44.9,44.9 v 4.1 c 2,13.3 13.4,23.4 27.2,23.4 15.2,0 27.5,-12.3 27.5,-27.5 0,-15.2 -12.3,-27.5 -27.5,-27.5 -14.9,0 -7.1,-17.4 17.4,-17.4 25.1,-0.1 45.2,20.1 45.2,44.9 z"/>
<path id="path29" d="m 1633.4,1758.2 v 66.9 h -447.8 v -39.4 h 27.2 c 15.2,0 27.5,-12.3 27.5,-27.5 0,-15.2 -12.3,-27.5 -27.5,-27.5 -14.9,0 -7.1,-17.4 17.4,-17.4 24.8,0 44.9,20.1 44.9,44.9 v 4.1 c 2,13.3 13.4,23.4 27.2,23.4 15.2,0 27.5,-12.3 27.5,-27.5 0,-15.2 -12.3,-27.5 -27.5,-27.5 -14.9,0 -7.1,-17.4 17.4,-17.4 24.8,0 44.9,20.1 44.9,44.9 v 4.1 c 2,13.3 13.4,23.4 27.2,23.4 15.2,0 27.5,-12.3 27.5,-27.5 0,-15.2 -12.3,-27.5 -27.5,-27.5 -14.9,0 -7.1,-17.4 17.4,-17.4 24.8,0 44.9,20.1 44.9,44.9 v 4.1 c 2,13.3 13.4,23.4 27.2,23.4 15.2,0 27.5,-12.3 27.5,-27.5 0,-15.2 -12.3,-27.5 -27.5,-27.5 -14.9,0 -7.1,-17.4 17.4,-17.4 24.8,0 44.9,20.1 44.9,44.9 v 4.1 c 2,13.3 13.4,23.4 27.2,23.4 15.2,0 27.5,-12.3 27.5,-27.5 0,-15.2 -12.3,-27.5 -27.5,-27.5 -14.9,0 -7.1,-17.4 17.4,-17.4 25,-0.1 45.2,20.1 45.2,44.9 z"/>
<path id="path30" d="m 1991.7,1758.2 v 66.9 h -447.8 v -39.4 h 27.2 c 15.2,0 27.5,-12.3 27.5,-27.5 0,-15.2 -12.3,-27.5 -27.5,-27.5 -14.9,0 -7.1,-17.4 17.4,-17.4 24.8,0 44.9,20.1 44.9,44.9 v 4.1 c 2,13.3 13.4,23.4 27.2,23.4 15.2,0 27.5,-12.3 27.5,-27.5 0,-15.2 -12.3,-27.5 -27.5,-27.5 -14.9,0 -7.1,-17.4 17.4,-17.4 24.8,0 44.9,20.1 44.9,44.9 v 4.1 c 2,13.3 13.4,23.4 27.2,23.4 15.2,0 27.5,-12.3 27.5,-27.5 0,-15.2 -12.3,-27.5 -27.5,-27.5 -14.9,0 -7.1,-17.4 17.4,-17.4 24.8,0 44.9,20.1 44.9,44.9 v 4.1 c 2,13.3 13.4,23.4 27.2,23.4 15.2,0 27.5,-12.3 27.5,-27.5 0,-15.2 -12.3,-27.5 -27.5,-27.5 -14.9,0 -7.1,-17.4 17.4,-17.4 24.8,0 44.9,20.1 44.9,44.9 v 4.1 c 2,13.3 13.4,23.4 27.2,23.4 15.2,0 27.5,-12.3 27.5,-27.5 0,-15.2 -12.3,-27.5 -27.5,-27.5 -14.9,0 -7.1,-17.4 17.4,-17.4 25,-0.1 45.2,20.1 45.2,44.9 z"/>
<path id="path31" d="m 2350,1758.2 v 66.9 h -447.8 v -39.4 h 27.2 c 15.2,0 27.5,-12.3 27.5,-27.5 0,-15.2 -12.3,-27.5 -27.5,-27.5 -14.9,0 -7.1,-17.4 17.4,-17.4 24.8,0 44.9,20.1 44.9,44.9 v 4.1 c 2,13.3 13.4,23.4 27.2,23.4 15.2,0 27.5,-12.3 27.5,-27.5 0,-15.2 -12.3,-27.5 -27.5,-27.5 -14.9,0 -7.1,-17.4 17.4,-17.4 24.8,0 44.9,20.1 44.9,44.9 v 4.1 c 2,13.3 13.4,23.4 27.2,23.4 15.2,0 27.5,-12.3 27.5,-27.5 0,-15.2 -12.3,-27.5 -27.5,-27.5 -14.9,0 -7.1,-17.4 17.4,-17.4 24.8,0 44.9,20.1 44.9,44.9 v 4.1 c 2,13.3 13.4,23.4 27.2,23.4 15.2,0 27.5,-12.3 27.5,-27.5 0,-15.2 -12.3,-27.5 -27.5,-27.5 -14.9,0 -7.1,-17.4 17.4,-17.4 24.8,0 44.9,20.1 44.9,44.9 v 4.1 c 2,13.3 13.4,23.4 27.2,23.4 15.2,0 27.5,-12.3 27.5,-27.5 0,-15.2 -12.3,-27.5 -27.5,-27.5 -14.9,0 -7.1,-17.4 17.4,-17.4 25.1,-0.1 45.2,20.1 45.2,44.9 z"/>
<path id="path32" d="m 2708.3,1758.2 v 66.9 h -447.8 v -39.4 h 27.2 c 15.2,0 27.5,-12.3 27.5,-27.5 0,-15.2 -12.3,-27.5 -27.5,-27.5 -14.9,0 -7.1,-17.4 17.4,-17.4 24.8,0 44.9,20.1 44.9,44.9 v 4.1 c 2,13.3 13.4,23.4 27.2,23.4 15.2,0 27.5,-12.3 27.5,-27.5 0,-15.2 -12.3,-27.5 -27.5,-27.5 -14.9,0 -7.1,-17.4 17.4,-17.4 24.8,0 44.9,20.1 44.9,44.9 v 4.1 c 2,13.3 13.4,23.4 27.2,23.4 15.2,0 27.5,-12.3 27.5,-27.5 0,-15.2 -12.3,-27.5 -27.5,-27.5 -14.9,0 -7.1,-17.4 17.4,-17.4 24.8,0 44.9,20.1 44.9,44.9 v 4.1 c 2,13.3 13.4,23.4 27.2,23.4 15.2,0 27.5,-12.3 27.5,-27.5 0,-15.2 -12.3,-27.5 -27.5,-27.5 -14.9,0 -7.1,-17.4 17.4,-17.4 24.8,0 44.9,20.1 44.9,44.9 v 4.1 c 2,13.3 13.4,23.4 27.2,23.4 15.2,0 27.5,-12.3 27.5,-27.5 0,-15.2 -12.3,-27.5 -27.5,-27.5 -14.9,0 -7.1,-17.4 17.4,-17.4 25.1,-0.1 45.2,20.1 45.2,44.9 z"/>
<path id="path33" d="m 3066.6,1758.2 v 66.9 h -447.8 v -39.4 h 27.2 c 15.2,0 27.5,-12.3 27.5,-27.5 0,-15.2 -12.3,-27.5 -27.5,-27.5 -14.9,0 -7.1,-17.4 17.4,-17.4 24.8,0 44.9,20.1 44.9,44.9 v 4.1 c 2,13.3 13.4,23.4 27.2,23.4 15.2,0 27.5,-12.3 27.5,-27.5 0,-15.2 -12.3,-27.5 -27.5,-27.5 -14.9,0 -7.1,-17.4 17.4,-17.4 24.8,0 44.9,20.1 44.9,44.9 v 4.1 c 2,13.3 13.4,23.4 27.2,23.4 15.2,0 27.5,-12.3 27.5,-27.5 0,-15.2 -12.3,-27.5 -27.5,-27.5 -14.9,0 -7.1,-17.4 17.4,-17.4 24.8,0 44.9,20.1 44.9,44.9 v 4.1 c 2,13.3 13.4,23.4 27.2,23.4 15.2,0 27.5,-12.3 27.5,-27.5 0,-15.2 -12.3,-27.5 -27.5,-27.5 -14.9,0 -7.1,-17.4 17.4,-17.4 24.8,0 44.9,20.1 44.9,44.9 v 4.1 c 2,13.3 13.4,23.4 27.2,23.4 15.2,0 27.5,-12.3 27.5,-27.5 0,-15.2 -12.3,-27.5 -27.5,-27.5 -14.9,0 -7.1,-17.4 17.4,-17.4 25.1,-0.1 45.2,20.1 45.2,44.9 z"/>
<path id="path34" d="m 3424.9,1758.2 v 66.9 h -447.8 v -39.4 h 27.2 c 15.2,0 27.5,-12.3 27.5,-27.5 0,-15.2 -12.3,-27.5 -27.5,-27.5 -14.9,0 -7.1,-17.4 17.4,-17.4 24.8,0 44.9,20.1 44.9,44.9 v 4.1 c 2,13.3 13.4,23.4 27.2,23.4 15.2,0 27.5,-12.3 27.5,-27.5 0,-15.2 -12.3,-27.5 -27.5,-27.5 -14.9,0 -7.1,-17.4 17.4,-17.4 24.8,0 44.9,20.1 44.9,44.9 v 4.1 c 2,13.3 13.4,23.4 27.2,23.4 15.2,0 27.5,-12.3 27.5,-27.5 0,-15.2 -12.3,-27.5 -27.5,-27.5 -14.9,0 -7.1,-17.4 17.4,-17.4 24.8,0 44.9,20.1 44.9,44.9 v 4.1 c 2,13.3 13.4,23.4 27.2,23.4 15.2,0 27.5,-12.3 27.5,-27.5 0,-15.2 -12.3,-27.5 -27.5,-27.5 -14.9,0 -7.1,-17.4 17.4,-17.4 24.8,0 44.9,20.1 44.9,44.9 v 4.1 c 2,13.3 13.4,23.4 27.2,23.4 15.2,0 27.5,-12.3 27.5,-27.5 0,-15.2 -12.3,-27.5 -27.5,-27.5 -14.9,0 -7.1,-17.4 17.4,-17.4 25.1,-0.1 45.2,20.1 45.2,44.9 z"/>
<path id="path35" d="m 3783.2,1758.2 v 66.9 h -447.8 v -39.4 h 27.2 c 15.2,0 27.5,-12.3 27.5,-27.5 0,-15.2 -12.3,-27.5 -27.5,-27.5 -14.9,0 -7.1,-17.4 17.4,-17.4 24.8,0 44.9,20.1 44.9,44.9 v 4.1 c 2,13.3 13.4,23.4 27.2,23.4 15.2,0 27.5,-12.3 27.5,-27.5 0,-15.2 -12.3,-27.5 -27.5,-27.5 -14.9,0 -7.1,-17.4 17.4,-17.4 24.8,0 44.9,20.1 44.9,44.9 v 4.1 c 2,13.3 13.4,23.4 27.2,23.4 15.2,0 27.5,-12.3 27.5,-27.5 0,-15.2 -12.3,-27.5 -27.5,-27.5 -14.9,0 -7.1,-17.4 17.4,-17.4 24.8,0 44.9,20.1 44.9,44.9 v 4.1 c 2,13.3 13.4,23.4 27.2,23.4 15.2,0 27.5,-12.3 27.5,-27.5 0,-15.2 -12.3,-27.5 -27.5,-27.5 -14.9,0 -7.1,-17.4 17.4,-17.4 24.8,0 44.9,20.1 44.9,44.9 v 4.1 c 2,13.3 13.4,23.4 27.2,23.4 15.2,0 27.5,-12.3 27.5,-27.5 0,-15.2 -12.3,-27.5 -27.5,-27.5 -14.9,0 -7.1,-17.4 17.4,-17.4 25.1,-0.1 45.2,20.1 45.2,44.9 z"/>
<path id="path36" d="m 4141.6,1758.2 v 66.9 h -447.8 v -39.4 h 27.2 c 15.2,0 27.5,-12.3 27.5,-27.5 0,-15.2 -12.3,-27.5 -27.5,-27.5 -14.9,0 -7.1,-17.4 17.4,-17.4 24.8,0 44.9,20.1 44.9,44.9 v 4.1 c 2,13.3 13.4,23.4 27.2,23.4 15.2,0 27.5,-12.3 27.5,-27.5 0,-15.2 -12.3,-27.5 -27.5,-27.5 -14.9,0 -7.1,-17.4 17.4,-17.4 24.8,0 44.9,20.1 44.9,44.9 v 4.1 c 2,13.3 13.4,23.4 27.2,23.4 15.2,0 27.5,-12.3 27.5,-27.5 0,-15.2 -12.3,-27.5 -27.5,-27.5 -14.9,0 -7.1,-17.4 17.4,-17.4 24.8,0 44.9,20.1 44.9,44.9 v 4.1 c 2,13.3 13.4,23.4 27.2,23.4 15.2,0 27.5,-12.3 27.5,-27.5 0,-15.2 -12.3,-27.5 -27.5,-27.5 -14.9,0 -7.1,-17.4 17.4,-17.4 24.8,0 44.9,20.1 44.9,44.9 v 4.1 c 2,13.3 13.4,23.4 27.2,23.4 15.2,0 27.5,-12.3 27.5,-27.5 0,-15.2 -12.3,-27.5 -27.5,-27.5 -14.9,0 -7.1,-17.4 17.4,-17.4 25,-0.1 45.2,20.1 45.2,44.9 z"/>
<path id="path37" d="m 2734.7,1495.5 h 16.3 l 4,66.5 h -15.8 l -1.7,-27.2 -9.5,27.2 h -15.8 l -10.1,-28.2 -1.9,28.2 h -15.9 l 4.4,-66.5 h 16.3 l 15.1,41.6 z"/>
<path id="path38" d="m 2804.9,1562 -2.7,-8.1 h -21.6 l -2.8,8.1 H 2761 l 23.4,-66.4 h 15 l 22.2,66.4 z m -18.9,-23.4 h 11.1 l -5.4,-16.1 z"/>
<path id="path39" d="m 2945.2,1495.5 c 4.7,0 9.2,0.9 13.4,2.6 4.2,1.8 7.8,4.1 10.9,7.1 3.1,3 5.6,6.5 7.4,10.5 1.8,4 2.7,8.4 2.7,12.9 0,4.6 -0.9,8.9 -2.7,12.9 -1.8,4 -4.3,7.6 -7.4,10.5 -3.1,3 -6.8,5.4 -10.9,7.1 -4.2,1.8 -8.6,2.6 -13.4,2.6 -4.7,0 -9.2,-0.9 -13.4,-2.6 -4.2,-1.7 -7.8,-4.1 -10.9,-7.1 -3.1,-3 -5.5,-6.5 -7.3,-10.5 -1.8,-4 -2.7,-8.4 -2.7,-12.9 0,-4.6 0.9,-8.9 2.7,-12.9 1.8,-4 4.3,-7.6 7.3,-10.5 3.1,-3 6.7,-5.4 10.9,-7.1 4.2,-1.8 8.7,-2.6 13.4,-2.6 z m 0.1,51.1 c 2.6,0 5,-0.5 7.2,-1.4 2.2,-0.9 4.2,-2.2 5.9,-3.8 1.7,-1.6 3,-3.5 4,-5.7 1,-2.2 1.5,-4.5 1.5,-7 0,-2.5 -0.5,-4.8 -1.5,-7 -1,-2.2 -2.3,-4.1 -4,-5.7 -1.7,-1.6 -3.7,-2.9 -5.9,-3.8 -2.2,-0.9 -4.7,-1.4 -7.2,-1.4 -2.6,0 -5,0.5 -7.2,1.4 -2.2,0.9 -4.2,2.2 -5.9,3.8 -1.7,1.6 -3,3.5 -4,5.7 -1,2.2 -1.5,4.5 -1.5,7 0,2.5 0.5,4.8 1.5,7 1,2.2 2.3,4.1 4,5.7 1.7,1.6 3.7,2.9 5.9,3.8 2.2,0.9 4.6,1.4 7.2,1.4 z"/>
<path id="path40" d="m 3020.8,1495.3 v 15.3 h -13.2 v 51.4 h -15.8 v -51.4 h -13.1 v -15.3 z"/>
<path id="path41" d="m 3062.2,1495.5 h 15.8 v 66.4 h -15.8 v -25.1 h -19.8 v 25.1 h -15.8 v -66.4 h 15.8 v 26.1 h 19.8 z"/>
<g transform="translate(-1059.2,178.8)" id="g42">
	<polygon id="polygon41" points="3907.2,1312.7 3891,1312.7 3886.6,1379.2 3891.8,1381.2 3896,1317.7 3910.3,1317.7"/>
	<polygon id="polygon42" points="3938.3,1387.2 3942.2,1376 3942.5,1381.2 3946.3,1381.2 3945.4,1366.8 3945.7,1366.1 3947.8,1360.1 3949.5,1387.2 3965.3,1387.2 3961.3,1320.7 3955.7,1320.7 3945,1320.7 3930.3,1362.3 3928.3,1356.7 3942,1317.7 3955.5,1317.7 3953.3,1312.7 3937,1312.7 3924.8,1347.2 3915.2,1320.7 3911.4,1320.7 3898.9,1320.7 3894.5,1387.2 3910.4,1387.2 3911.4,1372.7 3914.5,1381.2 3918.4,1381.2 3912,1363.5 3912.1,1362 3912.3,1359 3922.4,1387.2"/>
</g>
<path id="path42" d="m 358.4,1231.8 v 137.6 H 0 v -70.7 h 0.2 v -62.8 c 2,13.3 13.4,23.4 27.2,23.4 15.2,0 27.5,-12.3 27.5,-27.5 0,-15.2 -12.3,-27.5 -27.5,-27.5 -14.9,0 -7.1,-17.4 17.4,-17.4 24.8,0 44.9,20.1 44.9,44.9 v 4.1 c 2,13.3 13.4,23.4 27.2,23.4 15.2,0 27.5,-12.3 27.5,-27.5 0,-15.2 -12.3,-27.5 -27.5,-27.5 -14.9,0 -7.1,-17.4 17.4,-17.4 24.8,0 44.9,20.1 44.9,44.9 v 4.1 c 2,13.3 13.4,23.4 27.2,23.4 15.2,0 27.5,-12.3 27.5,-27.5 0,-15.2 -12.3,-27.5 -27.5,-27.5 -14.9,0 -7.1,-17.4 17.4,-17.4 24.8,0 44.9,20.1 44.9,44.9 v 4.1 c 2,13.3 13.4,23.4 27.2,23.4 15.2,0 27.5,-12.3 27.5,-27.5 0,-15.2 -12.3,-27.5 -27.5,-27.5 -14.9,0 -7.1,-17.4 17.4,-17.4 25,0 45.1,20.1 45.1,44.9 z"/>
<g transform="translate(-1059.2,178.8)" id="g49">
	<path id="path43" d="m 2843.5,1084.2 h 15.7 l 3.9,64.1 h -15.3 l -1.6,-26.2 -9.2,26.2 h -15.3 l -9.7,-27.2 -1.8,27.2 h -15.3 l 4.2,-64.1 h 15.7 l 14.5,40.1 z"/>
	<path id="path44" d="m 2911.1,1148.3 -2.6,-7.8 h -20.8 l -2.7,7.8 h -16.2 l 22.6,-64 h 14.4 l 21.4,64 z m -18.2,-22.5 h 10.7 l -5.2,-15.5 z"/>
	<path id="path45" d="m 2981.5,1084.2 h 15.7 l 3.9,64.1 h -15.3 l -1.6,-26.2 -9.2,26.2 h -15.3 l -9.7,-27.2 -1.8,27.2 h -15.3 l 4.2,-64.1 h 15.7 l 14.5,40.1 z"/>
	<path id="path46" d="m 3055.8,1084.2 h 15.7 l 3.9,64.1 h -15.3 l -1.6,-26.2 -9.2,26.2 H 3034 l -9.7,-27.2 -1.8,27.2 h -15.3 l 4.2,-64.1 h 15.7 l 14.5,40.1 z"/>
	<path id="path47" d="m 3112.4,1084.2 c 4.6,0 8.9,0.8 12.9,2.5 4,1.7 7.5,4 10.5,6.8 3,2.9 5.4,6.3 7.1,10.2 1.7,3.9 2.6,8.1 2.6,12.5 0,4.4 -0.9,8.6 -2.6,12.5 -1.7,3.9 -4.1,7.3 -7.1,10.2 -3,2.9 -6.5,5.2 -10.5,6.8 -4,1.7 -8.3,2.5 -12.9,2.5 -4.6,0 -8.9,-0.8 -12.9,-2.5 -4,-1.7 -7.5,-4 -10.5,-6.8 -3,-2.8 -5.3,-6.3 -7.1,-10.2 -1.7,-3.9 -2.6,-8.1 -2.6,-12.5 0,-4.4 0.9,-8.6 2.6,-12.5 1.7,-3.9 4.1,-7.3 7.1,-10.2 3,-2.9 6.5,-5.2 10.5,-6.8 4,-1.7 8.3,-2.5 12.9,-2.5 z m 0.1,49.3 c 2.5,0 4.8,-0.4 6.9,-1.4 2.2,-0.9 4.1,-2.1 5.7,-3.7 1.6,-1.6 2.9,-3.4 3.8,-5.5 0.9,-2.1 1.4,-4.3 1.4,-6.7 0,-2.4 -0.5,-4.6 -1.4,-6.7 -0.9,-2.1 -2.2,-3.9 -3.8,-5.5 -1.6,-1.6 -3.5,-2.8 -5.7,-3.7 -2.2,-0.9 -4.5,-1.4 -6.9,-1.4 -2.5,0 -4.8,0.5 -6.9,1.4 -2.2,0.9 -4.1,2.1 -5.7,3.7 -1.6,1.6 -2.9,3.4 -3.8,5.5 -0.9,2.1 -1.4,4.3 -1.4,6.7 0,2.4 0.5,4.6 1.4,6.7 0.9,2.1 2.2,3.9 3.8,5.5 1.6,1.6 3.5,2.8 5.7,3.7 2.1,0.9 4.4,1.4 6.9,1.4 z"/>
	<path id="path48" d="m 3185.3,1084 v 14.7 h -12.7 v 49.6 h -15.3 v -49.6 h -12.6 V 1084 Z"/>
	<path id="path49" d="m 3225.1,1084.3 h 15.3 v 64 h -15.3 v -24.2 H 3206 v 24.2 h -15.3 v -64 h 15.3 v 25.1 h 19.1 z"/>
</g>
<g transform="translate(-1059.2,178.8)" id="g50">
	<path id="path50" d="m 2435.8,1073.4 c -6.4,-4.6 -11,-11 -13.5,-18.5 l -0.1,-0.5 h -0.6 l 0.1,0.5 c 2.4,7.5 7.1,13.9 13.5,18.5 6.4,4.6 13.9,7.1 21.8,7.1 h 0.5 c -7.8,0 -15.4,-2.5 -21.7,-7.1 z" class="st1"/>
</g>
<rect id="rect50" height="70.699997" width="0.2" y="1298.7001" x="124.10005"/>
<rect id="rect51" height="602.90002" width="512.29999" y="4" x="1699.7"/>
<rect id="rect52" height="629.5" width="1074.8" y="0" x="482.60004"/>
<path id="path52" d="M 840.6,491.9 V 629.5 H 482.5 v -70.7 h -0.2 V 496 c 2,13.3 13.4,23.4 27.2,23.4 15.2,0 27.5,-12.3 27.5,-27.5 0,-15.2 -12.3,-27.5 -27.5,-27.5 -14.9,0 -7.1,-17.4 17.4,-17.4 24.8,0 44.9,20.1 44.9,44.9 v 4.1 c 2,13.3 13.4,23.4 27.2,23.4 15.2,0 27.5,-12.3 27.5,-27.5 0,-15.2 -12.3,-27.5 -27.5,-27.5 -14.9,0 -7.1,-17.4 17.4,-17.4 24.8,0 44.9,20.1 44.9,44.9 v 4.1 c 2,13.3 13.4,23.4 27.2,23.4 15.2,0 27.5,-12.3 27.5,-27.5 0,-15.2 -12.3,-27.5 -27.5,-27.5 -14.9,0 -7.1,-17.4 17.4,-17.4 24.8,0 44.9,20.1 44.9,44.9 v 4.1 c 2,13.3 13.4,23.4 27.2,23.4 15.2,0 27.5,-12.3 27.5,-27.5 0,-15.2 -12.3,-27.5 -27.5,-27.5 -14.9,0 -7.1,-17.4 17.4,-17.4 25.1,-0.1 45.2,20.1 45.2,44.9 z" class="st0"/>
<path id="path53" d="m 1429.7,430.4 v 38.2 c 0,9.8 -7.9,17.7 -17.7,17.7 h -14.2 v 26 c -6.5,0 -12.6,-2.1 -17.6,-5.7 -5,-3.6 -8.9,-8.8 -10.9,-15 l -1.7,-5.3 h -248.2 c -34.6,0 -68.9,-5.4 -101.8,-16.1 -10,-3.2 -15,-12 -15,-20.7 0,-8.7 5,-17.4 15,-20.7 16.4,-5.3 33.3,-9.3 50.3,-12 13.3,-2.1 57.8,-3.4 71.3,-3.9 v 9.4 c 0,18.9 15.4,34.2 34.2,34.2 h 14 c 18.9,0 34.2,-15.4 34.2,-34.2 v -9.6 h 100.8 v 9.6 c 0,18.9 15.4,34.2 34.2,34.2 h 14 c 18.9,0 34.2,-15.4 34.2,-34.2 v -9.6 h 7.1 c 9.9,0 17.8,7.9 17.8,17.7 z" class="st0"/>
<path id="path54" d="m 1143.3,518.6 c 0.7,-0.2 1.4,-0.4 2.1,-0.6 -0.7,0.2 -1.4,0.4 -2.1,0.6 z"/>
<path id="path55" d="m 1164.3,493.3 c -0.6,11.6 -8.3,21.2 -18.9,24.7 10.5,-3.5 18.2,-13.2 18.9,-24.7 z"/>
<path id="path56" d="m 1321.2,567.7 c -0.9,-2.1 -2.2,-3.9 -3.8,-5.5 -1.6,-1.6 -3.5,-2.8 -5.7,-3.7 -2.2,-0.9 -4.5,-1.3 -7,-1.3 -2.5,0 -4.8,0.4 -6.9,1.3 -2.2,0.9 -4.1,2.1 -5.7,3.7 -1.6,1.6 -2.9,3.4 -3.8,5.5 -0.9,2.1 -1.4,4.3 -1.4,6.7 0,2.4 0.5,4.6 1.4,6.7 0.9,2.1 2.2,3.9 3.8,5.5 1.6,1.6 3.5,2.8 5.7,3.7 2.2,0.9 4.5,1.3 6.9,1.3 2.5,0 4.8,-0.5 7,-1.3 2.2,-0.9 4.1,-2.1 5.7,-3.7 1.6,-1.6 2.9,-3.4 3.8,-5.5 0.9,-2.1 1.4,-4.3 1.4,-6.7 0,-2.3 -0.5,-4.6 -1.4,-6.7 z m 0,0 c -0.9,-2.1 -2.2,-3.9 -3.8,-5.5 -1.6,-1.6 -3.5,-2.8 -5.7,-3.7 -2.2,-0.9 -4.5,-1.3 -7,-1.3 -2.5,0 -4.8,0.4 -6.9,1.3 -2.2,0.9 -4.1,2.1 -5.7,3.7 -1.6,1.6 -2.9,3.4 -3.8,5.5 -0.9,2.1 -1.4,4.3 -1.4,6.7 0,2.4 0.5,4.6 1.4,6.7 0.9,2.1 2.2,3.9 3.8,5.5 1.6,1.6 3.5,2.8 5.7,3.7 2.2,0.9 4.5,1.3 6.9,1.3 2.5,0 4.8,-0.5 7,-1.3 2.2,-0.9 4.1,-2.1 5.7,-3.7 1.6,-1.6 2.9,-3.4 3.8,-5.5 0.9,-2.1 1.4,-4.3 1.4,-6.7 0,-2.3 -0.5,-4.6 -1.4,-6.7 z m -230.5,0.8 -5.5,15.5 h 10.7 z m 230.5,-0.8 c -0.9,-2.1 -2.2,-3.9 -3.8,-5.5 -1.6,-1.6 -3.5,-2.8 -5.7,-3.7 -2.2,-0.9 -4.5,-1.3 -7,-1.3 -2.5,0 -4.8,0.4 -6.9,1.3 -2.2,0.9 -4.1,2.1 -5.7,3.7 -1.6,1.6 -2.9,3.4 -3.8,5.5 -0.9,2.1 -1.4,4.3 -1.4,6.7 0,2.4 0.5,4.6 1.4,6.7 0.9,2.1 2.2,3.9 3.8,5.5 1.6,1.6 3.5,2.8 5.7,3.7 2.2,0.9 4.5,1.3 6.9,1.3 2.5,0 4.8,-0.5 7,-1.3 2.2,-0.9 4.1,-2.1 5.7,-3.7 1.6,-1.6 2.9,-3.4 3.8,-5.5 0.9,-2.1 1.4,-4.3 1.4,-6.7 0,-2.3 -0.5,-4.6 -1.4,-6.7 z m 0,0 c -0.9,-2.1 -2.2,-3.9 -3.8,-5.5 -1.6,-1.6 -3.5,-2.8 -5.7,-3.7 -2.2,-0.9 -4.5,-1.3 -7,-1.3 -2.5,0 -4.8,0.4 -6.9,1.3 -2.2,0.9 -4.1,2.1 -5.7,3.7 -1.6,1.6 -2.9,3.4 -3.8,5.5 -0.9,2.1 -1.4,4.3 -1.4,6.7 0,2.4 0.5,4.6 1.4,6.7 0.9,2.1 2.2,3.9 3.8,5.5 1.6,1.6 3.5,2.8 5.7,3.7 2.2,0.9 4.5,1.3 6.9,1.3 2.5,0 4.8,-0.5 7,-1.3 2.2,-0.9 4.1,-2.1 5.7,-3.7 1.6,-1.6 2.9,-3.4 3.8,-5.5 0.9,-2.1 1.4,-4.3 1.4,-6.7 0,-2.3 -0.5,-4.6 -1.4,-6.7 z m -230.5,0.8 -5.5,15.5 h 10.7 z m 421.7,-121.6 c -24.5,0 -32.3,17.4 -17.4,17.4 15.2,0 27.5,12.3 27.5,27.5 0,15.2 -12.3,27.5 -27.5,27.5 -13.8,0 -25.2,-10.2 -27.2,-23.4 v -4.1 c 0,-19.8 -12.8,-36.5 -30.5,-42.5 v 19.2 c 0,5.9 -2.1,11.3 -5.5,15.5 0.8,2.5 1.1,5.1 1.1,7.8 0,15.2 -12.3,27.5 -27.5,27.5 -0.5,0 -0.9,0 -1.4,0 h -5.7 c -7.9,0 -15.4,-2.4 -21.8,-7.1 -6.4,-4.6 -11.1,-11 -13.5,-18.5 l -0.1,-0.5 h -19.6 c -0.7,14.5 -12.8,26.1 -27.5,26.1 -13.8,0 -25.2,-10.2 -27.2,-23.4 v -2.7 h -34.9 c -0.7,14.5 -12.8,26.1 -27.5,26.1 -13.8,0 -25.2,-10.2 -27.2,-23.4 v -2.7 h -34.9 c -0.6,11.6 -8.3,21.2 -18.9,24.7 0,0 0,0 0,0 -0.7,0.2 -1.4,0.4 -2.1,0.6 -0.4,0.1 -0.8,0.2 -1.3,0.3 -0.4,0.1 -0.8,0.2 -1.3,0.2 v 0 c -0.8,0.1 -1.7,0.2 -2.6,0.3 -0.4,0 -0.9,0 -1.3,0 h -0.1 c -13.8,0 -25.2,-10.2 -27.2,-23.4 v -2.8 c -11.7,-0.3 -23.3,-1.3 -34.9,-2.8 0,0.5 0,1 0,1.5 0,15.2 -12.3,27.5 -27.5,27.5 -13.8,0 -25.2,-10.2 -27.2,-23.4 v -4.1 c 0,-5 -0.8,-9.8 -2.3,-14.3 -0.8,-0.3 -1.5,-0.5 -2.3,-0.7 -11.3,-3.7 -18.9,-13.3 -19.8,-25 -6.1,-3.2 -13.1,-4.9 -20.5,-4.9 -24.6,0 -32.3,17.4 -17.4,17.4 15.2,0 27.5,12.3 27.5,27.5 0,15.2 -12.3,27.5 -27.5,27.5 -13.8,0 -25.2,-10.2 -27.2,-23.4 v -4.1 c 0,-24.8 -20.1,-44.9 -44.9,-44.9 -24.5,0 -32.3,17.4 -17.4,17.4 15.2,0 27.5,12.3 27.5,27.5 0,15.2 -12.3,27.5 -27.5,27.5 -13.8,0 -25.2,-10.2 -27.2,-23.4 v -4.1 c 0,-1.4 -0.1,-2.8 -0.2,-4.3 v 141.8 h 716.7 V 491.9 c 0.2,-24.8 -19.9,-45 -44.8,-45 z m -472.3,159.7 -1.6,-26.2 -9.2,26.2 H 1014 l -9.8,-27.2 -1.8,27.2 h -15.3 l 4.2,-64.1 h 15.7 l 14.5,40.1 14.2,-40.1 h 15.7 l 3.9,64.1 z m 63.3,0 -2.6,-7.8 H 1080 l -2.7,7.8 h -16.1 l 22.6,-64 h 14.4 l 21.4,64 z m 74.7,0 -1.6,-26.2 -9.2,26.2 H 1152 l -9.8,-27.2 -1.8,27.2 h -15.3 l 4.2,-64.1 h 15.7 l 14.5,40.1 14.2,-40.1 h 15.7 l 3.9,64.1 z m 74.3,0 -1.6,-26.2 -9.2,26.2 h -15.3 l -9.7,-27.2 -1.8,27.2 h -15.3 l 4.2,-64.1 h 15.7 l 14.5,40.1 14.2,-40.1 h 15.7 l 3.9,64.1 z m 82.8,-19.7 c -1.7,3.9 -4.1,7.3 -7.1,10.2 -3,2.9 -6.5,5.2 -10.6,6.8 -4,1.7 -8.3,2.5 -12.9,2.5 -4.6,0 -8.9,-0.8 -12.9,-2.5 -4,-1.7 -7.5,-4 -10.5,-6.8 -3,-2.8 -5.3,-6.3 -7.1,-10.2 -1.8,-3.9 -2.6,-8.1 -2.6,-12.5 0,-4.4 0.9,-8.6 2.6,-12.5 1.7,-3.9 4.1,-7.3 7.1,-10.2 3,-2.9 6.5,-5.2 10.5,-6.8 4,-1.7 8.3,-2.5 12.9,-2.5 4.6,0 8.9,0.8 12.9,2.5 4,1.7 7.6,4 10.6,6.8 3,2.9 5.4,6.3 7.1,10.2 1.7,3.9 2.6,8 2.6,12.5 0,4.5 -0.8,8.6 -2.6,12.5 z m 42.4,-29.9 h -12.8 v 49.5 h -15.3 V 557 h -12.6 v -14.7 h 40.6 V 557 Z m 55.1,49.6 h -15.3 v -24.2 h -19.1 v 24.2 H 1383 v -64 h 15.3 v 25.1 h 19.1 v -25.1 h 15.3 z m -115.3,-44.3 c -1.6,-1.6 -3.5,-2.8 -5.7,-3.7 -2.2,-0.9 -4.5,-1.3 -7,-1.3 -2.5,0 -4.8,0.4 -6.9,1.3 -2.2,0.9 -4.1,2.1 -5.7,3.7 -1.6,1.6 -2.9,3.4 -3.8,5.5 -0.9,2.1 -1.4,4.3 -1.4,6.7 0,2.4 0.5,4.6 1.4,6.7 0.9,2.1 2.2,3.9 3.8,5.5 1.6,1.6 3.5,2.8 5.7,3.7 2.2,0.9 4.5,1.3 6.9,1.3 2.5,0 4.8,-0.5 7,-1.3 2.2,-0.9 4.1,-2.1 5.7,-3.7 1.6,-1.6 2.9,-3.4 3.8,-5.5 0.9,-2.1 1.4,-4.3 1.4,-6.7 0,-2.4 -0.5,-4.6 -1.4,-6.7 -0.9,-2.1 -2.2,-4 -3.8,-5.5 z m -232.2,21.8 h 10.7 l -5.2,-15.5 z m 236,-16.4 c -0.9,-2.1 -2.2,-3.9 -3.8,-5.5 -1.6,-1.6 -3.5,-2.8 -5.7,-3.7 -2.2,-0.9 -4.5,-1.3 -7,-1.3 -2.5,0 -4.8,0.4 -6.9,1.3 -2.2,0.9 -4.1,2.1 -5.7,3.7 -1.6,1.6 -2.9,3.4 -3.8,5.5 -0.9,2.1 -1.4,4.3 -1.4,6.7 0,2.4 0.5,4.6 1.4,6.7 0.9,2.1 2.2,3.9 3.8,5.5 1.6,1.6 3.5,2.8 5.7,3.7 2.2,0.9 4.5,1.3 6.9,1.3 2.5,0 4.8,-0.5 7,-1.3 2.2,-0.9 4.1,-2.1 5.7,-3.7 1.6,-1.6 2.9,-3.4 3.8,-5.5 0.9,-2.1 1.4,-4.3 1.4,-6.7 0,-2.3 -0.5,-4.6 -1.4,-6.7 z m 0,0 c -0.9,-2.1 -2.2,-3.9 -3.8,-5.5 -1.6,-1.6 -3.5,-2.8 -5.7,-3.7 -2.2,-0.9 -4.5,-1.3 -7,-1.3 -2.5,0 -4.8,0.4 -6.9,1.3 -2.2,0.9 -4.1,2.1 -5.7,3.7 -1.6,1.6 -2.9,3.4 -3.8,5.5 -0.9,2.1 -1.4,4.3 -1.4,6.7 0,2.4 0.5,4.6 1.4,6.7 0.9,2.1 2.2,3.9 3.8,5.5 1.6,1.6 3.5,2.8 5.7,3.7 2.2,0.9 4.5,1.3 6.9,1.3 2.5,0 4.8,-0.5 7,-1.3 2.2,-0.9 4.1,-2.1 5.7,-3.7 1.6,-1.6 2.9,-3.4 3.8,-5.5 0.9,-2.1 1.4,-4.3 1.4,-6.7 0,-2.3 -0.5,-4.6 -1.4,-6.7 z m 0,0 c -0.9,-2.1 -2.2,-3.9 -3.8,-5.5 -1.6,-1.6 -3.5,-2.8 -5.7,-3.7 -2.2,-0.9 -4.5,-1.3 -7,-1.3 -2.5,0 -4.8,0.4 -6.9,1.3 -2.2,0.9 -4.1,2.1 -5.7,3.7 -1.6,1.6 -2.9,3.4 -3.8,5.5 -0.9,2.1 -1.4,4.3 -1.4,6.7 0,2.4 0.5,4.6 1.4,6.7 0.9,2.1 2.2,3.9 3.8,5.5 1.6,1.6 3.5,2.8 5.7,3.7 2.2,0.9 4.5,1.3 6.9,1.3 2.5,0 4.8,-0.5 7,-1.3 2.2,-0.9 4.1,-2.1 5.7,-3.7 1.6,-1.6 2.9,-3.4 3.8,-5.5 0.9,-2.1 1.4,-4.3 1.4,-6.7 0,-2.3 -0.5,-4.6 -1.4,-6.7 z m 0,0 c -0.9,-2.1 -2.2,-3.9 -3.8,-5.5 -1.6,-1.6 -3.5,-2.8 -5.7,-3.7 -2.2,-0.9 -4.5,-1.3 -7,-1.3 -2.5,0 -4.8,0.4 -6.9,1.3 -2.2,0.9 -4.1,2.1 -5.7,3.7 -1.6,1.6 -2.9,3.4 -3.8,5.5 -0.9,2.1 -1.4,4.3 -1.4,6.7 0,2.4 0.5,4.6 1.4,6.7 0.9,2.1 2.2,3.9 3.8,5.5 1.6,1.6 3.5,2.8 5.7,3.7 2.2,0.9 4.5,1.3 6.9,1.3 2.5,0 4.8,-0.5 7,-1.3 2.2,-0.9 4.1,-2.1 5.7,-3.7 1.6,-1.6 2.9,-3.4 3.8,-5.5 0.9,-2.1 1.4,-4.3 1.4,-6.7 0,-2.3 -0.5,-4.6 -1.4,-6.7 z" class="st0"/>
<g transform="translate(-1059.2,178.8)" id="g57">
	<path id="path57" d="m 2372.8,-26.1 c -11.6,-46.2 -53.1,-80.6 -102.8,-81.3 V -97 c 14.6,3.2 25.6,16.3 25.6,31.9 0,15.6 -11,28.7 -25.6,31.9 V 4.9 c 0,34.9 -28,63.4 -62.4,63.4 -1.1,0 -2.3,0 -3.4,-0.1 -13.5,-0.8 -26.3,-5.9 -36.4,-14.4 l -7.1,-5.7 V 63 c 0,36.3 17.9,68.3 45.3,87.8 v 92.7 c 0,15 12.2,27.1 27.1,27.1 h 14 c 15,0 27.1,-12.2 27.1,-27.1 V 197 h 115 v 46.5 c 0,15 12.2,27.1 27.1,27.1 h 14 c 15,0 27.1,-12.2 27.1,-34.1 v -155 c 0.1,-47 -35.5,-92.6 -84.6,-107.6 z m -54.6,199 c -0.7,0.7 -1.6,1 -2.5,1 -0.9,0 -1.8,-0.3 -2.5,-1 l -28.1,-28.1 c -1.4,-1.4 -1.4,-3.6 0,-5 1.4,-1.4 3.6,-1.4 5,0 l 28.1,28.1 c 1.4,1.3 1.4,3.6 0,5 z m 28.1,0 c -0.7,0.7 -1.6,1 -2.5,1 -0.9,0 -1.8,-0.3 -2.5,-1 l -28.1,-28.1 c -1.4,-1.4 -1.4,-3.6 0,-5 1.4,-1.4 3.6,-1.4 5,0 l 28.1,28.1 c 1.4,1.3 1.4,3.6 0,5 z m 28.2,0 c -0.7,0.7 -1.6,1 -2.5,1 -0.9,0 -1.8,-0.3 -2.5,-1 l -28.2,-28.1 c -1.4,-1.4 -1.4,-3.6 0,-5 1.4,-1.4 3.6,-1.4 5,0 l 28.1,28.1 c 1.4,1.3 1.4,3.6 0.1,5 z" class="st0"/>
</g>
<g transform="translate(-1059.2,178.8)" id="g58">
	<path id="path58" d="m 2140.8,99.3 c 3.7,3.7 5.5,8.5 5.5,13.3 0,4.8 -1.8,9.6 -5.5,13.3 -7.3,7.3 -19.2,7.3 -26.6,0 l -32,-32 c -6,-6 -10.9,-12.7 -14.6,-19.9 l 51.9,4 z" class="st0"/>
</g>
<path id="path59" d="m 1148.4,240 c -1.6,0 -3.2,-0.1 -4.7,-0.2 v 0 c 0.5,0 1.1,0.1 1.6,0.1 1.1,0.1 2.1,0.1 3.1,0.1 0.5,0 1.1,0 1.6,0 0.5,0 1,0 1.5,-0.1 0.3,0 0.7,0 1,-0.1 0.3,0 0.7,-0.1 1.1,-0.1 0.4,0 0.8,-0.1 1.3,-0.1 -2.1,0.2 -4.3,0.4 -6.5,0.4 z m -11.6,-1.2 v 0 c -0.3,-0.1 -0.6,-0.1 -0.8,-0.2 0.2,0 0.5,0.1 0.8,0.2 z m -3.1,-0.8 c 0.4,0.1 0.7,0.2 1.1,0.3 0.4,0.1 0.8,0.2 1.2,0.3 -0.9,-0.2 -1.8,-0.4 -2.6,-0.7 0.1,0 0.2,0.1 0.3,0.1 z m -3.4,-1.1 c 0.1,0 0.3,0.1 0.5,0.1 -0.4,-0.1 -0.9,-0.3 -1.3,-0.5 0.2,0.2 0.5,0.3 0.8,0.4 z m -1.5,-0.5 c 0.2,0.1 0.4,0.2 0.7,0.2 -0.4,-0.1 -0.8,-0.3 -1.2,-0.4 0.1,0.1 0.3,0.1 0.5,0.2 z m -3.4,-1.4 c 0.1,0 0.2,0.1 0.3,0.1 -0.4,-0.2 -0.8,-0.4 -1.2,-0.6 0.3,0.2 0.6,0.3 0.9,0.5 z m -1.2,-0.6 c 0.1,0 0.2,0.1 0.3,0.1 -0.2,-0.1 -0.5,-0.2 -0.7,-0.3 0.1,0.1 0.3,0.1 0.4,0.2 z" class="st0"/>
<path id="path60" d="m 1203.7,88.100003 v -26.2 c 0,-14.8 -12,-26.8 -26.8,-26.8 h -5.4 v 41.2 c 0,2.1 -1.9,3.8 -4.2,3.4 -1.6,-0.3 -2.8,-1.8 -2.8,-3.5 v -41.1 h -23.6 v 41.3 c 0,1.9 -1.6,3.5 -3.5,3.5 -1.9,0 -3.5,-1.6 -3.5,-3.5 v -41.3 h -6.9 c -14.8,0 -26.8,12 -26.8,26.8 v 18 L 1022.9,157.2 c -18.5,18.5 -26.2,43.5 -23.3,67.6 h 49.3 c 1.7,-8.5 6.7,-16.4 14.8,-21.5 l 2.8,-1.8 v 16.9 c 0,7.4 -6,13.5 -13.5,13.5 h -79.2 c -3.5,0 -6.3,2.8 -6.3,6.3 0,3.3 2.6,6.1 5.9,6.3 l 88.9,5.2 c 16.8,1.3 31.2,-12 31.2,-28.9 v -31.5 c 0,0.2 0,0.5 0.1,0.7 0,0.1 0,0.2 0,0.3 0,0.2 0,0.5 0.1,0.7 0,0.4 0.1,0.8 0.2,1.3 0,0.3 0.1,0.6 0.1,0.8 0.2,1.1 0.4,2.2 0.6,3.2 0.1,0.6 0.3,1.2 0.4,1.8 0,0 0,0 0,0.1 0.5,1.8 1,3.6 1.7,5.4 0,0 0,0 0,0.1 0.2,0.5 0.4,1.1 0.6,1.6 0,0.1 0.1,0.2 0.1,0.3 0.2,0.5 0.4,1 0.7,1.6 0.3,0.6 0.5,1 0.7,1.5 0.1,0.1 0.1,0.3 0.2,0.4 0.2,0.5 0.5,0.9 0.7,1.4 0,0 0,0.1 0.1,0.1 0.3,0.5 0.6,1.1 0.9,1.6 0.2,0.4 0.5,0.8 0.7,1.2 0.1,0.2 0.2,0.3 0.3,0.5 0.3,0.4 0.5,0.9 0.8,1.3 0.3,0.5 0.6,0.9 0.9,1.3 0.3,0.4 0.5,0.7 0.8,1.1 0.2,0.2 0.4,0.5 0.5,0.7 0.3,0.4 0.6,0.8 0.9,1.1 0.2,0.3 0.5,0.6 0.7,0.8 0.5,0.6 1.1,1.2 1.6,1.8 0.3,0.3 0.6,0.6 0.8,0.9 0.1,0.1 0.2,0.2 0.3,0.3 2.4,2.4 4.9,4.6 7.7,6.6 0.3,0.2 0.6,0.5 1,0.7 0.4,0.3 0.8,0.5 1.1,0.8 1.4,0.9 2.8,1.7 4.2,2.5 0.3,0.2 0.6,0.3 0.9,0.5 0.2,0.1 0.5,0.2 0.7,0.3 0.4,0.2 0.8,0.4 1.2,0.6 0.8,0.4 1.7,0.7 2.6,1.1 0.4,0.1 0.8,0.3 1.2,0.4 0.4,0.2 0.9,0.3 1.3,0.5 0.9,0.3 1.7,0.6 2.6,0.8 0.2,0.1 0.5,0.1 0.7,0.2 v -38.7 c 0,-1.9 1.6,-3.5 3.5,-3.5 1.9,0 3.5,1.6 3.5,3.5 v 40 c 0.9,0.1 1.8,0.2 2.8,0.3 1.6,0.1 3.1,0.2 4.7,0.2 2.2,0 4.3,-0.1 6.4,-0.4 0,0 0.1,0 0.1,0 0.7,-0.1 1.4,-0.2 2.1,-0.3 0.4,-0.1 0.8,-0.1 1.2,-0.2 0.1,0 0.1,0 0.2,0 0.1,0 0.1,0 0.2,0 2,-0.4 4,-0.9 5.9,-1.5 v -38 c 0,-1.7 1.1,-3.2 2.8,-3.5 2.2,-0.4 4.2,1.3 4.2,3.4 v 35.4 c 18.6,-8.6 31.7,-27.2 32.2,-48.9 0,-0.1 0,-0.1 0,-0.2 0,-0.2 0,-0.4 0,-0.6 0,-0.5 0,-1.1 0,-1.6 v -44.4 c 14.1,0 25.6,-11.5 25.6,-25.6 -0.3,-13.999997 -11.7,-25.499997 -25.9,-25.499997 z M 1133.8,145.5 c -5.7,0 -10.5,-3.9 -11.8,-9.2 -0.2,-0.9 -0.3,-1.9 -0.3,-2.9 0,-6.7 5.4,-12.1 12.1,-12.1 5.4,0 9.9,3.5 11.5,8.3 0.4,1.2 0.6,2.5 0.6,3.8 0,6.6 -5.5,12.1 -12.1,12.1 z m 69.9,-19.4 v -24.8 c 6.8,0 12.4,5.5 12.4,12.4 0,6.9 -5.5,12.4 -12.4,12.4 z" class="st0"/>
<path id="path61" d="m 1093.8,193.1 c 0.2,1.1 0.4,2.2 0.6,3.2 -0.2,-1 -0.4,-2.1 -0.6,-3.2 z" class="st0"/>
<path id="path62" d="m 1094.9,198.3 c 0.5,1.8 1,3.6 1.7,5.4 -0.7,-1.8 -1.3,-3.6 -1.7,-5.4 z" class="st0"/>
<path id="path63" d="m 1103.2,216.5 c 0.4,0.6 0.9,1.2 1.3,1.8 -0.2,-0.2 -0.4,-0.5 -0.5,-0.7 -0.2,-0.4 -0.5,-0.8 -0.8,-1.1 z" class="st0"/>
<path id="path64" d="m 1108.6,223 c 0.1,0.1 0.2,0.2 0.3,0.3 -0.4,-0.4 -0.7,-0.8 -1.1,-1.2 0.2,0.3 0.5,0.6 0.8,0.9 z" class="st0"/>
<path id="path65" d="m 1116.6,229.8 c 0.7,0.5 1.4,1 2.1,1.4 -0.4,-0.3 -0.8,-0.5 -1.1,-0.8 -0.4,-0.1 -0.7,-0.3 -1,-0.6 z" class="st0"/>
<path id="path66" d="m 2181.2,430.4 v 38.2 c 0,9.8 -7.9,17.7 -17.7,17.7 h -14.2 v 26 c -6.5,0 -12.6,-2.1 -17.6,-5.7 -5,-3.6 -8.9,-8.8 -10.9,-15 l -1.7,-5.3 h -248.3 c -34.6,0 -68.9,-5.4 -101.8,-16.1 -10,-3.2 -15,-12 -15,-20.7 0,-8.7 5,-17.4 15,-20.7 16.4,-5.3 33.3,-9.3 50.3,-12 13.3,-2.1 57.8,-3.4 71.3,-3.9 v 9.4 c 0,18.9 15.4,34.2 34.2,34.2 h 14 c 18.9,0 34.2,-15.4 34.2,-34.2 v -9.6 h 100.8 v 9.6 c 0,18.9 15.4,34.2 34.2,34.2 h 14 c 18.9,0 34.2,-15.4 34.2,-34.2 v -9.6 h 7.1 c 10,0 17.9,7.9 17.9,17.7 z" class="st0"/>
<g transform="translate(-1059.2,178.8)" id="g67">
	<path id="path67" d="m 3123.7,-26.1 c -11.6,-46.2 -53.1,-80.6 -102.8,-81.3 V -97 c 14.6,3.2 25.6,16.3 25.6,31.9 0,15.6 -11,28.7 -25.6,31.9 V 4.9 c 0,34.9 -28,63.4 -62.4,63.4 -1.1,0 -2.3,0 -3.4,-0.1 -13.5,-0.8 -26.3,-5.9 -36.4,-14.4 l -7.1,-5.7 V 63 c 0,36.3 17.9,68.3 45.3,87.8 v 92.7 c 0,15 12.2,27.1 27.1,27.1 h 14 c 15,0 27.1,-12.2 27.1,-27.1 V 197 h 115 v 46.5 c 0,15 12.2,27.1 27.1,27.1 h 14 c 15,0 27.1,-12.2 27.1,-34.1 v -155 c 0.2,-47 -35.5,-92.6 -84.6,-107.6 z m -54.6,199 c -0.7,0.7 -1.6,1 -2.5,1 -0.9,0 -1.8,-0.3 -2.5,-1 L 3036,144.8 c -1.4,-1.4 -1.4,-3.6 0,-5 1.4,-1.4 3.6,-1.4 5,0 l 28.1,28.1 c 1.4,1.3 1.4,3.6 0,5 z m 28.2,0 c -0.7,0.7 -1.6,1 -2.5,1 -0.9,0 -1.8,-0.3 -2.5,-1 l -28.1,-28.1 c -1.4,-1.4 -1.4,-3.6 0,-5 1.4,-1.4 3.6,-1.4 5,0 l 28.1,28.1 c 1.3,1.3 1.3,3.6 0,5 z m 28.1,0 c -0.7,0.7 -1.6,1 -2.5,1 -0.9,0 -1.8,-0.3 -2.5,-1 l -28.2,-28.1 c -1.4,-1.4 -1.4,-3.6 0,-5 1.4,-1.4 3.6,-1.4 5,0 l 28.1,28.1 c 1.5,1.3 1.5,3.6 0.1,5 z" class="st0"/>
</g>
<g transform="translate(-1059.2,178.8)" id="g68">
	<path id="path68" d="m 2891.8,99.3 c 3.7,3.7 5.5,8.5 5.5,13.3 0,4.8 -1.8,9.6 -5.5,13.3 -7.3,7.3 -19.2,7.3 -26.6,0 l -32,-32 c -6,-6 -10.9,-12.7 -14.6,-19.9 l 51.9,4 z" class="st0"/>
</g>
<path id="path69" d="m 1899.4,240 c -1.6,0 -3.2,-0.1 -4.7,-0.2 v 0 c 0.5,0 1.1,0.1 1.6,0.1 1,0.1 2,0.1 3.1,0.1 0.5,0 1.1,0 1.6,0 0.5,0 1,0 1.5,-0.1 0.3,0 0.7,0 1,-0.1 0.3,0 0.7,-0.1 1.1,-0.1 0.4,0 0.8,-0.1 1.3,-0.1 -2.2,0.2 -4.3,0.4 -6.5,0.4 z m -11.7,-1.2 v 0 c -0.3,-0.1 -0.6,-0.1 -0.8,-0.2 0.3,0 0.6,0.1 0.8,0.2 z m -3,-0.8 c 0.4,0.1 0.7,0.2 1.1,0.3 0.4,0.1 0.8,0.2 1.2,0.3 -0.9,-0.2 -1.8,-0.4 -2.6,-0.7 0,0 0.1,0.1 0.3,0.1 z m -3.5,-1.1 c 0.1,0 0.3,0.1 0.5,0.1 -0.4,-0.1 -0.9,-0.3 -1.3,-0.5 0.3,0.2 0.5,0.3 0.8,0.4 z m -1.5,-0.5 c 0.2,0.1 0.4,0.2 0.7,0.2 -0.4,-0.1 -0.8,-0.3 -1.2,-0.4 0.2,0.1 0.4,0.1 0.5,0.2 z m -3.4,-1.4 c 0.1,0 0.2,0.1 0.3,0.1 -0.4,-0.2 -0.8,-0.4 -1.2,-0.6 0.3,0.2 0.6,0.3 0.9,0.5 z m -1.1,-0.6 c 0.1,0 0.2,0.1 0.3,0.1 -0.2,-0.1 -0.5,-0.2 -0.7,-0.3 0.1,0.1 0.2,0.1 0.4,0.2 z" class="st0"/>
<path id="path70" d="m 1954.7,88.100003 v -26.2 c 0,-14.8 -12,-26.8 -26.8,-26.8 h -5.4 v 41.2 c 0,2.1 -2,3.8 -4.2,3.4 -1.6,-0.3 -2.8,-1.8 -2.8,-3.5 v -41.1 h -23.6 v 41.3 c 0,1.9 -1.6,3.5 -3.5,3.5 -1.9,0 -3.5,-1.6 -3.5,-3.5 v -41.3 h -7 c -14.8,0 -26.8,12 -26.8,26.8 v 18 L 1773.8,157.2 c -18.5,18.5 -26.2,43.5 -23.3,67.6 h 49.3 c 1.7,-8.5 6.7,-16.4 14.8,-21.5 l 2.8,-1.8 v 16.9 c 0,7.4 -6,13.5 -13.5,13.5 h -79.3 c -3.5,0 -6.3,2.8 -6.3,6.3 0,3.3 2.6,6.1 5.9,6.3 l 88.9,5.2 c 16.8,1.3 31.2,-12 31.2,-28.9 v -31.4 c 0,0.2 0,0.5 0.1,0.7 0,0.1 0,0.2 0,0.3 0,0.2 0,0.5 0.1,0.7 0.1,0.4 0.1,0.8 0.2,1.3 0,0.3 0.1,0.6 0.1,0.8 0.2,1.1 0.4,2.2 0.6,3.2 0.1,0.6 0.3,1.2 0.4,1.8 0,0 0,0 0,0.1 0.5,1.8 1,3.6 1.7,5.4 0,0 0,0 0,0.1 0.2,0.5 0.4,1.1 0.6,1.6 0,0.1 0.1,0.2 0.1,0.3 0.2,0.5 0.4,1 0.7,1.6 0.3,0.6 0.5,1 0.7,1.5 0.1,0.1 0.1,0.3 0.2,0.4 0.2,0.5 0.5,0.9 0.7,1.4 0,0 0,0.1 0,0.1 0.3,0.5 0.6,1.1 0.9,1.6 0.2,0.4 0.5,0.8 0.7,1.2 0.1,0.2 0.2,0.3 0.3,0.5 0.3,0.4 0.5,0.9 0.8,1.3 0.3,0.5 0.6,0.9 0.9,1.3 0.3,0.4 0.5,0.7 0.8,1.1 0.2,0.2 0.3,0.5 0.5,0.7 0.3,0.4 0.6,0.8 0.9,1.1 0.2,0.3 0.5,0.6 0.7,0.8 0.5,0.6 1.1,1.2 1.6,1.8 0.3,0.3 0.5,0.6 0.8,0.9 0.1,0.1 0.2,0.2 0.3,0.3 2.4,2.4 4.9,4.6 7.7,6.6 0.3,0.2 0.6,0.5 1,0.7 0.4,0.3 0.8,0.5 1.1,0.8 1.4,0.9 2.8,1.7 4.2,2.5 0.3,0.2 0.6,0.3 0.9,0.5 0.2,0.1 0.5,0.2 0.7,0.3 0.4,0.2 0.8,0.4 1.2,0.6 0.8,0.4 1.7,0.7 2.6,1.1 0.4,0.1 0.8,0.3 1.2,0.4 0.4,0.2 0.9,0.3 1.3,0.5 0.9,0.3 1.7,0.6 2.6,0.8 0.2,0.1 0.5,0.1 0.7,0.2 v -38.8 c 0,-1.9 1.5,-3.5 3.5,-3.5 1.9,0 3.5,1.6 3.5,3.5 v 40 c 0.9,0.1 1.8,0.2 2.8,0.3 1.6,0.1 3.1,0.2 4.7,0.2 2.2,0 4.3,-0.1 6.4,-0.4 0,0 0.1,0 0.1,0 0.7,-0.1 1.4,-0.2 2.1,-0.3 0.4,-0.1 0.8,-0.1 1.2,-0.2 0,0 0.1,0 0.2,0 0.1,0 0.1,0 0.2,0 2,-0.4 4,-0.9 5.9,-1.5 v -38 c 0,-1.7 1.1,-3.2 2.8,-3.5 2.2,-0.4 4.2,1.3 4.2,3.4 v 35.4 c 18.6,-8.6 31.7,-27.2 32.1,-48.9 0,-0.1 0,-0.1 0,-0.2 0,-0.2 0,-0.4 0,-0.6 0,-0.5 0,-1.1 0,-1.6 v -44.4 c 14.1,0 25.6,-11.5 25.6,-25.6 0.1,-13.999997 -11.4,-25.499997 -25.5,-25.499997 z M 1884.7,145.5 c -5.7,0 -10.5,-3.9 -11.8,-9.2 -0.2,-0.9 -0.4,-1.9 -0.4,-2.9 0,-6.7 5.4,-12.1 12.1,-12.1 5.4,0 9.9,3.5 11.5,8.3 0.4,1.2 0.6,2.5 0.6,3.8 0.1,6.6 -5.3,12.1 -12,12.1 z m 70,-19.4 v -24.8 c 6.8,0 12.4,5.5 12.4,12.4 -0.1,6.9 -5.6,12.4 -12.4,12.4 z" class="st0"/>
<path id="path71" d="m 1844.8,193.1 c 0.2,1.1 0.4,2.2 0.6,3.2 -0.3,-1 -0.5,-2.1 -0.6,-3.2 z" class="st0"/>
<path id="path72" d="m 1845.8,198.3 c 0.5,1.8 1,3.6 1.7,5.4 -0.7,-1.8 -1.2,-3.6 -1.7,-5.4 z" class="st0"/>
<path id="path73" d="m 1854.2,216.5 c 0.4,0.6 0.9,1.2 1.3,1.8 -0.2,-0.2 -0.4,-0.5 -0.5,-0.7 -0.3,-0.4 -0.6,-0.8 -0.8,-1.1 z" class="st0"/>
<path id="path74" d="m 1859.5,223 c 0.1,0.1 0.2,0.2 0.3,0.3 -0.4,-0.4 -0.7,-0.8 -1.1,-1.2 0.3,0.3 0.6,0.6 0.8,0.9 z" class="st0"/>
<path id="path75" d="m 1867.5,229.8 c 0.7,0.5 1.4,1 2.1,1.4 -0.4,-0.3 -0.8,-0.5 -1.1,-0.8 -0.4,-0.1 -0.7,-0.3 -1,-0.6 z" class="st0"/>
<path id="path76" d="M 358.4,491.9 V 629.5 H 0 V 558.8 H 0.2 V 496 c 2,13.3 13.4,23.4 27.2,23.4 15.2,0 27.5,-12.3 27.5,-27.5 0,-15.2 -12.3,-27.5 -27.5,-27.5 -14.9,0 -7.1,-17.4 17.4,-17.4 24.8,0 44.9,20.1 44.9,44.9 v 4.1 c 2,13.3 13.4,23.4 27.2,23.4 15.2,0 27.5,-12.3 27.5,-27.5 0,-15.2 -12.3,-27.5 -27.5,-27.5 -14.9,0 -7.1,-17.4 17.4,-17.4 24.8,0 44.9,20.1 44.9,44.9 v 4.1 c 2,13.3 13.4,23.4 27.2,23.4 15.2,0 27.5,-12.3 27.5,-27.5 0,-15.2 -12.3,-27.5 -27.5,-27.5 -14.9,0 -7.1,-17.4 17.4,-17.4 24.8,0 44.9,20.1 44.9,44.9 v 4.1 c 2,13.3 13.4,23.4 27.2,23.4 15.2,0 27.5,-12.3 27.5,-27.5 0,-15.2 -12.3,-27.5 -27.5,-27.5 -14.9,0 -7.1,-17.4 17.4,-17.4 25,-0.1 45.1,20.1 45.1,44.9 z" class="st0"/>
<g transform="translate(-1059.2,178.8)" id="g83">
	<path id="path77" d="m 2843.5,344.3 h 15.7 l 3.9,64.1 h -15.3 l -1.6,-26.2 -9.2,26.2 h -15.3 l -9.7,-27.2 -1.8,27.2 h -15.3 l 4.2,-64.1 h 15.7 l 14.5,40.1 z" class="st0"/>
	<path id="path78" d="m 2911.1,408.4 -2.6,-7.8 h -20.8 l -2.7,7.8 h -16.2 l 22.6,-64 h 14.4 l 21.4,64 z m -18.2,-22.5 h 10.7 l -5.2,-15.5 z" class="st0"/>
	<path id="path79" d="m 2981.5,344.3 h 15.7 l 3.9,64.1 h -15.3 l -1.6,-26.2 -9.2,26.2 h -15.3 l -9.7,-27.2 -1.8,27.2 h -15.3 l 4.2,-64.1 h 15.7 l 14.5,40.1 z" class="st0"/>
	<path id="path80" d="m 3055.8,344.3 h 15.7 l 3.9,64.1 h -15.3 l -1.6,-26.2 -9.2,26.2 H 3034 l -9.7,-27.2 -1.8,27.2 h -15.3 l 4.2,-64.1 h 15.7 l 14.5,40.1 z" class="st0"/>
	<path id="path81" d="m 3112.4,344.3 c 4.6,0 8.9,0.8 12.9,2.5 4,1.7 7.5,4 10.5,6.8 3,2.9 5.4,6.3 7.1,10.2 1.7,3.9 2.6,8.1 2.6,12.5 0,4.4 -0.9,8.6 -2.6,12.5 -1.7,3.9 -4.1,7.3 -7.1,10.2 -3,2.9 -6.5,5.2 -10.5,6.8 -4,1.7 -8.3,2.5 -12.9,2.5 -4.6,0 -8.9,-0.8 -12.9,-2.5 -4,-1.7 -7.5,-4 -10.5,-6.8 -3,-2.9 -5.3,-6.3 -7.1,-10.2 -1.7,-3.9 -2.6,-8.1 -2.6,-12.5 0,-4.4 0.9,-8.6 2.6,-12.5 1.7,-3.9 4.1,-7.3 7.1,-10.2 3,-2.9 6.5,-5.2 10.5,-6.8 4,-1.7 8.3,-2.5 12.9,-2.5 z m 0.1,49.2 c 2.5,0 4.8,-0.4 6.9,-1.4 2.2,-0.9 4.1,-2.1 5.7,-3.7 1.6,-1.6 2.9,-3.4 3.8,-5.5 0.9,-2.1 1.4,-4.3 1.4,-6.7 0,-2.4 -0.5,-4.6 -1.4,-6.7 -0.9,-2.1 -2.2,-3.9 -3.8,-5.5 -1.6,-1.6 -3.5,-2.8 -5.7,-3.7 -2.2,-0.9 -4.5,-1.4 -6.9,-1.4 -2.5,0 -4.8,0.5 -6.9,1.4 -2.2,0.9 -4.1,2.1 -5.7,3.7 -1.6,1.6 -2.9,3.4 -3.8,5.5 -0.9,2.1 -1.4,4.3 -1.4,6.7 0,2.4 0.5,4.6 1.4,6.7 0.9,2.1 2.2,3.9 3.8,5.5 1.6,1.6 3.5,2.8 5.7,3.7 2.1,1 4.4,1.4 6.9,1.4 z" class="st0"/>
	<path id="path82" d="m 3185.3,344.1 v 14.7 h -12.7 v 49.6 h -15.3 v -49.6 h -12.6 v -14.7 z" class="st0"/>
	<path id="path83" d="m 3225.1,344.3 h 15.3 v 64 h -15.3 V 384.1 H 3206 v 24.2 h -15.3 v -64 h 15.3 v 25.1 h 19.1 z" class="st0"/>
</g>
<g transform="translate(-1059.2,178.8)" id="g84">
	<path id="path84" d="m 2435.8,333.5 c -6.4,-4.6 -11,-11 -13.5,-18.5 l -0.1,-0.5 h -0.6 l 0.1,0.5 c 2.4,7.5 7.1,13.9 13.5,18.5 6.4,4.6 13.9,7.1 21.8,7.1 h 0.5 c -7.8,-0.1 -15.4,-2.5 -21.7,-7.1 z" class="st1"/>
</g>
<rect id="rect84" height="602.90002" width="512.29999" class="st2" y="743.89996" x="3613.8"/>
<rect id="rect85" height="629.5" width="1074.8" class="st2" y="739.89996" x="2396.8"/>
<path id="path85" d="m 2754.8,1231.8 v 137.6 h -358 v -70.7 h -0.2 v -62.8 c 2,13.3 13.4,23.4 27.2,23.4 15.2,0 27.5,-12.3 27.5,-27.5 0,-15.2 -12.3,-27.5 -27.5,-27.5 -14.9,0 -7.1,-17.4 17.4,-17.4 24.8,0 44.9,20.1 44.9,44.9 v 4.1 c 2,13.3 13.4,23.4 27.2,23.4 15.2,0 27.5,-12.3 27.5,-27.5 0,-15.2 -12.3,-27.5 -27.5,-27.5 -14.9,0 -7.1,-17.4 17.4,-17.4 24.8,0 44.9,20.1 44.9,44.9 v 4.1 c 2,13.3 13.4,23.4 27.2,23.4 15.2,0 27.5,-12.3 27.5,-27.5 0,-15.2 -12.3,-27.5 -27.5,-27.5 -14.9,0 -7.1,-17.4 17.4,-17.4 24.8,0 44.9,20.1 44.9,44.9 v 4.1 c 2,13.3 13.4,23.4 27.2,23.4 15.2,0 27.5,-12.3 27.5,-27.5 0,-15.2 -12.3,-27.5 -27.5,-27.5 -14.9,0 -7.1,-17.4 17.4,-17.4 25,0 45.1,20.1 45.1,44.9 z" class="st3"/>
<path id="path86" d="m 3343.9,1170.3 v 38.2 c 0,9.8 -7.9,17.7 -17.7,17.7 H 3312 v 26 c -6.5,0 -12.6,-2.1 -17.6,-5.7 -5,-3.6 -8.9,-8.8 -10.9,-15 l -1.7,-5.3 h -248.2 c -34.6,0 -68.9,-5.4 -101.8,-16.1 -10,-3.2 -15,-12 -15,-20.7 0,-8.7 5,-17.4 15,-20.7 16.4,-5.3 33.3,-9.3 50.3,-12 13.3,-2.1 57.8,-3.4 71.3,-3.9 v 9.4 c 0,18.9 15.4,34.2 34.2,34.2 h 14 c 18.9,0 34.2,-15.4 34.2,-34.2 v -9.6 h 100.8 v 9.6 c 0,18.9 15.4,34.2 34.2,34.2 h 14 c 18.9,0 34.2,-15.4 34.2,-34.2 v -9.6 h 7.1 c 9.9,0.1 17.8,8 17.8,17.7 z" class="st3"/>
<path id="path87" d="m 3057.5,1258.5 c 0.7,-0.2 1.4,-0.4 2.1,-0.6 -0.7,0.3 -1.4,0.5 -2.1,0.6 z"/>
<path id="path88" d="m 3078.5,1233.2 c -0.6,11.6 -8.3,21.2 -18.9,24.7 10.5,-3.5 18.2,-13.1 18.9,-24.7 z"/>
<path id="path89" d="m 3235.4,1307.7 c -0.9,-2.1 -2.2,-3.9 -3.8,-5.5 -1.6,-1.6 -3.5,-2.8 -5.7,-3.7 -2.2,-0.9 -4.5,-1.3 -7,-1.3 -2.5,0 -4.8,0.4 -6.9,1.3 -2.2,0.9 -4.1,2.1 -5.7,3.7 -1.6,1.6 -2.9,3.4 -3.8,5.5 -0.9,2.1 -1.4,4.3 -1.4,6.7 0,2.4 0.5,4.6 1.4,6.7 0.9,2.1 2.2,3.9 3.8,5.5 1.6,1.6 3.5,2.8 5.7,3.7 2.2,0.9 4.5,1.3 6.9,1.3 2.5,0 4.8,-0.5 7,-1.3 2.2,-0.9 4.1,-2.1 5.7,-3.7 1.6,-1.6 2.9,-3.4 3.8,-5.5 0.9,-2.1 1.4,-4.3 1.4,-6.7 0,-2.4 -0.5,-4.6 -1.4,-6.7 z m 0,0 c -0.9,-2.1 -2.2,-3.9 -3.8,-5.5 -1.6,-1.6 -3.5,-2.8 -5.7,-3.7 -2.2,-0.9 -4.5,-1.3 -7,-1.3 -2.5,0 -4.8,0.4 -6.9,1.3 -2.2,0.9 -4.1,2.1 -5.7,3.7 -1.6,1.6 -2.9,3.4 -3.8,5.5 -0.9,2.1 -1.4,4.3 -1.4,6.7 0,2.4 0.5,4.6 1.4,6.7 0.9,2.1 2.2,3.9 3.8,5.5 1.6,1.6 3.5,2.8 5.7,3.7 2.2,0.9 4.5,1.3 6.9,1.3 2.5,0 4.8,-0.5 7,-1.3 2.2,-0.9 4.1,-2.1 5.7,-3.7 1.6,-1.6 2.9,-3.4 3.8,-5.5 0.9,-2.1 1.4,-4.3 1.4,-6.7 0,-2.4 -0.5,-4.6 -1.4,-6.7 z m -230.5,0.8 -5.5,15.5 h 10.7 z m 230.5,-0.8 c -0.9,-2.1 -2.2,-3.9 -3.8,-5.5 -1.6,-1.6 -3.5,-2.8 -5.7,-3.7 -2.2,-0.9 -4.5,-1.3 -7,-1.3 -2.5,0 -4.8,0.4 -6.9,1.3 -2.2,0.9 -4.1,2.1 -5.7,3.7 -1.6,1.6 -2.9,3.4 -3.8,5.5 -0.9,2.1 -1.4,4.3 -1.4,6.7 0,2.4 0.5,4.6 1.4,6.7 0.9,2.1 2.2,3.9 3.8,5.5 1.6,1.6 3.5,2.8 5.7,3.7 2.2,0.9 4.5,1.3 6.9,1.3 2.5,0 4.8,-0.5 7,-1.3 2.2,-0.9 4.1,-2.1 5.7,-3.7 1.6,-1.6 2.9,-3.4 3.8,-5.5 0.9,-2.1 1.4,-4.3 1.4,-6.7 0,-2.4 -0.5,-4.6 -1.4,-6.7 z m 0,0 c -0.9,-2.1 -2.2,-3.9 -3.8,-5.5 -1.6,-1.6 -3.5,-2.8 -5.7,-3.7 -2.2,-0.9 -4.5,-1.3 -7,-1.3 -2.5,0 -4.8,0.4 -6.9,1.3 -2.2,0.9 -4.1,2.1 -5.7,3.7 -1.6,1.6 -2.9,3.4 -3.8,5.5 -0.9,2.1 -1.4,4.3 -1.4,6.7 0,2.4 0.5,4.6 1.4,6.7 0.9,2.1 2.2,3.9 3.8,5.5 1.6,1.6 3.5,2.8 5.7,3.7 2.2,0.9 4.5,1.3 6.9,1.3 2.5,0 4.8,-0.5 7,-1.3 2.2,-0.9 4.1,-2.1 5.7,-3.7 1.6,-1.6 2.9,-3.4 3.8,-5.5 0.9,-2.1 1.4,-4.3 1.4,-6.7 0,-2.4 -0.5,-4.6 -1.4,-6.7 z m -230.5,0.8 -5.5,15.5 h 10.7 z m 421.7,-121.6 c -24.5,0 -32.3,17.4 -17.4,17.4 15.2,0 27.5,12.3 27.5,27.5 0,15.2 -12.3,27.5 -27.5,27.5 -13.8,0 -25.2,-10.2 -27.2,-23.4 v -4.1 c 0,-19.8 -12.8,-36.5 -30.5,-42.5 v 19.2 c 0,5.9 -2.1,11.3 -5.5,15.5 0.8,2.5 1.1,5.1 1.1,7.8 0,15.2 -12.3,27.5 -27.5,27.5 -0.5,0 -1,0 -1.4,0 h -5.7 c -7.9,0 -15.4,-2.4 -21.8,-7.1 -6.4,-4.6 -11.1,-11 -13.5,-18.5 l -0.1,-0.5 h -19.6 c -0.7,14.5 -12.8,26.1 -27.5,26.1 -13.8,0 -25.2,-10.2 -27.2,-23.4 v -2.7 h -34.9 c -0.7,14.5 -12.8,26.1 -27.5,26.1 -13.8,0 -25.2,-10.2 -27.2,-23.4 v -2.7 h -34.9 c -0.6,11.6 -8.3,21.2 -18.9,24.7 0,0 0,0 0,0 -0.7,0.2 -1.4,0.4 -2.1,0.6 -0.4,0.1 -0.8,0.2 -1.3,0.3 -0.4,0.1 -0.8,0.2 -1.3,0.2 v 0 c -0.8,0.1 -1.7,0.2 -2.6,0.3 -0.4,0 -0.9,0 -1.3,0 h -0.1 c -13.8,0 -25.2,-10.2 -27.2,-23.4 v -2.8 c -11.7,-0.3 -23.3,-1.3 -34.9,-2.8 0,0.5 0,1 0,1.5 0,15.2 -12.3,27.5 -27.5,27.5 -13.8,0 -25.2,-10.2 -27.2,-23.4 v -4.1 c 0,-5 -0.8,-9.8 -2.3,-14.3 -0.8,-0.3 -1.5,-0.5 -2.3,-0.7 -11.3,-3.7 -18.9,-13.3 -19.8,-25 -6.1,-3.2 -13.1,-4.9 -20.5,-4.9 -24.6,0 -32.3,17.4 -17.4,17.4 15.2,0 27.5,12.3 27.5,27.5 0,15.2 -12.3,27.5 -27.5,27.5 -13.8,0 -25.2,-10.2 -27.2,-23.4 v -4.1 c 0,-24.8 -20.1,-44.9 -44.9,-44.9 -24.5,0 -32.3,17.4 -17.4,17.4 15.2,0 27.5,12.3 27.5,27.5 0,15.2 -12.3,27.5 -27.5,27.5 -13.8,0 -25.2,-10.2 -27.2,-23.4 v -4.1 c 0,-1.4 -0.1,-2.8 -0.2,-4.3 v 141.8 h 716.7 v -137.5 c 0.2,-24.8 -20,-44.9 -44.8,-44.9 z m -472.3,159.6 -1.6,-26.2 -9.2,26.2 h -15.3 l -9.8,-27.2 -1.8,27.2 h -15.3 l 4.2,-64.1 h 15.7 l 14.5,40.1 14.2,-40.1 h 15.7 l 3.9,64.1 z m 63.3,0 -2.6,-7.8 h -20.8 l -2.7,7.8 h -16.1 l 22.6,-64 h 14.4 l 21.4,64 z m 74.6,0 -1.6,-26.2 -9.2,26.2 h -15.3 l -9.8,-27.2 -1.8,27.2 h -15.3 l 4.2,-64.1 h 15.7 l 14.5,40.1 14.2,-40.1 h 15.7 l 3.9,64.1 z m 74.4,0 -1.6,-26.2 -9.2,26.2 h -15.3 l -9.7,-27.2 -1.8,27.2 h -15.3 l 4.2,-64.1 h 15.7 l 14.5,40.1 14.2,-40.1 h 15.7 l 3.9,64.1 z m 82.8,-19.6 c -1.7,3.9 -4.1,7.3 -7.1,10.2 -3,2.9 -6.5,5.2 -10.5,6.8 -4,1.7 -8.3,2.5 -12.9,2.5 -4.6,0 -8.9,-0.8 -12.9,-2.5 -4,-1.7 -7.5,-4 -10.5,-6.8 -3,-2.9 -5.3,-6.3 -7.1,-10.2 -1.8,-3.9 -2.6,-8.1 -2.6,-12.5 0,-4.4 0.9,-8.6 2.6,-12.5 1.7,-3.9 4.1,-7.3 7.1,-10.2 3,-2.9 6.5,-5.2 10.5,-6.8 4,-1.7 8.3,-2.5 12.9,-2.5 4.6,0 8.9,0.8 12.9,2.5 4,1.7 7.5,4 10.5,6.8 3,2.9 5.4,6.3 7.1,10.2 1.7,3.9 2.6,8 2.6,12.5 0,4.5 -0.8,8.6 -2.6,12.5 z m 42.4,-30 h -12.7 v 49.5 h -15.3 v -49.5 h -12.6 v -14.7 h 40.6 z m 55,49.6 h -15.3 v -24.2 h -19.1 v 24.2 h -15.3 v -64 h 15.3 v 25.1 h 19.1 v -25.1 h 15.3 z m -115.3,-44.3 c -1.6,-1.6 -3.5,-2.8 -5.7,-3.7 -2.2,-0.9 -4.5,-1.3 -7,-1.3 -2.5,0 -4.8,0.4 -6.9,1.3 -2.2,0.9 -4.1,2.1 -5.7,3.7 -1.6,1.6 -2.9,3.4 -3.8,5.5 -0.9,2.1 -1.4,4.3 -1.4,6.7 0,2.4 0.5,4.6 1.4,6.7 0.9,2.1 2.2,3.9 3.8,5.5 1.6,1.6 3.5,2.8 5.7,3.7 2.2,0.9 4.5,1.3 6.9,1.3 2.5,0 4.8,-0.5 7,-1.3 2.2,-0.9 4.1,-2.1 5.7,-3.7 1.6,-1.6 2.9,-3.4 3.8,-5.5 0.9,-2.1 1.4,-4.3 1.4,-6.7 0,-2.4 -0.5,-4.6 -1.4,-6.7 -0.9,-2.1 -2.1,-4 -3.8,-5.5 z m -232.1,21.8 h 10.7 l -5.2,-15.5 z m 236,-16.3 c -0.9,-2.1 -2.2,-3.9 -3.8,-5.5 -1.6,-1.6 -3.5,-2.8 -5.7,-3.7 -2.2,-0.9 -4.5,-1.3 -7,-1.3 -2.5,0 -4.8,0.4 -6.9,1.3 -2.2,0.9 -4.1,2.1 -5.7,3.7 -1.6,1.6 -2.9,3.4 -3.8,5.5 -0.9,2.1 -1.4,4.3 -1.4,6.7 0,2.4 0.5,4.6 1.4,6.7 0.9,2.1 2.2,3.9 3.8,5.5 1.6,1.6 3.5,2.8 5.7,3.7 2.2,0.9 4.5,1.3 6.9,1.3 2.5,0 4.8,-0.5 7,-1.3 2.2,-0.9 4.1,-2.1 5.7,-3.7 1.6,-1.6 2.9,-3.4 3.8,-5.5 0.9,-2.1 1.4,-4.3 1.4,-6.7 0,-2.4 -0.5,-4.6 -1.4,-6.7 z m 0,0 c -0.9,-2.1 -2.2,-3.9 -3.8,-5.5 -1.6,-1.6 -3.5,-2.8 -5.7,-3.7 -2.2,-0.9 -4.5,-1.3 -7,-1.3 -2.5,0 -4.8,0.4 -6.9,1.3 -2.2,0.9 -4.1,2.1 -5.7,3.7 -1.6,1.6 -2.9,3.4 -3.8,5.5 -0.9,2.1 -1.4,4.3 -1.4,6.7 0,2.4 0.5,4.6 1.4,6.7 0.9,2.1 2.2,3.9 3.8,5.5 1.6,1.6 3.5,2.8 5.7,3.7 2.2,0.9 4.5,1.3 6.9,1.3 2.5,0 4.8,-0.5 7,-1.3 2.2,-0.9 4.1,-2.1 5.7,-3.7 1.6,-1.6 2.9,-3.4 3.8,-5.5 0.9,-2.1 1.4,-4.3 1.4,-6.7 0,-2.4 -0.5,-4.6 -1.4,-6.7 z m 0,0 c -0.9,-2.1 -2.2,-3.9 -3.8,-5.5 -1.6,-1.6 -3.5,-2.8 -5.7,-3.7 -2.2,-0.9 -4.5,-1.3 -7,-1.3 -2.5,0 -4.8,0.4 -6.9,1.3 -2.2,0.9 -4.1,2.1 -5.7,3.7 -1.6,1.6 -2.9,3.4 -3.8,5.5 -0.9,2.1 -1.4,4.3 -1.4,6.7 0,2.4 0.5,4.6 1.4,6.7 0.9,2.1 2.2,3.9 3.8,5.5 1.6,1.6 3.5,2.8 5.7,3.7 2.2,0.9 4.5,1.3 6.9,1.3 2.5,0 4.8,-0.5 7,-1.3 2.2,-0.9 4.1,-2.1 5.7,-3.7 1.6,-1.6 2.9,-3.4 3.8,-5.5 0.9,-2.1 1.4,-4.3 1.4,-6.7 0,-2.4 -0.5,-4.6 -1.4,-6.7 z m 0,0 c -0.9,-2.1 -2.2,-3.9 -3.8,-5.5 -1.6,-1.6 -3.5,-2.8 -5.7,-3.7 -2.2,-0.9 -4.5,-1.3 -7,-1.3 -2.5,0 -4.8,0.4 -6.9,1.3 -2.2,0.9 -4.1,2.1 -5.7,3.7 -1.6,1.6 -2.9,3.4 -3.8,5.5 -0.9,2.1 -1.4,4.3 -1.4,6.7 0,2.4 0.5,4.6 1.4,6.7 0.9,2.1 2.2,3.9 3.8,5.5 1.6,1.6 3.5,2.8 5.7,3.7 2.2,0.9 4.5,1.3 6.9,1.3 2.5,0 4.8,-0.5 7,-1.3 2.2,-0.9 4.1,-2.1 5.7,-3.7 1.6,-1.6 2.9,-3.4 3.8,-5.5 0.9,-2.1 1.4,-4.3 1.4,-6.7 0,-2.4 -0.5,-4.6 -1.4,-6.7 z" class="st3"/>
<g transform="translate(-1059.2,178.8)" id="g90">
	<path id="path90" d="m 4287,713.8 c -11.6,-46.2 -53.1,-80.6 -102.8,-81.3 V 643 c 14.6,3.2 25.6,16.3 25.6,31.9 0,15.6 -11,28.7 -25.6,31.9 v 38.1 c 0,34.9 -28,63.4 -62.4,63.4 -1.1,0 -2.3,0 -3.4,-0.1 -13.5,-0.8 -26.3,-5.9 -36.4,-14.4 l -7.1,-5.7 V 803 c 0,36.3 17.9,68.3 45.3,87.8 v 92.7 c 0,15 12.1,27.1 27.1,27.1 h 14 c 15,0 27.1,-12.2 27.1,-27.1 V 937 h 115 v 46.5 c 0,15 12.1,27.1 27.1,27.1 h 14 c 15,0 27.1,-12.2 27.1,-34.1 v -155 c 0.1,-47 -35.6,-92.7 -84.6,-107.7 z m -54.6,199 c -0.7,0.7 -1.6,1 -2.5,1 -0.9,0 -1.8,-0.3 -2.5,-1 l -28.1,-28.1 c -1.4,-1.4 -1.4,-3.6 0,-5 1.4,-1.4 3.6,-1.4 5,0 l 28.1,28.1 c 1.3,1.4 1.3,3.6 0,5 z m 28.1,0 c -0.7,0.7 -1.6,1 -2.5,1 -0.9,0 -1.8,-0.3 -2.5,-1 l -28.1,-28.1 c -1.4,-1.4 -1.4,-3.6 0,-5 1.4,-1.4 3.6,-1.4 5,0 l 28.1,28.1 c 1.4,1.4 1.4,3.6 0,5 z m 28.1,0 c -0.7,0.7 -1.6,1 -2.5,1 -0.9,0 -1.8,-0.3 -2.5,-1 l -28.1,-28.1 c -1.4,-1.4 -1.4,-3.6 0,-5 1.4,-1.4 3.6,-1.4 5,0 l 28.1,28.1 c 1.4,1.4 1.4,3.6 0,5 z" class="st3"/>
</g>
<g transform="translate(-1059.2,178.8)" id="g91">
	<path id="path91" d="m 4055,839.2 c 3.7,3.7 5.5,8.5 5.5,13.3 0,4.8 -1.8,9.6 -5.5,13.3 -7.3,7.3 -19.2,7.3 -26.6,0 l -32,-32 c -6,-6 -10.9,-12.7 -14.6,-19.9 l 51.9,4 z" class="st3"/>
</g>
<path id="path92" d="m 3062.6,979.9 c -1.6,0 -3.2,-0.1 -4.7,-0.2 v 0 c 0.5,0 1.1,0.1 1.6,0.1 1.1,0.1 2.1,0.1 3.1,0.1 0.5,0 1.1,0 1.6,0 0.5,0 1,0 1.5,-0.1 0.3,0 0.7,0 1,-0.1 0.3,0 0.7,-0.1 1.1,-0.1 0.4,0 0.8,-0.1 1.3,-0.1 -2.2,0.3 -4.3,0.4 -6.5,0.4 z m -11.6,-1.2 v 0 c -0.3,-0.1 -0.6,-0.1 -0.8,-0.2 0.2,0.1 0.5,0.1 0.8,0.2 z m -3.1,-0.8 c 0.4,0.1 0.7,0.2 1.1,0.3 0.4,0.1 0.8,0.2 1.2,0.3 -0.9,-0.2 -1.8,-0.4 -2.7,-0.7 0.1,0 0.3,0.1 0.4,0.1 z m -3.5,-1.1 c 0.1,0 0.3,0.1 0.5,0.1 -0.4,-0.1 -0.9,-0.3 -1.3,-0.5 0.3,0.2 0.6,0.3 0.8,0.4 z m -1.4,-0.5 c 0.2,0.1 0.4,0.2 0.7,0.2 -0.4,-0.1 -0.8,-0.3 -1.2,-0.4 0.1,0.1 0.3,0.1 0.5,0.2 z m -3.4,-1.4 c 0.1,0 0.2,0.1 0.3,0.1 -0.4,-0.2 -0.8,-0.4 -1.2,-0.6 0.3,0.2 0.6,0.3 0.9,0.5 z m -1.2,-0.6 c 0.1,0 0.2,0.1 0.3,0.1 -0.2,-0.1 -0.5,-0.2 -0.7,-0.3 0.1,0.1 0.3,0.1 0.4,0.2 z" class="st0"/>
<path id="path93" d="m 3117.9,828 v -26.2 c 0,-14.8 -12,-26.8 -26.8,-26.8 h -5.4 v 41.2 c 0,2.1 -2,3.8 -4.2,3.4 -1.6,-0.3 -2.8,-1.8 -2.8,-3.5 V 775 h -23.6 v 41.3 c 0,1.9 -1.6,3.5 -3.5,3.5 -1.9,0 -3.5,-1.6 -3.5,-3.5 V 775 h -7 c -14.8,0 -26.8,12 -26.8,26.8 v 18 l -77.3,77.3 c -18.5,18.5 -26.2,43.5 -23.3,67.6 h 49.3 c 1.7,-8.5 6.7,-16.4 14.8,-21.5 l 2.8,-1.8 v 16.9 c 0,7.4 -6,13.5 -13.5,13.5 h -79.3 c -3.5,0 -6.3,2.8 -6.3,6.3 0,3.3 2.6,6.1 5.9,6.3 l 88.9,5.2 c 16.8,1.3 31.2,-12 31.2,-28.9 v -31.5 c 0,0.2 0,0.5 0.1,0.7 0,0.1 0,0.2 0,0.3 0,0.2 0,0.5 0.1,0.7 0,0.4 0.1,0.8 0.2,1.3 0,0.3 0.1,0.6 0.1,0.8 0.2,1.1 0.4,2.2 0.6,3.2 0.1,0.6 0.3,1.2 0.4,1.8 0,0 0,0 0,0.1 0.5,1.8 1,3.6 1.7,5.4 0,0 0,0 0,0.1 0.2,0.5 0.4,1.1 0.6,1.6 0,0.1 0.1,0.2 0.1,0.3 0.2,0.5 0.4,1 0.7,1.6 0.3,0.6 0.5,1 0.7,1.5 0.1,0.1 0.1,0.3 0.2,0.4 0.2,0.5 0.5,0.9 0.7,1.4 0,0 0,0.1 0.1,0.1 0.3,0.5 0.6,1.1 0.9,1.6 0.2,0.4 0.5,0.8 0.7,1.2 0.1,0.2 0.2,0.3 0.3,0.5 0.3,0.4 0.5,0.9 0.8,1.3 0.3,0.5 0.6,0.9 0.9,1.3 0.3,0.4 0.5,0.7 0.8,1.1 0.2,0.2 0.4,0.5 0.5,0.7 0.3,0.4 0.6,0.8 0.9,1.1 0.2,0.3 0.5,0.6 0.7,0.8 0.5,0.6 1.1,1.2 1.6,1.8 0.3,0.3 0.6,0.6 0.8,0.9 0.1,0.1 0.2,0.2 0.3,0.3 2.4,2.4 4.9,4.6 7.7,6.6 0.3,0.2 0.6,0.5 1,0.7 0.4,0.3 0.8,0.5 1.1,0.8 1.4,0.9 2.8,1.7 4.2,2.5 0.3,0.2 0.6,0.3 0.9,0.5 0.2,0.1 0.5,0.2 0.7,0.3 0.4,0.2 0.8,0.4 1.2,0.6 0.8,0.4 1.7,0.7 2.6,1.1 0.4,0.1 0.8,0.3 1.2,0.4 0.4,0.2 0.9,0.3 1.3,0.5 0.9,0.3 1.7,0.6 2.6,0.8 0.2,0.1 0.5,0.1 0.7,0.2 v -38.6 c 0,-1.9 1.5,-3.5 3.5,-3.5 2,0 3.5,1.6 3.5,3.5 v 40 c 0.9,0.1 1.8,0.2 2.8,0.3 1.6,0.1 3.1,0.2 4.7,0.2 2.2,0 4.3,-0.1 6.4,-0.4 0,0 0.1,0 0.1,0 0.7,-0.1 1.4,-0.2 2.1,-0.3 0.4,-0.1 0.8,-0.1 1.2,-0.2 0,0 0.1,0 0.2,0 0.1,0 0.1,0 0.2,0 2,-0.4 4,-0.9 5.9,-1.5 v -37.9 c 0,-1.7 1.1,-3.2 2.8,-3.5 2.2,-0.4 4.2,1.3 4.2,3.4 v 35.2 c 18.6,-8.6 31.7,-27.2 32.1,-48.9 0,-0.1 0,-0.1 0,-0.2 0,-0.2 0,-0.4 0,-0.6 0,-0.5 0,-1.1 0,-1.6 v -44.4 c 14.1,0 25.6,-11.5 25.6,-25.6 0,-14 -11.5,-25.5 -25.6,-25.5 z m -70,57.4 c -5.7,0 -10.5,-3.9 -11.8,-9.2 -0.2,-0.9 -0.3,-1.9 -0.3,-2.9 0,-6.7 5.4,-12.1 12.1,-12.1 5.4,0 9.9,3.5 11.5,8.3 0.4,1.2 0.6,2.5 0.6,3.8 0,6.7 -5.4,12.1 -12.1,12.1 z m 70,-19.4 v -24.8 c 6.8,0 12.4,5.5 12.4,12.4 0,6.9 -5.6,12.4 -12.4,12.4 z" class="st3"/>
<path id="path94" d="m 3008,933.1 c 0.2,1.1 0.4,2.2 0.6,3.2 -0.2,-1.1 -0.4,-2.1 -0.6,-3.2 z" class="st0"/>
<path id="path95" d="m 3009.1,938.2 c 0.5,1.8 1,3.6 1.7,5.4 -0.7,-1.8 -1.3,-3.6 -1.7,-5.4 z" class="st0"/>
<path id="path96" d="m 3017.4,956.4 c 0.4,0.6 0.9,1.2 1.3,1.8 -0.2,-0.2 -0.4,-0.5 -0.5,-0.7 -0.3,-0.4 -0.5,-0.7 -0.8,-1.1 z" class="st0"/>
<path id="path97" d="m 3022.8,962.9 c 0.1,0.1 0.2,0.2 0.3,0.3 -0.4,-0.4 -0.7,-0.8 -1.1,-1.2 0.2,0.3 0.5,0.6 0.8,0.9 z" class="st0"/>
<path id="path98" d="m 3030.7,969.8 c 0.7,0.5 1.4,1 2.1,1.4 -0.4,-0.3 -0.8,-0.5 -1.1,-0.8 -0.3,-0.2 -0.6,-0.4 -1,-0.6 z" class="st0"/>
<path id="path99" d="m 4095.4,1170.3 v 38.2 c 0,9.8 -7.9,17.7 -17.7,17.7 h -14.2 v 26 c -6.5,0 -12.6,-2.1 -17.6,-5.7 -5,-3.6 -8.9,-8.8 -10.9,-15 l -1.7,-5.3 h -248.2 c -34.6,0 -68.9,-5.4 -101.8,-16.1 -10,-3.2 -15,-12 -15,-20.7 0,-8.7 5,-17.4 15,-20.7 16.4,-5.3 33.3,-9.3 50.3,-12 13.3,-2.1 57.8,-3.4 71.3,-3.9 v 9.4 c 0,18.9 15.4,34.2 34.2,34.2 h 14 c 18.9,0 34.2,-15.4 34.2,-34.2 v -9.6 h 100.8 v 9.6 c 0,18.9 15.4,34.2 34.2,34.2 h 14 c 18.9,0 34.2,-15.4 34.2,-34.2 v -9.6 h 7.1 c 9.9,0.1 17.8,8 17.8,17.7 z" class="st3"/>
<g transform="translate(-1059.2,178.8)" id="g100">
	<path id="path100" d="m 5037.9,713.8 c -11.6,-46.2 -53.1,-80.6 -102.8,-81.3 V 643 c 14.6,3.2 25.6,16.3 25.6,31.9 0,15.6 -11,28.7 -25.6,31.9 v 38.1 c 0,34.9 -28,63.4 -62.4,63.4 -1.1,0 -2.3,0 -3.5,-0.1 -13.5,-0.8 -26.3,-5.9 -36.4,-14.4 l -7.1,-5.7 V 803 c 0,36.3 17.9,68.3 45.3,87.8 v 92.7 c 0,15 12.2,27.1 27.1,27.1 h 14 c 15,0 27.1,-12.2 27.1,-27.1 V 937 h 115 v 46.5 c 0,15 12.2,27.1 27.1,27.1 h 14 c 15,0 27.1,-12.2 27.1,-34.1 v -155 c 0.3,-47 -35.4,-92.7 -84.5,-107.7 z m -54.6,199 c -0.7,0.7 -1.6,1 -2.5,1 -0.9,0 -1.8,-0.3 -2.5,-1 l -28.1,-28.1 c -1.4,-1.4 -1.4,-3.6 0,-5 1.4,-1.4 3.6,-1.4 5,0 l 28.1,28.1 c 1.4,1.4 1.4,3.6 0,5 z m 28.1,0 c -0.7,0.7 -1.6,1 -2.5,1 -0.9,0 -1.8,-0.3 -2.5,-1 l -28.1,-28.1 c -1.4,-1.4 -1.4,-3.6 0,-5 1.4,-1.4 3.6,-1.4 5,0 l 28.1,28.1 c 1.4,1.4 1.4,3.6 0,5 z m 28.2,0 c -0.7,0.7 -1.6,1 -2.5,1 -0.9,0 -1.8,-0.3 -2.5,-1 l -28.2,-28.1 c -1.4,-1.4 -1.4,-3.6 0,-5 1.4,-1.4 3.6,-1.4 5,0 l 28.1,28.1 c 1.5,1.4 1.5,3.6 0.1,5 z" class="st3"/>
</g>
<g transform="translate(-1059.2,178.8)" id="g101">
	<path id="path101" d="m 4805.9,839.2 c 3.7,3.7 5.5,8.5 5.5,13.3 0,4.8 -1.8,9.6 -5.5,13.3 -7.3,7.3 -19.2,7.3 -26.6,0 l -32,-32 c -6,-6 -10.9,-12.7 -14.6,-19.9 l 51.9,4 z" class="st3"/>
</g>
<path id="path102" d="m 3813.6,979.9 c -1.6,0 -3.2,-0.1 -4.7,-0.2 v 0 c 0.5,0 1.1,0.1 1.6,0.1 1,0.1 2,0.1 3.1,0.1 0.5,0 1.1,0 1.6,0 0.5,0 1,0 1.5,-0.1 0.3,0 0.7,0 1,-0.1 0.4,0 0.7,-0.1 1.1,-0.1 0.4,0 0.8,-0.1 1.3,-0.1 -2.2,0.3 -4.4,0.4 -6.5,0.4 z m -11.7,-1.2 v 0 c -0.3,-0.1 -0.5,-0.1 -0.8,-0.2 0.3,0.1 0.5,0.1 0.8,0.2 z m -3,-0.8 c 0.4,0.1 0.7,0.2 1.1,0.3 0.4,0.1 0.8,0.2 1.2,0.3 -0.9,-0.2 -1.8,-0.4 -2.6,-0.7 0,0 0.1,0.1 0.3,0.1 z m -3.5,-1.1 c 0.1,0 0.3,0.1 0.5,0.1 -0.4,-0.1 -0.9,-0.3 -1.3,-0.5 0.2,0.2 0.5,0.3 0.8,0.4 z m -1.5,-0.5 c 0.2,0.1 0.4,0.2 0.7,0.2 -0.4,-0.1 -0.8,-0.3 -1.2,-0.4 0.2,0.1 0.3,0.1 0.5,0.2 z m -3.4,-1.4 c 0.1,0 0.2,0.1 0.3,0.1 -0.4,-0.2 -0.8,-0.4 -1.2,-0.6 0.3,0.2 0.6,0.3 0.9,0.5 z m -1.2,-0.6 c 0.1,0 0.2,0.1 0.3,0.1 -0.2,-0.1 -0.5,-0.2 -0.7,-0.3 0.2,0.1 0.3,0.1 0.4,0.2 z" class="st0"/>
<path id="path103" d="m 3868.8,828 v -26.2 c 0,-14.8 -12,-26.8 -26.8,-26.8 h -5.4 v 41.2 c 0,2.1 -2,3.8 -4.2,3.4 -1.6,-0.3 -2.8,-1.8 -2.8,-3.5 V 775 H 3806 v 41.3 c 0,1.9 -1.5,3.5 -3.5,3.5 -1.9,0 -3.5,-1.6 -3.5,-3.5 V 775 h -7 c -14.8,0 -26.8,12 -26.8,26.8 v 18 l -77.3,77.3 c -18.5,18.5 -26.2,43.5 -23.3,67.6 h 49.3 c 1.7,-8.5 6.7,-16.4 14.8,-21.5 l 2.8,-1.8 v 16.9 c 0,7.4 -6,13.5 -13.5,13.5 h -79.3 c -3.5,0 -6.3,2.8 -6.3,6.3 0,3.3 2.6,6.1 5.9,6.3 l 88.9,5.2 c 16.8,1.3 31.2,-12 31.2,-28.9 v -31.5 c 0,0.2 0,0.5 0.1,0.7 0,0.1 0,0.2 0,0.3 0,0.2 0,0.5 0.1,0.7 0.1,0.4 0.1,0.8 0.2,1.3 0,0.3 0.1,0.6 0.1,0.8 0.2,1.1 0.4,2.2 0.6,3.2 0.1,0.6 0.3,1.2 0.4,1.8 0,0 0,0 0,0.1 0.5,1.8 1,3.6 1.7,5.4 0,0 0,0 0,0.1 0.2,0.5 0.4,1.1 0.6,1.6 0,0.1 0.1,0.2 0.1,0.3 0.2,0.5 0.4,1 0.7,1.6 0.3,0.6 0.5,1 0.7,1.5 0.1,0.1 0.1,0.3 0.2,0.4 0.2,0.5 0.5,0.9 0.7,1.4 0,0 0,0.1 0,0.1 0.3,0.5 0.6,1.1 0.9,1.6 0.2,0.4 0.5,0.8 0.7,1.2 0.1,0.2 0.2,0.3 0.3,0.5 0.3,0.4 0.5,0.9 0.8,1.3 0.3,0.5 0.6,0.9 0.9,1.3 0.3,0.4 0.5,0.7 0.8,1.1 0.2,0.2 0.3,0.5 0.5,0.7 0.3,0.4 0.6,0.8 0.9,1.1 0.2,0.3 0.5,0.6 0.7,0.8 0.5,0.6 1.1,1.2 1.6,1.8 0.3,0.3 0.5,0.6 0.8,0.9 0.1,0.1 0.2,0.2 0.3,0.3 2.4,2.4 4.9,4.6 7.7,6.6 0.3,0.2 0.6,0.5 1,0.7 0.4,0.3 0.8,0.5 1.1,0.8 1.4,0.9 2.8,1.7 4.2,2.5 0.3,0.2 0.6,0.3 0.9,0.5 0.2,0.1 0.5,0.2 0.7,0.3 0.4,0.2 0.8,0.4 1.2,0.6 0.8,0.4 1.7,0.7 2.5,1.1 0.4,0.1 0.8,0.3 1.2,0.4 0.4,0.2 0.9,0.3 1.3,0.5 0.9,0.3 1.7,0.6 2.6,0.8 0.2,0.1 0.5,0.1 0.7,0.2 v -38.6 c 0,-1.9 1.5,-3.5 3.5,-3.5 1.9,0 3.5,1.6 3.5,3.5 v 40 c 0.9,0.1 1.8,0.2 2.8,0.3 1.6,0.1 3.1,0.2 4.7,0.2 2.2,0 4.3,-0.1 6.4,-0.4 0,0 0.1,0 0.1,0 0.7,-0.1 1.4,-0.2 2.1,-0.3 0.4,-0.1 0.8,-0.1 1.2,-0.2 0,0 0.1,0 0.2,0 0.1,0 0.1,0 0.2,0 2,-0.4 4,-0.9 5.9,-1.5 v -37.9 c 0,-1.7 1.1,-3.2 2.8,-3.5 2.2,-0.4 4.2,1.3 4.2,3.4 v 35.2 c 18.6,-8.6 31.7,-27.2 32.1,-48.9 0,-0.1 0,-0.1 0,-0.2 0,-0.2 0,-0.4 0,-0.6 0,-0.5 0,-1.1 0,-1.6 v -44.4 c 14.1,0 25.6,-11.5 25.6,-25.6 0.2,-14 -11.2,-25.5 -25.4,-25.5 z m -69.9,57.4 c -5.7,0 -10.5,-3.9 -11.8,-9.2 -0.2,-0.9 -0.4,-1.9 -0.4,-2.9 0,-6.7 5.4,-12.1 12.1,-12.1 5.4,0 9.9,3.5 11.5,8.3 0.4,1.2 0.6,2.5 0.6,3.8 0.1,6.7 -5.3,12.1 -12,12.1 z m 69.9,-19.4 v -24.8 c 6.8,0 12.4,5.5 12.4,12.4 0,6.9 -5.5,12.4 -12.4,12.4 z" class="st3"/>
<path id="path104" d="m 3759,933.1 c 0.2,1.1 0.4,2.2 0.6,3.2 -0.3,-1.1 -0.5,-2.1 -0.6,-3.2 z" class="st0"/>
<path id="path105" d="m 3760,938.2 c 0.5,1.8 1,3.6 1.7,5.4 -0.7,-1.8 -1.2,-3.6 -1.7,-5.4 z" class="st0"/>
<path id="path106" d="m 3768.4,956.4 c 0.4,0.6 0.9,1.2 1.3,1.8 -0.2,-0.2 -0.4,-0.5 -0.5,-0.7 -0.3,-0.4 -0.6,-0.7 -0.8,-1.1 z" class="st0"/>
<path id="path107" d="m 3773.7,962.9 c 0.1,0.1 0.2,0.2 0.3,0.3 -0.4,-0.4 -0.7,-0.8 -1.1,-1.2 0.3,0.3 0.5,0.6 0.8,0.9 z" class="st0"/>
<path id="path108" d="m 3781.7,969.8 c 0.7,0.5 1.4,1 2.1,1.4 -0.4,-0.3 -0.8,-0.5 -1.1,-0.8 -0.4,-0.2 -0.7,-0.4 -1,-0.6 z" class="st0"/>
<g transform="translate(-1059.2,178.8)" id="g115">
	<path id="path109" d="m 4757.7,1084.2 h 15.7 l 3.9,64.1 H 4762 l -1.6,-26.2 -9.2,26.2 H 4736 l -9.7,-27.2 -1.8,27.2 h -15.3 l 4.2,-64.1 h 15.7 l 14.5,40.1 z" class="st3"/>
	<path id="path110" d="m 4825.3,1148.3 -2.6,-7.8 h -20.8 l -2.7,7.8 H 4783 l 22.6,-64 h 14.4 l 21.4,64 z m -18.2,-22.5 h 10.7 l -5.2,-15.5 z" class="st3"/>
	<path id="path111" d="m 4895.6,1084.2 h 15.7 l 3.9,64.1 H 4900 l -1.6,-26.2 -9.2,26.2 h -15.3 l -9.7,-27.2 -1.8,27.2 H 4847 l 4.2,-64.1 h 15.7 l 14.5,40.1 z" class="st3"/>
	<path id="path112" d="m 4970,1084.2 h 15.7 l 3.9,64.1 h -15.3 l -1.6,-26.2 -9.2,26.2 h -15.3 l -9.7,-27.2 -1.8,27.2 h -15.3 l 4.2,-64.1 h 15.7 l 14.5,40.1 z" class="st3"/>
	<path id="path113" d="m 5026.6,1084.2 c 4.6,0 8.9,0.8 12.9,2.5 4,1.7 7.5,4 10.5,6.8 3,2.9 5.4,6.3 7.1,10.2 1.7,3.9 2.6,8.1 2.6,12.5 0,4.4 -0.9,8.6 -2.6,12.5 -1.7,3.9 -4.1,7.3 -7.1,10.2 -3,2.9 -6.5,5.2 -10.5,6.8 -4,1.7 -8.3,2.5 -12.9,2.5 -4.6,0 -8.9,-0.8 -12.9,-2.5 -4,-1.7 -7.5,-4 -10.5,-6.8 -3,-2.8 -5.3,-6.3 -7.1,-10.2 -1.7,-3.9 -2.6,-8.1 -2.6,-12.5 0,-4.4 0.9,-8.6 2.6,-12.5 1.7,-3.9 4.1,-7.3 7.1,-10.2 3,-2.9 6.5,-5.2 10.5,-6.8 4,-1.7 8.3,-2.5 12.9,-2.5 z m 0,49.3 c 2.5,0 4.8,-0.4 6.9,-1.4 2.2,-0.9 4.1,-2.1 5.7,-3.7 1.6,-1.6 2.9,-3.4 3.8,-5.5 0.9,-2.1 1.4,-4.3 1.4,-6.7 0,-2.4 -0.5,-4.6 -1.4,-6.7 -0.9,-2.1 -2.2,-3.9 -3.8,-5.5 -1.6,-1.6 -3.5,-2.8 -5.7,-3.7 -2.2,-0.9 -4.5,-1.4 -6.9,-1.4 -2.5,0 -4.8,0.5 -6.9,1.4 -2.2,0.9 -4.1,2.1 -5.7,3.7 -1.6,1.6 -2.9,3.4 -3.8,5.5 -0.9,2.1 -1.4,4.3 -1.4,6.7 0,2.4 0.5,4.6 1.4,6.7 0.9,2.1 2.2,3.9 3.8,5.5 1.6,1.6 3.5,2.8 5.7,3.7 2.2,0.9 4.5,1.4 6.9,1.4 z" class="st3"/>
	<path id="path114" d="m 5099.5,1084 v 14.7 h -12.7 v 49.6 h -15.3 v -49.6 h -12.6 V 1084 Z" class="st3"/>
	<path id="path115" d="m 5139.3,1084.3 h 15.3 v 64 h -15.3 v -24.2 h -19.1 v 24.2 h -15.3 v -64 h 15.3 v 25.1 h 19.1 z" class="st3"/>
</g>
<g transform="translate(-1059.2,178.8)" id="g116">
	<path id="path116" d="m 4350,1073.4 c -6.4,-4.6 -11,-11 -13.5,-18.5 l -0.1,-0.5 h -0.6 l 0.1,0.5 c 2.4,7.5 7.1,13.9 13.5,18.5 6.4,4.6 13.9,7.1 21.8,7.1 h 0.5 c -7.8,0 -15.4,-2.5 -21.7,-7.1 z" class="st1"/>
</g>
<rect id="rect116" height="602.90002" width="512.29999" class="st2" y="4" x="3613.8"/>
<rect id="rect117" height="629.5" width="1074.8" class="st2" y="0" x="2396.8"/>
<path id="path117" d="m 2754.8,491.9 v 137.6 h -358 v -70.7 h -0.2 V 496 c 2,13.3 13.4,23.4 27.2,23.4 15.2,0 27.5,-12.3 27.5,-27.5 0,-15.2 -12.3,-27.5 -27.5,-27.5 -14.9,0 -7.1,-17.4 17.4,-17.4 24.8,0 44.9,20.1 44.9,44.9 v 4.1 c 2,13.3 13.4,23.4 27.2,23.4 15.2,0 27.5,-12.3 27.5,-27.5 0,-15.2 -12.3,-27.5 -27.5,-27.5 -14.9,0 -7.1,-17.4 17.4,-17.4 24.8,0 44.9,20.1 44.9,44.9 v 4.1 c 2,13.3 13.4,23.4 27.2,23.4 15.2,0 27.5,-12.3 27.5,-27.5 0,-15.2 -12.3,-27.5 -27.5,-27.5 -14.9,0 -7.1,-17.4 17.4,-17.4 24.8,0 44.9,20.1 44.9,44.9 v 4.1 c 2,13.3 13.4,23.4 27.2,23.4 15.2,0 27.5,-12.3 27.5,-27.5 0,-15.2 -12.3,-27.5 -27.5,-27.5 -14.9,0 -7.1,-17.4 17.4,-17.4 25,-0.1 45.1,20.1 45.1,44.9 z" class="st0"/>
<path id="path118" d="m 3343.9,430.4 v 38.2 c 0,9.8 -7.9,17.7 -17.7,17.7 H 3312 v 26 c -6.5,0 -12.6,-2.1 -17.6,-5.7 -5,-3.6 -8.9,-8.8 -10.9,-15 l -1.7,-5.3 h -248.2 c -34.6,0 -68.9,-5.4 -101.8,-16.1 -10,-3.2 -15,-12 -15,-20.7 0,-8.7 5,-17.4 15,-20.7 16.4,-5.3 33.3,-9.3 50.3,-12 13.3,-2.1 57.8,-3.4 71.3,-3.9 v 9.4 c 0,18.9 15.4,34.2 34.2,34.2 h 14 c 18.9,0 34.2,-15.4 34.2,-34.2 v -9.6 h 100.8 v 9.6 c 0,18.9 15.4,34.2 34.2,34.2 h 14 c 18.9,0 34.2,-15.4 34.2,-34.2 v -9.6 h 7.1 c 9.9,0 17.8,7.9 17.8,17.7 z" class="st0"/>
<path id="path119" d="m 3057.5,518.6 c 0.7,-0.2 1.4,-0.4 2.1,-0.6 -0.7,0.2 -1.4,0.4 -2.1,0.6 z"/>
<path id="path120" d="m 3078.5,493.3 c -0.6,11.6 -8.3,21.2 -18.9,24.7 10.5,-3.5 18.2,-13.2 18.9,-24.7 z"/>
<path id="path121" d="m 3235.4,567.7 c -0.9,-2.1 -2.2,-3.9 -3.8,-5.5 -1.6,-1.6 -3.5,-2.8 -5.7,-3.7 -2.2,-0.9 -4.5,-1.3 -7,-1.3 -2.5,0 -4.8,0.4 -6.9,1.3 -2.2,0.9 -4.1,2.1 -5.7,3.7 -1.6,1.6 -2.9,3.4 -3.8,5.5 -0.9,2.1 -1.4,4.3 -1.4,6.7 0,2.4 0.5,4.6 1.4,6.7 0.9,2.1 2.2,3.9 3.8,5.5 1.6,1.6 3.5,2.8 5.7,3.7 2.2,0.9 4.5,1.3 6.9,1.3 2.5,0 4.8,-0.5 7,-1.3 2.2,-0.9 4.1,-2.1 5.7,-3.7 1.6,-1.6 2.9,-3.4 3.8,-5.5 0.9,-2.1 1.4,-4.3 1.4,-6.7 0,-2.3 -0.5,-4.6 -1.4,-6.7 z m 0,0 c -0.9,-2.1 -2.2,-3.9 -3.8,-5.5 -1.6,-1.6 -3.5,-2.8 -5.7,-3.7 -2.2,-0.9 -4.5,-1.3 -7,-1.3 -2.5,0 -4.8,0.4 -6.9,1.3 -2.2,0.9 -4.1,2.1 -5.7,3.7 -1.6,1.6 -2.9,3.4 -3.8,5.5 -0.9,2.1 -1.4,4.3 -1.4,6.7 0,2.4 0.5,4.6 1.4,6.7 0.9,2.1 2.2,3.9 3.8,5.5 1.6,1.6 3.5,2.8 5.7,3.7 2.2,0.9 4.5,1.3 6.9,1.3 2.5,0 4.8,-0.5 7,-1.3 2.2,-0.9 4.1,-2.1 5.7,-3.7 1.6,-1.6 2.9,-3.4 3.8,-5.5 0.9,-2.1 1.4,-4.3 1.4,-6.7 0,-2.3 -0.5,-4.6 -1.4,-6.7 z m -230.5,0.8 -5.5,15.5 h 10.7 z m 230.5,-0.8 c -0.9,-2.1 -2.2,-3.9 -3.8,-5.5 -1.6,-1.6 -3.5,-2.8 -5.7,-3.7 -2.2,-0.9 -4.5,-1.3 -7,-1.3 -2.5,0 -4.8,0.4 -6.9,1.3 -2.2,0.9 -4.1,2.1 -5.7,3.7 -1.6,1.6 -2.9,3.4 -3.8,5.5 -0.9,2.1 -1.4,4.3 -1.4,6.7 0,2.4 0.5,4.6 1.4,6.7 0.9,2.1 2.2,3.9 3.8,5.5 1.6,1.6 3.5,2.8 5.7,3.7 2.2,0.9 4.5,1.3 6.9,1.3 2.5,0 4.8,-0.5 7,-1.3 2.2,-0.9 4.1,-2.1 5.7,-3.7 1.6,-1.6 2.9,-3.4 3.8,-5.5 0.9,-2.1 1.4,-4.3 1.4,-6.7 0,-2.3 -0.5,-4.6 -1.4,-6.7 z m 0,0 c -0.9,-2.1 -2.2,-3.9 -3.8,-5.5 -1.6,-1.6 -3.5,-2.8 -5.7,-3.7 -2.2,-0.9 -4.5,-1.3 -7,-1.3 -2.5,0 -4.8,0.4 -6.9,1.3 -2.2,0.9 -4.1,2.1 -5.7,3.7 -1.6,1.6 -2.9,3.4 -3.8,5.5 -0.9,2.1 -1.4,4.3 -1.4,6.7 0,2.4 0.5,4.6 1.4,6.7 0.9,2.1 2.2,3.9 3.8,5.5 1.6,1.6 3.5,2.8 5.7,3.7 2.2,0.9 4.5,1.3 6.9,1.3 2.5,0 4.8,-0.5 7,-1.3 2.2,-0.9 4.1,-2.1 5.7,-3.7 1.6,-1.6 2.9,-3.4 3.8,-5.5 0.9,-2.1 1.4,-4.3 1.4,-6.7 0,-2.3 -0.5,-4.6 -1.4,-6.7 z m -230.5,0.8 -5.5,15.5 h 10.7 z m 421.7,-121.6 c -24.5,0 -32.3,17.4 -17.4,17.4 15.2,0 27.5,12.3 27.5,27.5 0,15.2 -12.3,27.5 -27.5,27.5 -13.8,0 -25.2,-10.2 -27.2,-23.4 v -4.1 c 0,-19.8 -12.8,-36.5 -30.5,-42.5 v 19.2 c 0,5.9 -2.1,11.3 -5.5,15.5 0.8,2.5 1.1,5.1 1.1,7.8 0,15.2 -12.3,27.5 -27.5,27.5 -0.5,0 -1,0 -1.4,0 h -5.7 c -7.9,0 -15.4,-2.4 -21.8,-7.1 -6.4,-4.6 -11.1,-11 -13.5,-18.5 l -0.1,-0.5 h -19.6 c -0.7,14.5 -12.8,26.1 -27.5,26.1 -13.8,0 -25.2,-10.2 -27.2,-23.4 v -2.7 h -34.9 c -0.7,14.5 -12.8,26.1 -27.5,26.1 -13.8,0 -25.2,-10.2 -27.2,-23.4 v -2.7 h -34.9 c -0.6,11.6 -8.3,21.2 -18.9,24.7 0,0 0,0 0,0 -0.7,0.2 -1.4,0.4 -2.1,0.6 -0.4,0.1 -0.8,0.2 -1.3,0.3 -0.4,0.1 -0.8,0.2 -1.3,0.2 v 0 c -0.8,0.1 -1.7,0.2 -2.6,0.3 -0.4,0 -0.9,0 -1.3,0 h -0.1 c -13.8,0 -25.2,-10.2 -27.2,-23.4 v -2.8 c -11.7,-0.3 -23.3,-1.3 -34.9,-2.8 0,0.5 0,1 0,1.5 0,15.2 -12.3,27.5 -27.5,27.5 -13.8,0 -25.2,-10.2 -27.2,-23.4 v -4.1 c 0,-5 -0.8,-9.8 -2.3,-14.3 -0.8,-0.3 -1.5,-0.5 -2.3,-0.7 -11.3,-3.7 -18.9,-13.3 -19.8,-25 -6.1,-3.2 -13.1,-4.9 -20.5,-4.9 -24.6,0 -32.3,17.4 -17.4,17.4 15.2,0 27.5,12.3 27.5,27.5 0,15.2 -12.3,27.5 -27.5,27.5 -13.8,0 -25.2,-10.2 -27.2,-23.4 v -4.1 c 0,-24.8 -20.1,-44.9 -44.9,-44.9 -24.5,0 -32.3,17.4 -17.4,17.4 15.2,0 27.5,12.3 27.5,27.5 0,15.2 -12.3,27.5 -27.5,27.5 -13.8,0 -25.2,-10.2 -27.2,-23.4 v -4.1 c 0,-1.4 -0.1,-2.8 -0.2,-4.3 v 141.8 h 716.7 V 491.9 c 0.2,-24.8 -20,-45 -44.8,-45 z m -472.3,159.7 -1.6,-26.2 -9.2,26.2 h -15.3 l -9.8,-27.2 -1.8,27.2 h -15.3 l 4.2,-64.1 h 15.7 l 14.5,40.1 14.2,-40.1 h 15.7 l 3.9,64.1 z m 63.3,0 -2.6,-7.8 h -20.8 l -2.7,7.8 h -16.1 l 22.6,-64 h 14.4 l 21.4,64 z m 74.6,0 -1.6,-26.2 -9.2,26.2 h -15.3 l -9.8,-27.2 -1.8,27.2 h -15.3 l 4.2,-64.1 h 15.7 l 14.5,40.1 14.2,-40.1 h 15.7 l 3.9,64.1 z m 74.4,0 -1.6,-26.2 -9.2,26.2 h -15.3 l -9.7,-27.2 -1.8,27.2 h -15.3 l 4.2,-64.1 h 15.7 l 14.5,40.1 14.2,-40.1 h 15.7 l 3.9,64.1 z m 82.8,-19.7 c -1.7,3.9 -4.1,7.3 -7.1,10.2 -3,2.9 -6.5,5.2 -10.5,6.8 -4,1.7 -8.3,2.5 -12.9,2.5 -4.6,0 -8.9,-0.8 -12.9,-2.5 -4,-1.7 -7.5,-4 -10.5,-6.8 -3,-2.9 -5.3,-6.3 -7.1,-10.2 -1.8,-3.9 -2.6,-8.1 -2.6,-12.5 0,-4.4 0.9,-8.6 2.6,-12.5 1.7,-3.9 4.1,-7.3 7.1,-10.2 3,-2.9 6.5,-5.2 10.5,-6.8 4,-1.7 8.3,-2.5 12.9,-2.5 4.6,0 8.9,0.8 12.9,2.5 4,1.7 7.5,4 10.5,6.8 3,2.9 5.4,6.3 7.1,10.2 1.7,3.9 2.6,8 2.6,12.5 0,4.5 -0.8,8.6 -2.6,12.5 z m 42.4,-29.9 h -12.7 v 49.5 h -15.3 V 557 h -12.6 v -14.7 h 40.6 z m 55,49.6 h -15.3 v -24.2 h -19.1 v 24.2 h -15.3 v -64 h 15.3 v 25.1 h 19.1 v -25.1 h 15.3 z m -115.3,-44.3 c -1.6,-1.6 -3.5,-2.8 -5.7,-3.7 -2.2,-0.9 -4.5,-1.3 -7,-1.3 -2.5,0 -4.8,0.4 -6.9,1.3 -2.2,0.9 -4.1,2.1 -5.7,3.7 -1.6,1.6 -2.9,3.4 -3.8,5.5 -0.9,2.1 -1.4,4.3 -1.4,6.7 0,2.4 0.5,4.6 1.4,6.7 0.9,2.1 2.2,3.9 3.8,5.5 1.6,1.6 3.5,2.8 5.7,3.7 2.2,0.9 4.5,1.3 6.9,1.3 2.5,0 4.8,-0.5 7,-1.3 2.2,-0.9 4.1,-2.1 5.7,-3.7 1.6,-1.6 2.9,-3.4 3.8,-5.5 0.9,-2.1 1.4,-4.3 1.4,-6.7 0,-2.4 -0.5,-4.6 -1.4,-6.7 -0.9,-2.1 -2.1,-4 -3.8,-5.5 z m -232.1,21.8 h 10.7 l -5.2,-15.5 z m 236,-16.4 c -0.9,-2.1 -2.2,-3.9 -3.8,-5.5 -1.6,-1.6 -3.5,-2.8 -5.7,-3.7 -2.2,-0.9 -4.5,-1.3 -7,-1.3 -2.5,0 -4.8,0.4 -6.9,1.3 -2.2,0.9 -4.1,2.1 -5.7,3.7 -1.6,1.6 -2.9,3.4 -3.8,5.5 -0.9,2.1 -1.4,4.3 -1.4,6.7 0,2.4 0.5,4.6 1.4,6.7 0.9,2.1 2.2,3.9 3.8,5.5 1.6,1.6 3.5,2.8 5.7,3.7 2.2,0.9 4.5,1.3 6.9,1.3 2.5,0 4.8,-0.5 7,-1.3 2.2,-0.9 4.1,-2.1 5.7,-3.7 1.6,-1.6 2.9,-3.4 3.8,-5.5 0.9,-2.1 1.4,-4.3 1.4,-6.7 0,-2.3 -0.5,-4.6 -1.4,-6.7 z m 0,0 c -0.9,-2.1 -2.2,-3.9 -3.8,-5.5 -1.6,-1.6 -3.5,-2.8 -5.7,-3.7 -2.2,-0.9 -4.5,-1.3 -7,-1.3 -2.5,0 -4.8,0.4 -6.9,1.3 -2.2,0.9 -4.1,2.1 -5.7,3.7 -1.6,1.6 -2.9,3.4 -3.8,5.5 -0.9,2.1 -1.4,4.3 -1.4,6.7 0,2.4 0.5,4.6 1.4,6.7 0.9,2.1 2.2,3.9 3.8,5.5 1.6,1.6 3.5,2.8 5.7,3.7 2.2,0.9 4.5,1.3 6.9,1.3 2.5,0 4.8,-0.5 7,-1.3 2.2,-0.9 4.1,-2.1 5.7,-3.7 1.6,-1.6 2.9,-3.4 3.8,-5.5 0.9,-2.1 1.4,-4.3 1.4,-6.7 0,-2.3 -0.5,-4.6 -1.4,-6.7 z m 0,0 c -0.9,-2.1 -2.2,-3.9 -3.8,-5.5 -1.6,-1.6 -3.5,-2.8 -5.7,-3.7 -2.2,-0.9 -4.5,-1.3 -7,-1.3 -2.5,0 -4.8,0.4 -6.9,1.3 -2.2,0.9 -4.1,2.1 -5.7,3.7 -1.6,1.6 -2.9,3.4 -3.8,5.5 -0.9,2.1 -1.4,4.3 -1.4,6.7 0,2.4 0.5,4.6 1.4,6.7 0.9,2.1 2.2,3.9 3.8,5.5 1.6,1.6 3.5,2.8 5.7,3.7 2.2,0.9 4.5,1.3 6.9,1.3 2.5,0 4.8,-0.5 7,-1.3 2.2,-0.9 4.1,-2.1 5.7,-3.7 1.6,-1.6 2.9,-3.4 3.8,-5.5 0.9,-2.1 1.4,-4.3 1.4,-6.7 0,-2.3 -0.5,-4.6 -1.4,-6.7 z m 0,0 c -0.9,-2.1 -2.2,-3.9 -3.8,-5.5 -1.6,-1.6 -3.5,-2.8 -5.7,-3.7 -2.2,-0.9 -4.5,-1.3 -7,-1.3 -2.5,0 -4.8,0.4 -6.9,1.3 -2.2,0.9 -4.1,2.1 -5.7,3.7 -1.6,1.6 -2.9,3.4 -3.8,5.5 -0.9,2.1 -1.4,4.3 -1.4,6.7 0,2.4 0.5,4.6 1.4,6.7 0.9,2.1 2.2,3.9 3.8,5.5 1.6,1.6 3.5,2.8 5.7,3.7 2.2,0.9 4.5,1.3 6.9,1.3 2.5,0 4.8,-0.5 7,-1.3 2.2,-0.9 4.1,-2.1 5.7,-3.7 1.6,-1.6 2.9,-3.4 3.8,-5.5 0.9,-2.1 1.4,-4.3 1.4,-6.7 0,-2.3 -0.5,-4.6 -1.4,-6.7 z" class="st0"/>
<g transform="translate(-1059.2,178.8)" id="g122">
	<path id="path122" d="m 4287,-26.1 c -11.6,-46.2 -53.1,-80.6 -102.8,-81.3 V -97 c 14.6,3.2 25.6,16.3 25.6,31.9 0,15.6 -11,28.7 -25.6,31.9 V 4.9 c 0,34.9 -28,63.4 -62.4,63.4 -1.1,0 -2.3,0 -3.4,-0.1 -13.5,-0.8 -26.3,-5.9 -36.4,-14.4 l -7.1,-5.7 V 63 c 0,36.3 17.9,68.3 45.3,87.8 v 92.7 c 0,15 12.1,27.1 27.1,27.1 h 14 c 15,0 27.1,-12.2 27.1,-27.1 V 197 h 115 v 46.5 c 0,15 12.1,27.1 27.1,27.1 h 14 c 15,0 27.1,-12.2 27.1,-34.1 v -155 c 0.1,-47 -35.6,-92.6 -84.6,-107.6 z m -54.6,199 c -0.7,0.7 -1.6,1 -2.5,1 -0.9,0 -1.8,-0.3 -2.5,-1 l -28.1,-28.1 c -1.4,-1.4 -1.4,-3.6 0,-5 1.4,-1.4 3.6,-1.4 5,0 l 28.1,28.1 c 1.3,1.3 1.3,3.6 0,5 z m 28.1,0 c -0.7,0.7 -1.6,1 -2.5,1 -0.9,0 -1.8,-0.3 -2.5,-1 l -28.1,-28.1 c -1.4,-1.4 -1.4,-3.6 0,-5 1.4,-1.4 3.6,-1.4 5,0 l 28.1,28.1 c 1.4,1.3 1.4,3.6 0,5 z m 28.1,0 c -0.7,0.7 -1.6,1 -2.5,1 -0.9,0 -1.8,-0.3 -2.5,-1 l -28.1,-28.1 c -1.4,-1.4 -1.4,-3.6 0,-5 1.4,-1.4 3.6,-1.4 5,0 l 28.1,28.1 c 1.4,1.3 1.4,3.6 0,5 z" class="st0"/>
</g>
<g transform="translate(-1059.2,178.8)" id="g123">
	<path id="path123" d="m 4055,99.3 c 3.7,3.7 5.5,8.5 5.5,13.3 0,4.8 -1.8,9.6 -5.5,13.3 -7.3,7.3 -19.2,7.3 -26.6,0 l -32,-32 c -6,-6 -10.9,-12.7 -14.6,-19.9 l 51.9,4 z" class="st0"/>
</g>
<path id="path124" d="m 3062.6,240 c -1.6,0 -3.2,-0.1 -4.7,-0.2 v 0 c 0.5,0 1.1,0.1 1.6,0.1 1.1,0.1 2.1,0.1 3.1,0.1 0.5,0 1.1,0 1.6,0 0.5,0 1,0 1.5,-0.1 0.3,0 0.7,0 1,-0.1 0.3,0 0.7,-0.1 1.1,-0.1 0.4,0 0.8,-0.1 1.3,-0.1 -2.2,0.2 -4.3,0.4 -6.5,0.4 z m -11.6,-1.2 v 0 c -0.3,-0.1 -0.6,-0.1 -0.8,-0.2 0.2,0 0.5,0.1 0.8,0.2 z m -3.1,-0.8 c 0.4,0.1 0.7,0.2 1.1,0.3 0.4,0.1 0.8,0.2 1.2,0.3 -0.9,-0.2 -1.8,-0.4 -2.7,-0.7 0.1,0 0.3,0.1 0.4,0.1 z m -3.5,-1.1 c 0.1,0 0.3,0.1 0.5,0.1 -0.4,-0.1 -0.9,-0.3 -1.3,-0.5 0.3,0.2 0.6,0.3 0.8,0.4 z m -1.4,-0.5 c 0.2,0.1 0.4,0.2 0.7,0.2 -0.4,-0.1 -0.8,-0.3 -1.2,-0.4 0.1,0.1 0.3,0.1 0.5,0.2 z m -3.4,-1.4 c 0.1,0 0.2,0.1 0.3,0.1 -0.4,-0.2 -0.8,-0.4 -1.2,-0.6 0.3,0.2 0.6,0.3 0.9,0.5 z m -1.2,-0.6 c 0.1,0 0.2,0.1 0.3,0.1 -0.2,-0.1 -0.5,-0.2 -0.7,-0.3 0.1,0.1 0.3,0.1 0.4,0.2 z" class="st0"/>
<path id="path125" d="m 3117.9,88.100003 v -26.2 c 0,-14.8 -12,-26.8 -26.8,-26.8 h -5.4 v 41.2 c 0,2.1 -2,3.8 -4.2,3.4 -1.6,-0.3 -2.8,-1.8 -2.8,-3.5 v -41.1 h -23.6 v 41.3 c 0,1.9 -1.6,3.5 -3.5,3.5 -1.9,0 -3.5,-1.6 -3.5,-3.5 v -41.3 h -7 c -14.8,0 -26.8,12 -26.8,26.8 v 18 L 2937,157.2 c -18.5,18.5 -26.2,43.5 -23.3,67.6 h 49.3 c 1.7,-8.5 6.7,-16.4 14.8,-21.5 l 2.8,-1.8 v 16.9 c 0,7.4 -6,13.5 -13.5,13.5 h -79.3 c -3.5,0 -6.3,2.8 -6.3,6.3 0,3.3 2.6,6.1 5.9,6.3 l 88.9,5.2 c 16.8,1.3 31.2,-12 31.2,-28.9 v -31.5 c 0,0.2 0,0.5 0.1,0.7 0,0.1 0,0.2 0,0.3 0,0.2 0,0.5 0.1,0.7 0,0.4 0.1,0.8 0.2,1.3 0,0.3 0.1,0.6 0.1,0.8 0.2,1.1 0.4,2.2 0.6,3.2 0.1,0.6 0.3,1.2 0.4,1.8 0,0 0,0 0,0.1 0.5,1.8 1,3.6 1.7,5.4 0,0 0,0 0,0.1 0.2,0.5 0.4,1.1 0.6,1.6 0,0.1 0.1,0.2 0.1,0.3 0.2,0.5 0.4,1 0.7,1.6 0.3,0.6 0.5,1 0.7,1.5 0.1,0.1 0.1,0.3 0.2,0.4 0.2,0.5 0.5,0.9 0.7,1.4 0,0 0,0.1 0.1,0.1 0.3,0.5 0.6,1.1 0.9,1.6 0.2,0.4 0.5,0.8 0.7,1.2 0.1,0.2 0.2,0.3 0.3,0.5 0.3,0.4 0.5,0.9 0.8,1.3 0.3,0.5 0.6,0.9 0.9,1.3 0.3,0.4 0.5,0.7 0.8,1.1 0.2,0.2 0.4,0.5 0.5,0.7 0.3,0.4 0.6,0.8 0.9,1.1 0.2,0.3 0.5,0.6 0.7,0.8 0.5,0.6 1.1,1.2 1.6,1.8 0.3,0.3 0.6,0.6 0.8,0.9 0.1,0.1 0.2,0.2 0.3,0.3 2.4,2.4 4.9,4.6 7.7,6.6 0.3,0.2 0.6,0.5 1,0.7 0.4,0.3 0.8,0.5 1.1,0.8 1.4,0.9 2.8,1.7 4.2,2.5 0.3,0.2 0.6,0.3 0.9,0.5 0.2,0.1 0.5,0.2 0.7,0.3 0.4,0.2 0.8,0.4 1.2,0.6 0.8,0.4 1.7,0.7 2.6,1.1 0.4,0.1 0.8,0.3 1.2,0.4 0.4,0.2 0.9,0.3 1.3,0.5 0.9,0.3 1.7,0.6 2.6,0.8 0.2,0.1 0.5,0.1 0.7,0.2 v -38.7 c 0,-1.9 1.5,-3.5 3.5,-3.5 2,0 3.5,1.6 3.5,3.5 v 40 c 0.9,0.1 1.8,0.2 2.8,0.3 1.6,0.1 3.1,0.2 4.7,0.2 2.2,0 4.3,-0.1 6.4,-0.4 0,0 0.1,0 0.1,0 0.7,-0.1 1.4,-0.2 2.1,-0.3 0.4,-0.1 0.8,-0.1 1.2,-0.2 0,0 0.1,0 0.2,0 0.1,0 0.1,0 0.2,0 2,-0.4 4,-0.9 5.9,-1.5 v -38 c 0,-1.7 1.1,-3.2 2.8,-3.5 2.2,-0.4 4.2,1.3 4.2,3.4 v 35.4 c 18.6,-8.6 31.7,-27.2 32.1,-48.9 0,-0.1 0,-0.1 0,-0.2 0,-0.2 0,-0.4 0,-0.6 0,-0.5 0,-1.1 0,-1.6 v -44.4 c 14.1,0 25.6,-11.5 25.6,-25.6 0,-13.999997 -11.5,-25.499997 -25.6,-25.499997 z M 3047.9,145.5 c -5.7,0 -10.5,-3.9 -11.8,-9.2 -0.2,-0.9 -0.3,-1.9 -0.3,-2.9 0,-6.7 5.4,-12.1 12.1,-12.1 5.4,0 9.9,3.5 11.5,8.3 0.4,1.2 0.6,2.5 0.6,3.8 0,6.6 -5.4,12.1 -12.1,12.1 z m 70,-19.4 v -24.8 c 6.8,0 12.4,5.5 12.4,12.4 0,6.9 -5.6,12.4 -12.4,12.4 z" class="st0"/>
<path id="path126" d="m 3008,193.1 c 0.2,1.1 0.4,2.2 0.6,3.2 -0.2,-1 -0.4,-2.1 -0.6,-3.2 z" class="st0"/>
<path id="path127" d="m 3009.1,198.3 c 0.5,1.8 1,3.6 1.7,5.4 -0.7,-1.8 -1.3,-3.6 -1.7,-5.4 z" class="st0"/>
<path id="path128" d="m 3017.4,216.5 c 0.4,0.6 0.9,1.2 1.3,1.8 -0.2,-0.2 -0.4,-0.5 -0.5,-0.7 -0.3,-0.4 -0.5,-0.8 -0.8,-1.1 z" class="st0"/>
<path id="path129" d="m 3022.8,223 c 0.1,0.1 0.2,0.2 0.3,0.3 -0.4,-0.4 -0.7,-0.8 -1.1,-1.2 0.2,0.3 0.5,0.6 0.8,0.9 z" class="st0"/>
<path id="path130" d="m 3030.7,229.8 c 0.7,0.5 1.4,1 2.1,1.4 -0.4,-0.3 -0.8,-0.5 -1.1,-0.8 -0.3,-0.1 -0.6,-0.3 -1,-0.6 z" class="st0"/>
<path id="path131" d="m 4095.4,430.4 v 38.2 c 0,9.8 -7.9,17.7 -17.7,17.7 h -14.2 v 26 c -6.5,0 -12.6,-2.1 -17.6,-5.7 -5,-3.6 -8.9,-8.8 -10.9,-15 l -1.7,-5.3 h -248.2 c -34.6,0 -68.9,-5.4 -101.8,-16.1 -10,-3.2 -15,-12 -15,-20.7 0,-8.7 5,-17.4 15,-20.7 16.4,-5.3 33.3,-9.3 50.3,-12 13.3,-2.1 57.8,-3.4 71.3,-3.9 v 9.4 c 0,18.9 15.4,34.2 34.2,34.2 h 14 c 18.9,0 34.2,-15.4 34.2,-34.2 v -9.6 h 100.8 v 9.6 c 0,18.9 15.4,34.2 34.2,34.2 h 14 c 18.9,0 34.2,-15.4 34.2,-34.2 v -9.6 h 7.1 c 9.9,0 17.8,7.9 17.8,17.7 z" class="st0"/>
<g transform="translate(-1059.2,178.8)" id="g132">
	<path id="path132" d="m 5037.9,-26.1 c -11.6,-46.2 -53.1,-80.6 -102.8,-81.3 V -97 c 14.6,3.2 25.6,16.3 25.6,31.9 0,15.6 -11,28.7 -25.6,31.9 V 4.9 c 0,34.9 -28,63.4 -62.4,63.4 -1.1,0 -2.3,0 -3.5,-0.1 -13.5,-0.8 -26.3,-5.9 -36.4,-14.4 l -7.1,-5.7 V 63 c 0,36.3 17.9,68.3 45.3,87.8 v 92.7 c 0,15 12.2,27.1 27.1,27.1 h 14 c 15,0 27.1,-12.2 27.1,-27.1 V 197 h 115 v 46.5 c 0,15 12.2,27.1 27.1,27.1 h 14 c 15,0 27.1,-12.2 27.1,-34.1 v -155 c 0.3,-47 -35.4,-92.6 -84.5,-107.6 z m -54.6,199 c -0.7,0.7 -1.6,1 -2.5,1 -0.9,0 -1.8,-0.3 -2.5,-1 l -28.1,-28.1 c -1.4,-1.4 -1.4,-3.6 0,-5 1.4,-1.4 3.6,-1.4 5,0 l 28.1,28.1 c 1.4,1.3 1.4,3.6 0,5 z m 28.1,0 c -0.7,0.7 -1.6,1 -2.5,1 -0.9,0 -1.8,-0.3 -2.5,-1 l -28.1,-28.1 c -1.4,-1.4 -1.4,-3.6 0,-5 1.4,-1.4 3.6,-1.4 5,0 l 28.1,28.1 c 1.4,1.3 1.4,3.6 0,5 z m 28.2,0 c -0.7,0.7 -1.6,1 -2.5,1 -0.9,0 -1.8,-0.3 -2.5,-1 l -28.2,-28.1 c -1.4,-1.4 -1.4,-3.6 0,-5 1.4,-1.4 3.6,-1.4 5,0 l 28.1,28.1 c 1.5,1.3 1.5,3.6 0.1,5 z" class="st0"/>
</g>
<g transform="translate(-1059.2,178.8)" id="g133">
	<path id="path133" d="m 4805.9,99.3 c 3.7,3.7 5.5,8.5 5.5,13.3 0,4.8 -1.8,9.6 -5.5,13.3 -7.3,7.3 -19.2,7.3 -26.6,0 l -32,-32 c -6,-6 -10.9,-12.7 -14.6,-19.9 l 51.9,4 z" class="st0"/>
</g>
<path id="path134" d="m 3813.6,240 c -1.6,0 -3.2,-0.1 -4.7,-0.2 v 0 c 0.5,0 1.1,0.1 1.6,0.1 1,0.1 2,0.1 3.1,0.1 0.5,0 1.1,0 1.6,0 0.5,0 1,0 1.5,-0.1 0.3,0 0.7,0 1,-0.1 0.4,0 0.7,-0.1 1.1,-0.1 0.4,0 0.8,-0.1 1.3,-0.1 -2.2,0.2 -4.4,0.4 -6.5,0.4 z m -11.7,-1.2 v 0 c -0.3,-0.1 -0.5,-0.1 -0.8,-0.2 0.3,0 0.5,0.1 0.8,0.2 z m -3,-0.8 c 0.4,0.1 0.7,0.2 1.1,0.3 0.4,0.1 0.8,0.2 1.2,0.3 -0.9,-0.2 -1.8,-0.4 -2.6,-0.7 0,0 0.1,0.1 0.3,0.1 z m -3.5,-1.1 c 0.1,0 0.3,0.1 0.5,0.1 -0.4,-0.1 -0.9,-0.3 -1.3,-0.5 0.2,0.2 0.5,0.3 0.8,0.4 z m -1.5,-0.5 c 0.2,0.1 0.4,0.2 0.7,0.2 -0.4,-0.1 -0.8,-0.3 -1.2,-0.4 0.2,0.1 0.3,0.1 0.5,0.2 z m -3.4,-1.4 c 0.1,0 0.2,0.1 0.3,0.1 -0.4,-0.2 -0.8,-0.4 -1.2,-0.6 0.3,0.2 0.6,0.3 0.9,0.5 z m -1.2,-0.6 c 0.1,0 0.2,0.1 0.3,0.1 -0.2,-0.1 -0.5,-0.2 -0.7,-0.3 0.2,0.1 0.3,0.1 0.4,0.2 z" class="st0"/>
<path id="path135" d="m 3868.8,88.100003 v -26.2 c 0,-14.8 -12,-26.8 -26.8,-26.8 h -5.4 v 41.2 c 0,2.1 -2,3.8 -4.2,3.4 -1.6,-0.3 -2.8,-1.8 -2.8,-3.5 v -41.1 H 3806 v 41.3 c 0,1.9 -1.5,3.5 -3.5,3.5 -1.9,0 -3.5,-1.6 -3.5,-3.5 v -41.3 h -7 c -14.8,0 -26.8,12 -26.8,26.8 v 18 L 3687.9,157.2 c -18.5,18.5 -26.2,43.5 -23.3,67.6 h 49.3 c 1.7,-8.5 6.7,-16.4 14.8,-21.5 l 2.8,-1.8 v 16.9 c 0,7.4 -6,13.5 -13.5,13.5 h -79.3 c -3.5,0 -6.3,2.8 -6.3,6.3 0,3.3 2.6,6.1 5.9,6.3 l 88.9,5.2 c 16.8,1.3 31.2,-12 31.2,-28.9 v -31.4 c 0,0.2 0,0.5 0.1,0.7 0,0.1 0,0.2 0,0.3 0,0.2 0,0.5 0.1,0.7 0.1,0.4 0.1,0.8 0.2,1.3 0,0.3 0.1,0.6 0.1,0.8 0.2,1.1 0.4,2.2 0.6,3.2 0.1,0.6 0.3,1.2 0.4,1.8 0,0 0,0 0,0.1 0.5,1.8 1,3.6 1.7,5.4 0,0 0,0 0,0.1 0.2,0.5 0.4,1.1 0.6,1.6 0,0.1 0.1,0.2 0.1,0.3 0.2,0.5 0.4,1 0.7,1.6 0.3,0.6 0.5,1 0.7,1.5 0.1,0.1 0.1,0.3 0.2,0.4 0.2,0.5 0.5,0.9 0.7,1.4 0,0 0,0.1 0,0.1 0.3,0.5 0.6,1.1 0.9,1.6 0.2,0.4 0.5,0.8 0.7,1.2 0.1,0.2 0.2,0.3 0.3,0.5 0.3,0.4 0.5,0.9 0.8,1.3 0.3,0.5 0.6,0.9 0.9,1.3 0.3,0.4 0.5,0.7 0.8,1.1 0.2,0.2 0.3,0.5 0.5,0.7 0.3,0.4 0.6,0.8 0.9,1.1 0.2,0.3 0.5,0.6 0.7,0.8 0.5,0.6 1.1,1.2 1.6,1.8 0.3,0.3 0.5,0.6 0.8,0.9 0.1,0.1 0.2,0.2 0.3,0.3 2.4,2.4 4.9,4.6 7.7,6.6 0.3,0.2 0.6,0.5 1,0.7 0.4,0.3 0.8,0.5 1.1,0.8 1.4,0.9 2.8,1.7 4.2,2.5 0.3,0.2 0.6,0.3 0.9,0.5 0.2,0.1 0.5,0.2 0.7,0.3 0.4,0.2 0.8,0.4 1.2,0.6 0.8,0.4 1.7,0.7 2.5,1.1 0.4,0.1 0.8,0.3 1.2,0.4 0.4,0.2 0.9,0.3 1.3,0.5 0.9,0.3 1.7,0.6 2.6,0.8 0.2,0.1 0.5,0.1 0.7,0.2 v -38.8 c 0,-1.9 1.5,-3.5 3.5,-3.5 1.9,0 3.5,1.6 3.5,3.5 v 40 c 0.9,0.1 1.8,0.2 2.8,0.3 1.6,0.1 3.1,0.2 4.7,0.2 2.2,0 4.3,-0.1 6.4,-0.4 0,0 0.1,0 0.1,0 0.7,-0.1 1.4,-0.2 2.1,-0.3 0.4,-0.1 0.8,-0.1 1.2,-0.2 0,0 0.1,0 0.2,0 0.1,0 0.1,0 0.2,0 2,-0.4 4,-0.9 5.9,-1.5 v -38 c 0,-1.7 1.1,-3.2 2.8,-3.5 2.2,-0.4 4.2,1.3 4.2,3.4 v 35.4 c 18.6,-8.6 31.7,-27.2 32.1,-48.9 0,-0.1 0,-0.1 0,-0.2 0,-0.2 0,-0.4 0,-0.6 0,-0.5 0,-1.1 0,-1.6 v -44.4 c 14.1,0 25.6,-11.5 25.6,-25.6 0.2,-13.999997 -11.2,-25.499997 -25.4,-25.499997 z M 3798.9,145.5 c -5.7,0 -10.5,-3.9 -11.8,-9.2 -0.2,-0.9 -0.4,-1.9 -0.4,-2.9 0,-6.7 5.4,-12.1 12.1,-12.1 5.4,0 9.9,3.5 11.5,8.3 0.4,1.2 0.6,2.5 0.6,3.8 0.1,6.6 -5.3,12.1 -12,12.1 z m 69.9,-19.4 v -24.8 c 6.8,0 12.4,5.5 12.4,12.4 0,6.9 -5.5,12.4 -12.4,12.4 z" class="st0"/>
<path id="path136" d="m 3759,193.1 c 0.2,1.1 0.4,2.2 0.6,3.2 -0.3,-1 -0.5,-2.1 -0.6,-3.2 z" class="st0"/>
<path id="path137" d="m 3760,198.3 c 0.5,1.8 1,3.6 1.7,5.4 -0.7,-1.8 -1.2,-3.6 -1.7,-5.4 z" class="st0"/>
<path id="path138" d="m 3768.4,216.5 c 0.4,0.6 0.9,1.2 1.3,1.8 -0.2,-0.2 -0.4,-0.5 -0.5,-0.7 -0.3,-0.4 -0.6,-0.8 -0.8,-1.1 z" class="st0"/>
<path id="path139" d="m 3773.7,223 c 0.1,0.1 0.2,0.2 0.3,0.3 -0.4,-0.4 -0.7,-0.8 -1.1,-1.2 0.3,0.3 0.5,0.6 0.8,0.9 z" class="st0"/>
<path id="path140" d="m 3781.7,229.8 c 0.7,0.5 1.4,1 2.1,1.4 -0.4,-0.3 -0.8,-0.5 -1.1,-0.8 -0.4,-0.1 -0.7,-0.3 -1,-0.6 z" class="st0"/>
<g transform="translate(-1059.2,178.8)" id="g147">
	<path id="path141" d="m 4757.7,344.3 h 15.7 l 3.9,64.1 H 4762 l -1.6,-26.2 -9.2,26.2 H 4736 l -9.7,-27.2 -1.8,27.2 h -15.3 l 4.2,-64.1 h 15.7 l 14.5,40.1 z" class="st0"/>
	<path id="path142" d="m 4825.3,408.4 -2.6,-7.8 h -20.8 l -2.7,7.8 H 4783 l 22.6,-64 h 14.4 l 21.4,64 z m -18.2,-22.5 h 10.7 l -5.2,-15.5 z" class="st0"/>
	<path id="path143" d="m 4895.6,344.3 h 15.7 l 3.9,64.1 H 4900 l -1.6,-26.2 -9.2,26.2 h -15.3 l -9.7,-27.2 -1.8,27.2 H 4847 l 4.2,-64.1 h 15.7 l 14.5,40.1 z" class="st0"/>
	<path id="path144" d="m 4970,344.3 h 15.7 l 3.9,64.1 h -15.3 l -1.6,-26.2 -9.2,26.2 h -15.3 l -9.7,-27.2 -1.8,27.2 h -15.3 l 4.2,-64.1 h 15.7 l 14.5,40.1 z" class="st0"/>
	<path id="path145" d="m 5026.6,344.3 c 4.6,0 8.9,0.8 12.9,2.5 4,1.7 7.5,4 10.5,6.8 3,2.9 5.4,6.3 7.1,10.2 1.7,3.9 2.6,8.1 2.6,12.5 0,4.4 -0.9,8.6 -2.6,12.5 -1.7,3.9 -4.1,7.3 -7.1,10.2 -3,2.9 -6.5,5.2 -10.5,6.8 -4,1.7 -8.3,2.5 -12.9,2.5 -4.6,0 -8.9,-0.8 -12.9,-2.5 -4,-1.7 -7.5,-4 -10.5,-6.8 -3,-2.9 -5.3,-6.3 -7.1,-10.2 -1.7,-3.9 -2.6,-8.1 -2.6,-12.5 0,-4.4 0.9,-8.6 2.6,-12.5 1.7,-3.9 4.1,-7.3 7.1,-10.2 3,-2.9 6.5,-5.2 10.5,-6.8 4,-1.7 8.3,-2.5 12.9,-2.5 z m 0,49.2 c 2.5,0 4.8,-0.4 6.9,-1.4 2.2,-0.9 4.1,-2.1 5.7,-3.7 1.6,-1.6 2.9,-3.4 3.8,-5.5 0.9,-2.1 1.4,-4.3 1.4,-6.7 0,-2.4 -0.5,-4.6 -1.4,-6.7 -0.9,-2.1 -2.2,-3.9 -3.8,-5.5 -1.6,-1.6 -3.5,-2.8 -5.7,-3.7 -2.2,-0.9 -4.5,-1.4 -6.9,-1.4 -2.5,0 -4.8,0.5 -6.9,1.4 -2.2,0.9 -4.1,2.1 -5.7,3.7 -1.6,1.6 -2.9,3.4 -3.8,5.5 -0.9,2.1 -1.4,4.3 -1.4,6.7 0,2.4 0.5,4.6 1.4,6.7 0.9,2.1 2.2,3.9 3.8,5.5 1.6,1.6 3.5,2.8 5.7,3.7 2.2,1 4.5,1.4 6.9,1.4 z" class="st0"/>
	<path id="path146" d="m 5099.5,344.1 v 14.7 h -12.7 v 49.6 h -15.3 v -49.6 h -12.6 v -14.7 z" class="st0"/>
	<path id="path147" d="m 5139.3,344.3 h 15.3 v 64 h -15.3 v -24.2 h -19.1 v 24.2 h -15.3 v -64 h 15.3 v 25.1 h 19.1 z" class="st0"/>
</g>
<g transform="translate(-1059.2,178.8)" id="g148">
	<path id="path148" d="m 4350,333.5 c -6.4,-4.6 -11,-11 -13.5,-18.5 l -0.1,-0.5 h -0.6 l 0.1,0.5 c 2.4,7.5 7.1,13.9 13.5,18.5 6.4,4.6 13.9,7.1 21.8,7.1 h 0.5 c -7.8,-0.1 -15.4,-2.5 -21.7,-7.1 z" class="st1"/>
</g>
<rect id="rect148" height="70.699997" width="0.2" y="558.70001" x="124.10005"/>
</svg>