<?xml version="1.0" encoding="UTF-8" standalone="no"?>
<!-- Created with Inkscape (http://www.inkscape.org/) -->

<svg
   width="1041.0344mm"
   height="164.91153mm"
   viewBox="0 0 1041.0344 164.91153"
   version="1.1"
   id="svg5"
   sodipodi:docname="mammoth_banner.svg"
   inkscape:version="1.1.2 (0a00cf5339, 2022-02-04)"
   xmlns:inkscape="http://www.inkscape.org/namespaces/inkscape"
   xmlns:sodipodi="http://sodipodi.sourceforge.net/DTD/sodipodi-0.dtd"
   xmlns="http://www.w3.org/2000/svg"
   xmlns:svg="http://www.w3.org/2000/svg">
  <sodipodi:namedview
     id="namedview7"
     pagecolor="#ffffff"
     bordercolor="#000000"
     borderopacity="0.25"
     inkscape:pageshadow="2"
     inkscape:pageopacity="0.0"
     inkscape:pagecheckerboard="0"
     inkscape:document-units="mm"
     showgrid="false"
     inkscape:zoom="0.25197127"
     inkscape:cx="1940.6974"
     inkscape:cy="573.47808"
     inkscape:window-width="1920"
     inkscape:window-height="972"
     inkscape:window-x="2400"
     inkscape:window-y="27"
     inkscape:window-maximized="1"
     inkscape:current-layer="layer1"
     fit-margin-top="0"
     fit-margin-left="0"
     fit-margin-right="0"
     fit-margin-bottom="0" />
  <defs
     id="defs2">
    <clipPath
       clipPathUnits="userSpaceOnUse"
       id="clipPath4078">
      <rect
         x="-31.417557"
         y="19.986921"
         width="1041.0344"
         height="164.91153"
         id="rect4080"
         style="opacity:0.601851;fill:#ff2a2a;stroke-width:0.503727" />
    </clipPath>
    <clipPath
       clipPathUnits="userSpaceOnUse"
       id="clipPath4082">
      <rect
         x="-31.417557"
         y="19.986921"
         width="1041.0344"
         height="164.91153"
         id="rect4084"
         style="opacity:0.601851;fill:#ff2a2a;stroke-width:0.503727" />
    </clipPath>
    <clipPath
       clipPathUnits="userSpaceOnUse"
       id="clipPath4086">
      <rect
         x="-31.417557"
         y="19.986921"
         width="1041.0344"
         height="164.91153"
         id="rect4088"
         style="opacity:0.601851;fill:#ff2a2a;stroke-width:0.503727" />
    </clipPath>
    <clipPath
       clipPathUnits="userSpaceOnUse"
       id="clipPath4090">
      <rect
         x="-31.417557"
         y="19.986921"
         width="1041.0344"
         height="164.91153"
         id="rect4092"
         style="opacity:0.601851;fill:#ff2a2a;stroke-width:0.503727" />
    </clipPath>
    <clipPath
       clipPathUnits="userSpaceOnUse"
       id="clipPath4094">
      <rect
         x="-31.417557"
         y="19.986921"
         width="1041.0344"
         height="164.91153"
         id="rect4096"
         style="opacity:0.601851;fill:#ff2a2a;stroke-width:0.503727" />
    </clipPath>
    <clipPath
       clipPathUnits="userSpaceOnUse"
       id="clipPath4098">
      <rect
         x="-31.417557"
         y="19.986921"
         width="1041.0344"
         height="164.91153"
         id="rect4100"
         style="opacity:0.601851;fill:#ff2a2a;stroke-width:0.503727" />
    </clipPath>
    <clipPath
       clipPathUnits="userSpaceOnUse"
       id="clipPath4102">
      <rect
         x="-31.417557"
         y="19.986921"
         width="1041.0344"
         height="164.91153"
         id="rect4104"
         style="opacity:0.601851;fill:#ff2a2a;stroke-width:0.503727" />
    </clipPath>
    <clipPath
       clipPathUnits="userSpaceOnUse"
       id="clipPath4106">
      <rect
         x="-31.417557"
         y="19.986921"
         width="1041.0344"
         height="164.91153"
         id="rect4108"
         style="opacity:0.601851;fill:#ff2a2a;stroke-width:0.503727" />
    </clipPath>
    <clipPath
       clipPathUnits="userSpaceOnUse"
       id="clipPath4110">
      <rect
         x="-31.417557"
         y="19.986921"
         width="1041.0344"
         height="164.91153"
         id="rect4112"
         style="opacity:0.601851;fill:#ff2a2a;stroke-width:0.503727" />
    </clipPath>
    <clipPath
       clipPathUnits="userSpaceOnUse"
       id="clipPath4114">
      <rect
         x="-31.417557"
         y="19.986921"
         width="1041.0344"
         height="164.91153"
         id="rect4116"
         style="opacity:0.601851;fill:#ff2a2a;stroke-width:0.503727" />
    </clipPath>
    <clipPath
       clipPathUnits="userSpaceOnUse"
       id="clipPath4118">
      <rect
         x="-31.417557"
         y="19.986921"
         width="1041.0344"
         height="164.91153"
         id="rect4120"
         style="opacity:0.601851;fill:#ff2a2a;stroke-width:0.503727" />
    </clipPath>
    <clipPath
       clipPathUnits="userSpaceOnUse"
       id="clipPath4122">
      <rect
         x="-31.417557"
         y="19.986921"
         width="1041.0344"
         height="164.91153"
         id="rect4124"
         style="opacity:0.601851;fill:#ff2a2a;stroke-width:0.503727" />
    </clipPath>
    <clipPath
       clipPathUnits="userSpaceOnUse"
       id="clipPath4126">
      <rect
         x="-31.417557"
         y="19.986921"
         width="1041.0344"
         height="164.91153"
         id="rect4128"
         style="opacity:0.601851;fill:#ff2a2a;stroke-width:0.503727" />
    </clipPath>
    <clipPath
       clipPathUnits="userSpaceOnUse"
       id="clipPath4130">
      <rect
         x="-31.417557"
         y="19.986921"
         width="1041.0344"
         height="164.91153"
         id="rect4132"
         style="opacity:0.601851;fill:#ff2a2a;stroke-width:0.503727" />
    </clipPath>
    <clipPath
       clipPathUnits="userSpaceOnUse"
       id="clipPath4134">
      <rect
         x="-31.417557"
         y="19.986921"
         width="1041.0344"
         height="164.91153"
         id="rect4136"
         style="opacity:0.601851;fill:#ff2a2a;stroke-width:0.503727" />
    </clipPath>
    <clipPath
       clipPathUnits="userSpaceOnUse"
       id="clipPath4138">
      <rect
         x="-1319.1677"
         y="-178.79999"
         width="3934.6184"
         height="623.28766"
         id="rect4140"
         style="opacity:0.601851;fill:#ff2a2a;stroke-width:1.90385" />
    </clipPath>
    <clipPath
       clipPathUnits="userSpaceOnUse"
       id="clipPath4142">
      <rect
         x="-31.417557"
         y="19.986921"
         width="1041.0344"
         height="164.91153"
         id="rect4144"
         style="opacity:0.601851;fill:#ff2a2a;stroke-width:0.503727" />
    </clipPath>
    <clipPath
       clipPathUnits="userSpaceOnUse"
       id="clipPath4146">
      <rect
         x="-31.417557"
         y="19.986921"
         width="1041.0344"
         height="164.91153"
         id="rect4148"
         style="opacity:0.601851;fill:#ff2a2a;stroke-width:0.503727" />
    </clipPath>
    <clipPath
       clipPathUnits="userSpaceOnUse"
       id="clipPath4150">
      <rect
         x="-31.417557"
         y="19.986921"
         width="1041.0344"
         height="164.91153"
         id="rect4152"
         style="opacity:0.601851;fill:#ff2a2a;stroke-width:0.503727" />
    </clipPath>
    <clipPath
       clipPathUnits="userSpaceOnUse"
       id="clipPath4154">
      <rect
         x="-31.417557"
         y="19.986921"
         width="1041.0344"
         height="164.91153"
         id="rect4156"
         style="opacity:0.601851;fill:#ff2a2a;stroke-width:0.503727" />
    </clipPath>
    <clipPath
       clipPathUnits="userSpaceOnUse"
       id="clipPath4158">
      <rect
         x="-31.417557"
         y="19.986921"
         width="1041.0344"
         height="164.91153"
         id="rect4160"
         style="opacity:0.601851;fill:#ff2a2a;stroke-width:0.503727" />
    </clipPath>
    <clipPath
       clipPathUnits="userSpaceOnUse"
       id="clipPath4162">
      <rect
         x="-31.417557"
         y="19.986921"
         width="1041.0344"
         height="164.91153"
         id="rect4164"
         style="opacity:0.601851;fill:#ff2a2a;stroke-width:0.503727" />
    </clipPath>
    <clipPath
       clipPathUnits="userSpaceOnUse"
       id="clipPath4166">
      <rect
         x="-31.417557"
         y="19.986921"
         width="1041.0344"
         height="164.91153"
         id="rect4168"
         style="opacity:0.601851;fill:#ff2a2a;stroke-width:0.503727" />
    </clipPath>
    <clipPath
       clipPathUnits="userSpaceOnUse"
       id="clipPath4170">
      <rect
         x="-1319.1677"
         y="-178.79999"
         width="3934.6184"
         height="623.28766"
         id="rect4172"
         style="opacity:0.601851;fill:#ff2a2a;stroke-width:1.90385" />
    </clipPath>
    <clipPath
       clipPathUnits="userSpaceOnUse"
       id="clipPath4174">
      <rect
         x="-1319.1677"
         y="-178.79999"
         width="3934.6184"
         height="623.28766"
         id="rect4176"
         style="opacity:0.601851;fill:#ff2a2a;stroke-width:1.90385" />
    </clipPath>
    <clipPath
       clipPathUnits="userSpaceOnUse"
       id="clipPath4178">
      <rect
         x="-31.417557"
         y="19.986921"
         width="1041.0344"
         height="164.91153"
         id="rect4180"
         style="opacity:0.601851;fill:#ff2a2a;stroke-width:0.503727" />
    </clipPath>
    <clipPath
       clipPathUnits="userSpaceOnUse"
       id="clipPath4182">
      <rect
         x="-31.417557"
         y="19.986921"
         width="1041.0344"
         height="164.91153"
         id="rect4184"
         style="opacity:0.601851;fill:#ff2a2a;stroke-width:0.503727" />
    </clipPath>
    <clipPath
       clipPathUnits="userSpaceOnUse"
       id="clipPath4186">
      <rect
         x="-31.417557"
         y="19.986921"
         width="1041.0344"
         height="164.91153"
         id="rect4188"
         style="opacity:0.601851;fill:#ff2a2a;stroke-width:0.503727" />
    </clipPath>
    <clipPath
       clipPathUnits="userSpaceOnUse"
       id="clipPath4190">
      <rect
         x="-31.417557"
         y="19.986921"
         width="1041.0344"
         height="164.91153"
         id="rect4192"
         style="opacity:0.601851;fill:#ff2a2a;stroke-width:0.503727" />
    </clipPath>
    <clipPath
       clipPathUnits="userSpaceOnUse"
       id="clipPath4194">
      <rect
         x="-31.417557"
         y="19.986921"
         width="1041.0344"
         height="164.91153"
         id="rect4196"
         style="opacity:0.601851;fill:#ff2a2a;stroke-width:0.503727" />
    </clipPath>
    <clipPath
       clipPathUnits="userSpaceOnUse"
       id="clipPath4198">
      <rect
         x="-31.417557"
         y="19.986921"
         width="1041.0344"
         height="164.91153"
         id="rect4200"
         style="opacity:0.601851;fill:#ff2a2a;stroke-width:0.503727" />
    </clipPath>
  </defs>
  <g
     inkscape:label="Layer 1"
     inkscape:groupmode="layer"
     id="layer1"
     transform="translate(31.417555,-19.986921)">
    <rect
       x="-31.417555"
       y="19.986921"
       width="1041.0344"
       height="164.91153"
       id="rect52"
       style="stroke-width:0.503727"
       clip-path="url(#clipPath4198)" />
    <path
       class="st0"
       d="m 820.26763,150.13545 v 36.40667 h -94.74729 v -18.70604 h -0.0529 v -16.61584 c 0.52917,3.51896 3.54542,6.19125 7.19667,6.19125 4.02166,0 7.27604,-3.25437 7.27604,-7.27604 0,-4.02167 -3.25438,-7.27604 -7.27604,-7.27604 -3.94229,0 -1.87855,-4.60375 4.60375,-4.60375 6.56166,0 11.87979,5.31812 11.87979,11.87979 v 1.08479 c 0.52916,3.51896 3.54541,6.19125 7.19666,6.19125 4.02167,0 7.27605,-3.25437 7.27605,-7.27604 0,-4.02167 -3.25438,-7.27604 -7.27605,-7.27604 -3.94229,0 -1.87854,-4.60375 4.60375,-4.60375 6.56167,0 11.8798,5.31812 11.8798,11.87979 v 1.08479 c 0.52916,3.51896 3.54541,6.19125 7.19666,6.19125 4.02167,0 7.27604,-3.25437 7.27604,-7.27604 0,-4.02167 -3.25437,-7.27604 -7.27604,-7.27604 -3.94229,0 -1.87854,-4.60375 4.60375,-4.60375 6.56167,0 11.87979,5.31812 11.87979,11.87979 v 1.08479 c 0.52917,3.51896 3.54542,6.19125 7.19667,6.19125 4.02167,0 7.27604,-3.25437 7.27604,-7.27604 0,-4.02167 -3.25437,-7.27604 -7.27604,-7.27604 -3.94229,0 -1.87854,-4.60375 4.60375,-4.60375 6.64104,-0.0265 11.95917,5.31812 11.95917,11.87979 z"
       id="path52"
       style="fill:#ffffff;fill-opacity:1;stroke-width:0.264583"
       clip-path="url(#clipPath4194)" />
    <path
       class="st0"
       d="m 976.13367,133.86358 v 10.10708 c 0,2.59292 -2.09021,4.68312 -4.68312,4.68312 h -3.75709 v 6.87917 c -1.71979,0 -3.33375,-0.55562 -4.65666,-1.50812 -1.32292,-0.9525 -2.35479,-2.32834 -2.88396,-3.96875 l -0.44979,-1.4023 h -65.66958 c -9.15459,0 -18.2298,-1.42875 -26.93459,-4.25979 -2.64583,-0.84666 -3.96875,-3.175 -3.96875,-5.47687 0,-2.30188 1.32292,-4.60375 3.96875,-5.47688 4.33917,-1.40229 8.81062,-2.46062 13.30854,-3.175 3.51896,-0.55562 15.29292,-0.89958 18.8648,-1.03187 v 2.48708 c 0,5.00063 4.07458,9.04875 9.04874,9.04875 h 3.70417 c 5.00063,0 9.04875,-4.07458 9.04875,-9.04875 v -2.54 h 26.67 v 2.54 c 0,5.00063 4.07458,9.04875 9.04875,9.04875 h 3.70417 c 5.00062,0 9.04875,-4.07458 9.04875,-9.04875 v -2.54 h 1.87854 c 2.61937,0 4.70958,2.09021 4.70958,4.68313 z"
       id="path53"
       style="stroke-width:0.264583"
       clip-path="url(#clipPath4190)" />
    <path
       d="m 900.35701,157.19983 c 0.18521,-0.0529 0.37041,-0.10584 0.55562,-0.15875 -0.18521,0.0529 -0.37041,0.10583 -0.55562,0.15875 z"
       id="path54"
       style="stroke-width:0.264583"
       clip-path="url(#clipPath4186)" />
    <path
       d="m 905.91326,150.50587 c -0.15875,3.06916 -2.19605,5.60916 -5.00063,6.53521 2.77813,-0.92605 4.81542,-3.4925 5.00063,-6.53521 z"
       id="path55"
       style="stroke-width:0.264583"
       clip-path="url(#clipPath4182)" />
    <path
       class="st0"
       d="m 947.42638,170.19087 c -0.23812,-0.55563 -0.58208,-1.03188 -1.00542,-1.45521 -0.42333,-0.42333 -0.92604,-0.74083 -1.50812,-0.97896 -0.58208,-0.23812 -1.19063,-0.34396 -1.85208,-0.34396 -0.66146,0 -1.27,0.10584 -1.82563,0.34396 -0.58208,0.23813 -1.08479,0.55563 -1.50812,0.97896 -0.42334,0.42333 -0.7673,0.89958 -1.00542,1.45521 -0.23813,0.55562 -0.37042,1.13771 -0.37042,1.77271 0,0.635 0.13229,1.21708 0.37042,1.7727 0.23812,0.55563 0.58208,1.03188 1.00542,1.45521 0.42333,0.42334 0.92604,0.74084 1.50812,0.97896 0.58208,0.23813 1.19063,0.34396 1.82563,0.34396 0.66145,0 1.27,-0.13229 1.85208,-0.34396 0.58208,-0.23812 1.08479,-0.55562 1.50812,-0.97896 0.42334,-0.42333 0.7673,-0.89958 1.00542,-1.45521 0.23813,-0.55562 0.37042,-1.1377 0.37042,-1.7727 0,-0.60855 -0.13229,-1.21709 -0.37042,-1.77271 z m 0,0 c -0.23812,-0.55563 -0.58208,-1.03188 -1.00542,-1.45521 -0.42333,-0.42333 -0.92604,-0.74083 -1.50812,-0.97896 -0.58208,-0.23812 -1.19063,-0.34396 -1.85208,-0.34396 -0.66146,0 -1.27,0.10584 -1.82563,0.34396 -0.58208,0.23813 -1.08479,0.55563 -1.50812,0.97896 -0.42334,0.42333 -0.7673,0.89958 -1.00542,1.45521 -0.23813,0.55562 -0.37042,1.13771 -0.37042,1.77271 0,0.635 0.13229,1.21708 0.37042,1.7727 0.23812,0.55563 0.58208,1.03188 1.00542,1.45521 0.42333,0.42334 0.92604,0.74084 1.50812,0.97896 0.58208,0.23813 1.19063,0.34396 1.82563,0.34396 0.66145,0 1.27,-0.13229 1.85208,-0.34396 0.58208,-0.23812 1.08479,-0.55562 1.50812,-0.97896 0.42334,-0.42333 0.7673,-0.89958 1.00542,-1.45521 0.23813,-0.55562 0.37042,-1.1377 0.37042,-1.7727 0,-0.60855 -0.13229,-1.21709 -0.37042,-1.77271 z m -60.98646,0.21166 -1.45521,4.10105 h 2.83105 z m 60.98646,-0.21166 c -0.23812,-0.55563 -0.58208,-1.03188 -1.00542,-1.45521 -0.42333,-0.42333 -0.92604,-0.74083 -1.50812,-0.97896 -0.58208,-0.23812 -1.19063,-0.34396 -1.85208,-0.34396 -0.66146,0 -1.27,0.10584 -1.82563,0.34396 -0.58208,0.23813 -1.08479,0.55563 -1.50812,0.97896 -0.42334,0.42333 -0.7673,0.89958 -1.00542,1.45521 -0.23813,0.55562 -0.37042,1.13771 -0.37042,1.77271 0,0.635 0.13229,1.21708 0.37042,1.7727 0.23812,0.55563 0.58208,1.03188 1.00542,1.45521 0.42333,0.42334 0.92604,0.74084 1.50812,0.97896 0.58208,0.23813 1.19063,0.34396 1.82563,0.34396 0.66145,0 1.27,-0.13229 1.85208,-0.34396 0.58208,-0.23812 1.08479,-0.55562 1.50812,-0.97896 0.42334,-0.42333 0.7673,-0.89958 1.00542,-1.45521 0.23813,-0.55562 0.37042,-1.1377 0.37042,-1.7727 0,-0.60855 -0.13229,-1.21709 -0.37042,-1.77271 z m 0,0 c -0.23812,-0.55563 -0.58208,-1.03188 -1.00542,-1.45521 -0.42333,-0.42333 -0.92604,-0.74083 -1.50812,-0.97896 -0.58208,-0.23812 -1.19063,-0.34396 -1.85208,-0.34396 -0.66146,0 -1.27,0.10584 -1.82563,0.34396 -0.58208,0.23813 -1.08479,0.55563 -1.50812,0.97896 -0.42334,0.42333 -0.7673,0.89958 -1.00542,1.45521 -0.23813,0.55562 -0.37042,1.13771 -0.37042,1.77271 0,0.635 0.13229,1.21708 0.37042,1.7727 0.23812,0.55563 0.58208,1.03188 1.00542,1.45521 0.42333,0.42334 0.92604,0.74084 1.50812,0.97896 0.58208,0.23813 1.19063,0.34396 1.82563,0.34396 0.66145,0 1.27,-0.13229 1.85208,-0.34396 0.58208,-0.23812 1.08479,-0.55562 1.50812,-0.97896 0.42334,-0.42333 0.7673,-0.89958 1.00542,-1.45521 0.23813,-0.55562 0.37042,-1.1377 0.37042,-1.7727 0,-0.60855 -0.13229,-1.21709 -0.37042,-1.77271 z m -60.98646,0.21166 -1.45521,4.10105 h 2.83105 z m 111.5748,-32.17333 c -6.4823,0 -8.54605,4.60375 -4.60376,4.60375 4.02167,0 7.27604,3.25438 7.27604,7.27604 0,4.02167 -3.25437,7.27604 -7.27604,7.27604 -3.65125,0 -6.6675,-2.69875 -7.19666,-6.19125 v -1.08479 c 0,-5.23875 -3.38667,-9.65729 -8.06979,-11.24479 v 5.08 c 0,1.56104 -0.55563,2.98979 -1.45521,4.10104 0.21166,0.66146 0.29104,1.34938 0.29104,2.06375 0,4.02167 -3.25438,7.27604 -7.27604,7.27604 -0.13229,0 -0.23813,0 -0.37042,0 h -1.50812 c -2.09021,0 -4.07459,-0.635 -5.76792,-1.87854 -1.69333,-1.21708 -2.93688,-2.91041 -3.57188,-4.89479 l -0.0265,-0.13229 h -5.18584 c -0.18521,3.83646 -3.38666,6.90562 -7.27604,6.90562 -3.65125,0 -6.6675,-2.69875 -7.19667,-6.19125 v -0.71437 h -9.23395 c -0.18521,3.83646 -3.38667,6.90562 -7.27605,6.90562 -3.65125,0 -6.6675,-2.69875 -7.19666,-6.19125 v -0.71437 h -9.23396 c -0.15875,3.06917 -2.19604,5.60917 -5.00062,6.53521 0,0 0,0 0,0 -0.18521,0.0529 -0.37042,0.10583 -0.55563,0.15875 -0.10583,0.0265 -0.21167,0.0529 -0.34396,0.0794 -0.10583,0.0265 -0.21166,0.0529 -0.34396,0.0529 v 0 c -0.21166,0.0265 -0.44979,0.0529 -0.68791,0.0794 -0.10584,0 -0.23813,0 -0.34396,0 h -0.0265 c -3.65125,0 -6.6675,-2.69875 -7.19667,-6.19125 v -0.74083 c -3.09562,-0.0794 -6.16479,-0.34396 -9.23396,-0.74084 0,0.13229 0,0.26459 0,0.39688 0,4.02166 -3.25437,7.27604 -7.27604,7.27604 -3.65125,0 -6.6675,-2.69875 -7.19667,-6.19125 v -1.08479 c 0,-1.32292 -0.21166,-2.59292 -0.60854,-3.78354 -0.21167,-0.0794 -0.39687,-0.1323 -0.60854,-0.18521 -2.98979,-0.97896 -5.00063,-3.51896 -5.23875,-6.61459 -1.61396,-0.84666 -3.46604,-1.29645 -5.42396,-1.29645 -6.50875,0 -8.54604,4.60375 -4.60375,4.60375 4.02167,0 7.27604,3.25437 7.27604,7.27604 0,4.02166 -3.25437,7.27604 -7.27604,7.27604 -3.65125,0 -6.6675,-2.69875 -7.19667,-6.19125 v -1.08479 c 0,-6.56167 -5.31812,-11.87979 -11.87979,-11.87979 -6.48229,0 -8.54604,4.60375 -4.60375,4.60375 4.02167,0 7.27604,3.25437 7.27604,7.27604 0,4.02166 -3.25437,7.27604 -7.27604,7.27604 -3.65125,0 -6.6675,-2.69875 -7.19666,-6.19125 v -1.08479 c 0,-0.37042 -0.0265,-0.74084 -0.0529,-1.13771 v 37.51791 h 189.6269 v -36.35375 c 0.053,-6.56167 -5.2652,-11.90625 -11.85328,-11.90625 z m -124.96271,42.25396 -0.42334,-6.93208 -2.43416,6.93208 h -4.04813 l -2.59292,-7.19667 -0.47625,7.19667 h -4.04812 l 1.11125,-16.95979 h 4.15396 l 3.83646,10.60979 3.75708,-10.60979 h 4.15396 l 1.03187,16.95979 z m 16.74812,0 -0.68791,-2.06375 h -5.50334 l -0.71438,2.06375 h -4.25979 l 5.97959,-16.93333 h 3.81 l 5.66208,16.93333 z m 19.76438,0 -0.42334,-6.93208 -2.43416,6.93208 h -4.04813 l -2.59291,-7.19667 -0.47625,7.19667 h -4.04813 l 1.11125,-16.95979 h 4.15396 l 3.83646,10.60979 3.75708,-10.60979 h 4.15396 l 1.03187,16.95979 z m 19.65854,0 -0.42334,-6.93208 -2.43416,6.93208 h -4.04813 l -2.56646,-7.19667 -0.47625,7.19667 h -4.04812 l 1.11125,-16.95979 h 4.15396 l 3.83646,10.60979 3.75708,-10.60979 h 4.15396 l 1.03187,16.95979 z m 21.9075,-5.21229 c -0.44979,1.03187 -1.08479,1.93146 -1.87854,2.69875 -0.79375,0.76729 -1.7198,1.37583 -2.80459,1.79916 -1.05833,0.4498 -2.19604,0.66146 -3.41312,0.66146 -1.21709,0 -2.35479,-0.21166 -3.41313,-0.66146 -1.05833,-0.44979 -1.98437,-1.05833 -2.77812,-1.79916 -0.79375,-0.74084 -1.40229,-1.66688 -1.87854,-2.69875 -0.47625,-1.03188 -0.68792,-2.14313 -0.68792,-3.30729 0,-1.16417 0.23812,-2.27542 0.68792,-3.3073 0.44979,-1.03187 1.08479,-1.93145 1.87854,-2.69875 0.79375,-0.76729 1.71979,-1.37583 2.77812,-1.79916 1.05834,-0.44979 2.19604,-0.66146 3.41313,-0.66146 1.21708,0 2.35479,0.21167 3.41312,0.66146 1.05834,0.44979 2.01084,1.05833 2.80459,1.79916 0.79375,0.7673 1.42875,1.66688 1.87854,2.69875 0.44979,1.03188 0.68791,2.11667 0.68791,3.3073 0,1.19062 -0.21166,2.27541 -0.68791,3.30729 z m 11.21833,-7.91104 h -3.38667 v 13.09687 h -4.04812 v -13.09687 h -3.33375 v -3.88938 h 10.74208 v 3.88938 z m 14.57854,13.12333 h -4.04812 v -6.40292 h -5.05354 v 6.40292 h -4.04813 v -16.93333 h 4.04813 v 6.64104 h 5.05354 v -6.64104 h 4.04812 z m -30.50646,-11.72104 c -0.42333,-0.42334 -0.92604,-0.74084 -1.50812,-0.97896 -0.58208,-0.23813 -1.19063,-0.34396 -1.85208,-0.34396 -0.66146,0 -1.27,0.10583 -1.82563,0.34396 -0.58208,0.23812 -1.08479,0.55562 -1.50812,0.97896 -0.42334,0.42333 -0.7673,0.89958 -1.00542,1.45521 -0.23813,0.55562 -0.37042,1.1377 -0.37042,1.7727 0,0.635 0.13229,1.21709 0.37042,1.77271 0.23812,0.55563 0.58208,1.03188 1.00542,1.45521 0.42333,0.42333 0.92604,0.74083 1.50812,0.97896 0.58208,0.23812 1.19063,0.34396 1.82563,0.34396 0.66145,0 1.27,-0.13229 1.85208,-0.34396 0.58208,-0.23813 1.08479,-0.55563 1.50812,-0.97896 0.42334,-0.42333 0.7673,-0.89958 1.00542,-1.45521 0.23813,-0.55562 0.37042,-1.13771 0.37042,-1.77271 0,-0.635 -0.13229,-1.21708 -0.37042,-1.7727 -0.23812,-0.55563 -0.58208,-1.05834 -1.00542,-1.45521 z m -61.43625,5.76791 h 2.83105 l -1.37584,-4.10104 z m 62.44167,-4.33916 c -0.23812,-0.55563 -0.58208,-1.03188 -1.00542,-1.45521 -0.42333,-0.42333 -0.92604,-0.74083 -1.50812,-0.97896 -0.58208,-0.23812 -1.19063,-0.34396 -1.85208,-0.34396 -0.66146,0 -1.27,0.10584 -1.82563,0.34396 -0.58208,0.23813 -1.08479,0.55563 -1.50812,0.97896 -0.42334,0.42333 -0.7673,0.89958 -1.00542,1.45521 -0.23813,0.55562 -0.37042,1.13771 -0.37042,1.77271 0,0.635 0.13229,1.21708 0.37042,1.7727 0.23812,0.55563 0.58208,1.03188 1.00542,1.45521 0.42333,0.42334 0.92604,0.74084 1.50812,0.97896 0.58208,0.23813 1.19063,0.34396 1.82563,0.34396 0.66145,0 1.27,-0.13229 1.85208,-0.34396 0.58208,-0.23812 1.08479,-0.55562 1.50812,-0.97896 0.42334,-0.42333 0.7673,-0.89958 1.00542,-1.45521 0.23813,-0.55562 0.37042,-1.1377 0.37042,-1.7727 0,-0.60855 -0.13229,-1.21709 -0.37042,-1.77271 z m 0,0 c -0.23812,-0.55563 -0.58208,-1.03188 -1.00542,-1.45521 -0.42333,-0.42333 -0.92604,-0.74083 -1.50812,-0.97896 -0.58208,-0.23812 -1.19063,-0.34396 -1.85208,-0.34396 -0.66146,0 -1.27,0.10584 -1.82563,0.34396 -0.58208,0.23813 -1.08479,0.55563 -1.50812,0.97896 -0.42334,0.42333 -0.7673,0.89958 -1.00542,1.45521 -0.23813,0.55562 -0.37042,1.13771 -0.37042,1.77271 0,0.635 0.13229,1.21708 0.37042,1.7727 0.23812,0.55563 0.58208,1.03188 1.00542,1.45521 0.42333,0.42334 0.92604,0.74084 1.50812,0.97896 0.58208,0.23813 1.19063,0.34396 1.82563,0.34396 0.66145,0 1.27,-0.13229 1.85208,-0.34396 0.58208,-0.23812 1.08479,-0.55562 1.50812,-0.97896 0.42334,-0.42333 0.7673,-0.89958 1.00542,-1.45521 0.23813,-0.55562 0.37042,-1.1377 0.37042,-1.7727 0,-0.60855 -0.13229,-1.21709 -0.37042,-1.77271 z m 0,0 c -0.23812,-0.55563 -0.58208,-1.03188 -1.00542,-1.45521 -0.42333,-0.42333 -0.92604,-0.74083 -1.50812,-0.97896 -0.58208,-0.23812 -1.19063,-0.34396 -1.85208,-0.34396 -0.66146,0 -1.27,0.10584 -1.82563,0.34396 -0.58208,0.23813 -1.08479,0.55563 -1.50812,0.97896 -0.42334,0.42333 -0.7673,0.89958 -1.00542,1.45521 -0.23813,0.55562 -0.37042,1.13771 -0.37042,1.77271 0,0.635 0.13229,1.21708 0.37042,1.7727 0.23812,0.55563 0.58208,1.03188 1.00542,1.45521 0.42333,0.42334 0.92604,0.74084 1.50812,0.97896 0.58208,0.23813 1.19063,0.34396 1.82563,0.34396 0.66145,0 1.27,-0.13229 1.85208,-0.34396 0.58208,-0.23812 1.08479,-0.55562 1.50812,-0.97896 0.42334,-0.42333 0.7673,-0.89958 1.00542,-1.45521 0.23813,-0.55562 0.37042,-1.1377 0.37042,-1.7727 0,-0.60855 -0.13229,-1.21709 -0.37042,-1.77271 z m 0,0 c -0.23812,-0.55563 -0.58208,-1.03188 -1.00542,-1.45521 -0.42333,-0.42333 -0.92604,-0.74083 -1.50812,-0.97896 -0.58208,-0.23812 -1.19063,-0.34396 -1.85208,-0.34396 -0.66146,0 -1.27,0.10584 -1.82563,0.34396 -0.58208,0.23813 -1.08479,0.55563 -1.50812,0.97896 -0.42334,0.42333 -0.7673,0.89958 -1.00542,1.45521 -0.23813,0.55562 -0.37042,1.13771 -0.37042,1.77271 0,0.635 0.13229,1.21708 0.37042,1.7727 0.23812,0.55563 0.58208,1.03188 1.00542,1.45521 0.42333,0.42334 0.92604,0.74084 1.50812,0.97896 0.58208,0.23813 1.19063,0.34396 1.82563,0.34396 0.66145,0 1.27,-0.13229 1.85208,-0.34396 0.58208,-0.23812 1.08479,-0.55562 1.50812,-0.97896 0.42334,-0.42333 0.7673,-0.89958 1.00542,-1.45521 0.23813,-0.55562 0.37042,-1.1377 0.37042,-1.7727 0,-0.60855 -0.13229,-1.21709 -0.37042,-1.77271 z"
       id="path56"
       style="stroke-width:0.264583"
       clip-path="url(#clipPath4178)" />
    <g
       id="g57"
       transform="matrix(0.26458333,0,0,0.26458333,317.61223,67.294417)"
       clip-path="url(#clipPath4174)">
	<path
   class="st0"
   d="m 2372.8,-26.1 c -11.6,-46.2 -53.1,-80.6 -102.8,-81.3 V -97 c 14.6,3.2 25.6,16.3 25.6,31.9 0,15.6 -11,28.7 -25.6,31.9 V 4.9 c 0,34.9 -28,63.4 -62.4,63.4 -1.1,0 -2.3,0 -3.4,-0.1 -13.5,-0.8 -26.3,-5.9 -36.4,-14.4 l -7.1,-5.7 V 63 c 0,36.3 17.9,68.3 45.3,87.8 v 92.7 c 0,15 12.2,27.1 27.1,27.1 h 14 c 15,0 27.1,-12.2 27.1,-27.1 V 197 h 115 v 46.5 c 0,15 12.2,27.1 27.1,27.1 h 14 c 15,0 27.1,-12.2 27.1,-34.1 v -155 c 0.1,-47 -35.5,-92.6 -84.6,-107.6 z m -54.6,199 c -0.7,0.7 -1.6,1 -2.5,1 -0.9,0 -1.8,-0.3 -2.5,-1 l -28.1,-28.1 c -1.4,-1.4 -1.4,-3.6 0,-5 1.4,-1.4 3.6,-1.4 5,0 l 28.1,28.1 c 1.4,1.3 1.4,3.6 0,5 z m 28.1,0 c -0.7,0.7 -1.6,1 -2.5,1 -0.9,0 -1.8,-0.3 -2.5,-1 l -28.1,-28.1 c -1.4,-1.4 -1.4,-3.6 0,-5 1.4,-1.4 3.6,-1.4 5,0 l 28.1,28.1 c 1.4,1.3 1.4,3.6 0,5 z m 28.2,0 c -0.7,0.7 -1.6,1 -2.5,1 -0.9,0 -1.8,-0.3 -2.5,-1 l -28.2,-28.1 c -1.4,-1.4 -1.4,-3.6 0,-5 1.4,-1.4 3.6,-1.4 5,0 l 28.1,28.1 c 1.4,1.3 1.4,3.6 0.1,5 z"
   id="path57" />

</g>
    <g
       id="g58"
       transform="matrix(0.26458333,0,0,0.26458333,317.61223,67.294417)"
       clip-path="url(#clipPath4170)">
	<path
   class="st0"
   d="m 2140.8,99.3 c 3.7,3.7 5.5,8.5 5.5,13.3 0,4.8 -1.8,9.6 -5.5,13.3 -7.3,7.3 -19.2,7.3 -26.6,0 l -32,-32 c -6,-6 -10.9,-12.7 -14.6,-19.9 l 51.9,4 z"
   id="path58" />

</g>
    <path
       class="st0"
       d="m 901.70638,83.486916 c -0.42333,0 -0.84666,-0.0265 -1.24354,-0.0529 v 0 c 0.13229,0 0.29104,0.0265 0.42333,0.0265 0.29105,0.0265 0.55563,0.0265 0.82021,0.0265 0.13229,0 0.29104,0 0.42333,0 0.1323,0 0.26459,0 0.39688,-0.0265 0.0794,0 0.18521,0 0.26458,-0.0265 0.0794,0 0.18521,-0.0265 0.29104,-0.0265 0.10584,0 0.21167,-0.0265 0.34396,-0.0265 -0.55562,0.0529 -1.13771,0.10583 -1.71979,0.10583 z m -3.06916,-0.3175 v 0 c -0.0794,-0.0265 -0.15875,-0.0265 -0.21167,-0.0529 0.0529,0 0.13229,0.0265 0.21167,0.0529 z m -0.82021,-0.21167 c 0.10583,0.0265 0.18521,0.0529 0.29104,0.0794 0.10583,0.0265 0.21167,0.0529 0.3175,0.0794 -0.23813,-0.0529 -0.47625,-0.10583 -0.68792,-0.1852 0.0265,0 0.0529,0.0265 0.0794,0.0265 z m -0.89959,-0.29104 c 0.0265,0 0.0794,0.0265 0.1323,0.0265 -0.10584,-0.0265 -0.23813,-0.0794 -0.34396,-0.13229 0.0529,0.0529 0.13229,0.0794 0.21166,0.10583 z m -0.39687,-0.13229 c 0.0529,0.0265 0.10583,0.0529 0.18521,0.0529 -0.10584,-0.0265 -0.21167,-0.0794 -0.3175,-0.10583 0.0265,0.0265 0.0794,0.0265 0.13229,0.0529 z m -0.89958,-0.37042 c 0.0265,0 0.0529,0.0265 0.0794,0.0265 -0.10584,-0.0529 -0.21167,-0.10583 -0.3175,-0.15875 0.0794,0.0529 0.15875,0.0794 0.23812,0.1323 z m -0.3175,-0.15875 c 0.0265,0 0.0529,0.0265 0.0794,0.0265 -0.0529,-0.0265 -0.1323,-0.0529 -0.18521,-0.0794 0.0265,0.0265 0.0794,0.0265 0.10583,0.0529 z"
       id="path59"
       style="stroke-width:0.264583"
       clip-path="url(#clipPath4166)" />
    <path
       class="st0"
       d="m 916.33784,43.29671 v -6.932083 c 0,-3.915833 -3.175,-7.090833 -7.09083,-7.090833 h -1.42875 v 10.900833 c 0,0.555625 -0.50271,1.005417 -1.11125,0.899583 -0.42334,-0.07937 -0.74084,-0.47625 -0.74084,-0.926041 V 29.273794 h -6.24416 v 10.927291 c 0,0.502709 -0.42334,0.926042 -0.92604,0.926042 -0.50271,0 -0.92605,-0.423333 -0.92605,-0.926042 V 29.273794 h -1.82562 c -3.91583,0 -7.09083,3.175 -7.09083,7.090833 v 4.7625 l -20.4523,20.45229 c -4.89479,4.894792 -6.93208,11.509379 -6.16479,17.885829 h 13.04396 c 0.44979,-2.24895 1.77271,-4.33916 3.91583,-5.68854 l 0.74083,-0.47625 v 4.47146 c 0,1.95792 -1.5875,3.57188 -3.57187,3.57188 h -20.955 c -0.92604,0 -1.66687,0.74083 -1.66687,1.66687 0,0.87313 0.68791,1.61396 1.56104,1.66688 l 23.52145,1.37583 c 4.445,0.34396 8.255,-3.175 8.255,-7.64646 v -8.334374 c 0,0.05292 0,0.132292 0.0265,0.185209 0,0.02646 0,0.05292 0,0.07937 0,0.05292 0,0.132295 0.0265,0.185205 0,0.10584 0.0265,0.21167 0.0529,0.34396 0,0.0794 0.0265,0.15875 0.0265,0.21167 0.0529,0.29104 0.10584,0.58208 0.15876,0.84666 0.0265,0.15875 0.0794,0.3175 0.10583,0.47625 0,0 0,0 0,0.0265 0.13229,0.47625 0.26458,0.9525 0.44979,1.42875 0,0 0,0 0,0.0265 0.0529,0.1323 0.10583,0.29105 0.15875,0.42334 0,0.0265 0.0265,0.0529 0.0265,0.0794 0.0529,0.13229 0.10584,0.26458 0.18521,0.42333 0.0794,0.15875 0.13229,0.26458 0.18521,0.39688 0.0265,0.0265 0.0265,0.0794 0.0529,0.10583 0.0529,0.13229 0.13229,0.23812 0.18521,0.37042 0,0 0,0.0265 0.0265,0.0265 0.0794,0.13229 0.15875,0.29104 0.23812,0.42333 0.0529,0.10583 0.13229,0.21167 0.18521,0.3175 0.0265,0.0529 0.0529,0.0794 0.0794,0.13229 0.0794,0.10584 0.13229,0.23813 0.21167,0.34396 0.0794,0.13229 0.15875,0.23813 0.23812,0.34396 0.0794,0.10583 0.13229,0.18521 0.21167,0.29104 0.0529,0.0529 0.10583,0.13229 0.13229,0.18521 0.0794,0.10583 0.15875,0.21167 0.23813,0.29104 0.0529,0.0794 0.13229,0.15875 0.1852,0.21167 0.1323,0.15875 0.29105,0.3175 0.42334,0.47625 0.0794,0.0794 0.15875,0.15875 0.21166,0.23812 0.0265,0.0265 0.0529,0.0529 0.0794,0.0794 0.635,0.635 1.29646,1.21709 2.0373,1.74625 0.0794,0.0529 0.15875,0.13229 0.26458,0.18521 0.10583,0.0794 0.21167,0.13229 0.29104,0.21167 0.37042,0.23812 0.74083,0.44979 1.11125,0.66146 0.0794,0.0529 0.15875,0.0794 0.23813,0.13229 0.0529,0.0265 0.13229,0.0529 0.1852,0.0794 0.10584,0.0529 0.21167,0.10583 0.3175,0.15875 0.21167,0.10583 0.4498,0.18521 0.68792,0.29104 0.10583,0.0265 0.21167,0.0794 0.3175,0.10583 0.10583,0.0529 0.23813,0.0794 0.34396,0.13229 0.23812,0.0794 0.44979,0.15875 0.68792,0.21167 0.0529,0.0265 0.13229,0.0265 0.1852,0.0529 v -10.23937 c 0,-0.50271 0.42334,-0.92605 0.92605,-0.92605 0.5027,0 0.92604,0.42334 0.92604,0.92605 v 10.58333 c 0.23812,0.0265 0.47625,0.0529 0.74083,0.0794 0.42333,0.0265 0.82021,0.0529 1.24354,0.0529 0.58208,0 1.13771,-0.0265 1.69333,-0.10583 0,0 0.0265,0 0.0265,0 0.18521,-0.0265 0.37042,-0.0529 0.55563,-0.0794 0.10583,-0.0265 0.21167,-0.0265 0.3175,-0.0529 0.0265,0 0.0265,0 0.0529,0 0.0265,0 0.0265,0 0.0529,0 0.52917,-0.10584 1.05833,-0.23813 1.56104,-0.39688 v -10.05416 c 0,-0.4498 0.29104,-0.84667 0.74083,-0.92605 0.58209,-0.10583 1.11125,0.34396 1.11125,0.89959 v 9.36625 c 4.92125,-2.27542 8.3873,-7.19667 8.51959,-12.938128 0,-0.02646 0,-0.02646 0,-0.05292 0,-0.05292 0,-0.105834 0,-0.15875 0,-0.132292 0,-0.291042 0,-0.423334 V 56.816905 c 3.73062,0 6.77333,-3.042709 6.77333,-6.773334 -0.0794,-3.704166 -3.09562,-6.746874 -6.85271,-6.746874 z m -18.49437,15.187083 c -1.50813,0 -2.77813,-1.031875 -3.12209,-2.434167 -0.0529,-0.238125 -0.0794,-0.502708 -0.0794,-0.767292 0,-1.772708 1.42875,-3.201458 3.20146,-3.201458 1.42875,0 2.61938,0.926042 3.04271,2.196042 0.10583,0.3175 0.15875,0.661458 0.15875,1.005416 0,1.74625 -1.45521,3.201459 -3.20146,3.201459 z m 18.49437,-5.132917 v -6.561667 c 1.79917,0 3.28083,1.455209 3.28083,3.280834 0,1.825625 -1.45521,3.280833 -3.28083,3.280833 z"
       id="path60"
       style="stroke-width:0.264583"
       clip-path="url(#clipPath4162)" />
    <path
       class="st0"
       d="m 887.26013,71.077956 c 0.0529,0.29104 0.10584,0.58209 0.15875,0.84667 -0.0529,-0.26458 -0.10583,-0.55563 -0.15875,-0.84667 z"
       id="path61"
       style="stroke-width:0.264583"
       clip-path="url(#clipPath4158)" />
    <path
       class="st0"
       d="m 887.55117,72.453796 c 0.1323,0.47625 0.26459,0.9525 0.4498,1.42875 -0.18521,-0.47625 -0.34396,-0.9525 -0.4498,-1.42875 z"
       id="path62"
       style="stroke-width:0.264583"
       clip-path="url(#clipPath4154)" />
    <path
       class="st0"
       d="m 889.74722,77.269206 c 0.10583,0.15875 0.23812,0.3175 0.34395,0.47625 -0.0529,-0.0529 -0.10583,-0.13229 -0.13229,-0.18521 -0.0529,-0.10583 -0.13229,-0.21166 -0.21166,-0.29104 z"
       id="path63"
       style="stroke-width:0.264583"
       clip-path="url(#clipPath4150)" />
    <path
       class="st0"
       d="m 891.17597,78.988996 c 0.0265,0.0265 0.0529,0.0529 0.0794,0.0794 -0.10584,-0.10583 -0.18521,-0.21166 -0.29105,-0.3175 0.0529,0.0794 0.1323,0.15875 0.21167,0.23813 z"
       id="path64"
       style="stroke-width:0.264583"
       clip-path="url(#clipPath4146)" />
    <path
       class="st0"
       d="m 893.29263,80.788166 c 0.18521,0.13229 0.37042,0.26458 0.55563,0.37042 -0.10584,-0.0794 -0.21167,-0.13229 -0.29104,-0.21167 -0.10584,-0.0265 -0.18521,-0.0794 -0.26459,-0.15875 z"
       id="path65"
       style="stroke-width:0.264583"
       clip-path="url(#clipPath4142)" />
    <g
       id="g84"
       transform="matrix(0.26458333,0,0,0.26458333,317.61223,67.294417)"
       clip-path="url(#clipPath4138)">
	<path
   class="st1"
   d="m 2435.8,333.5 c -6.4,-4.6 -11,-11 -13.5,-18.5 l -0.1,-0.5 h -0.6 l 0.1,0.5 c 2.4,7.5 7.1,13.9 13.5,18.5 6.4,4.6 13.9,7.1 21.8,7.1 h 0.5 c -7.8,-0.1 -15.4,-2.5 -21.7,-7.1 z"
   id="path84" />

</g>
    <path
       class="st0"
       d="m 843.94784,150.13545 v 36.40667 h -94.74729 v -18.70604 h -0.0529 v -16.61584 c 0.52917,3.51896 3.54542,6.19125 7.19667,6.19125 4.02166,0 7.27604,-3.25437 7.27604,-7.27604 0,-4.02167 -3.25438,-7.27604 -7.27604,-7.27604 -3.94229,0 -1.87855,-4.60375 4.60375,-4.60375 6.56166,0 11.87979,5.31812 11.87979,11.87979 v 1.08479 c 0.52916,3.51896 3.54541,6.19125 7.19666,6.19125 4.02167,0 7.27605,-3.25437 7.27605,-7.27604 0,-4.02167 -3.25438,-7.27604 -7.27605,-7.27604 -3.94229,0 -1.87854,-4.60375 4.60375,-4.60375 6.56167,0 11.8798,5.31812 11.8798,11.87979 v 1.08479 c 0.52916,3.51896 3.54541,6.19125 7.19666,6.19125 4.02167,0 7.27604,-3.25437 7.27604,-7.27604 0,-4.02167 -3.25437,-7.27604 -7.27604,-7.27604 -3.94229,0 -1.87854,-4.60375 4.60375,-4.60375 6.56167,0 11.87979,5.31812 11.87979,11.87979 v 1.08479 c 0.52917,3.51896 3.54542,6.19125 7.19667,6.19125 4.02167,0 7.27604,-3.25437 7.27604,-7.27604 0,-4.02167 -3.25437,-7.27604 -7.27604,-7.27604 -3.94229,0 -1.87854,-4.60375 4.60375,-4.60375 6.64104,-0.0265 11.95917,5.31812 11.95917,11.87979 z"
       id="path52-5"
       style="fill:#ffffff;fill-opacity:1;stroke-width:0.264583"
       clip-path="url(#clipPath4134)" />
    <path
       class="st0"
       d="m 772.90721,150.13545 v 36.40667 h -94.74729 v -18.70604 h -0.0529 v -16.61584 c 0.52917,3.51896 3.54542,6.19125 7.19667,6.19125 4.02166,0 7.27604,-3.25437 7.27604,-7.27604 0,-4.02167 -3.25438,-7.27604 -7.27604,-7.27604 -3.94229,0 -1.87855,-4.60375 4.60375,-4.60375 6.56166,0 11.87979,5.31812 11.87979,11.87979 v 1.08479 c 0.52916,3.51896 3.54541,6.19125 7.19666,6.19125 4.02167,0 7.27605,-3.25437 7.27605,-7.27604 0,-4.02167 -3.25438,-7.27604 -7.27605,-7.27604 -3.94229,0 -1.87854,-4.60375 4.60375,-4.60375 6.56167,0 11.8798,5.31812 11.8798,11.87979 v 1.08479 c 0.52916,3.51896 3.54541,6.19125 7.19666,6.19125 4.02167,0 7.27604,-3.25437 7.27604,-7.27604 0,-4.02167 -3.25437,-7.27604 -7.27604,-7.27604 -3.94229,0 -1.87854,-4.60375 4.60375,-4.60375 6.56167,0 11.87979,5.31812 11.87979,11.87979 v 1.08479 c 0.52917,3.51896 3.54542,6.19125 7.19667,6.19125 4.02167,0 7.27604,-3.25437 7.27604,-7.27604 0,-4.02167 -3.25437,-7.27604 -7.27604,-7.27604 -3.94229,0 -1.87854,-4.60375 4.60375,-4.60375 6.64104,-0.0265 11.95917,5.31812 11.95917,11.87979 z"
       id="path52-5-5"
       style="fill:#ffffff;fill-opacity:1;stroke-width:0.264583"
       clip-path="url(#clipPath4130)" />
    <path
       class="st0"
       d="m 701.86659,150.13545 v 36.40667 H 607.1193 v -18.70604 h -0.0529 v -16.61584 c 0.52918,3.51896 3.54543,6.19125 7.19668,6.19125 4.02166,0 7.27603,-3.25437 7.27603,-7.27604 0,-4.02167 -3.25437,-7.27604 -7.27603,-7.27604 -3.94229,0 -1.87855,-4.60375 4.60375,-4.60375 6.56165,0 11.87978,5.31812 11.87978,11.87979 v 1.08479 c 0.52917,3.51896 3.54541,6.19125 7.19666,6.19125 4.02167,0 7.27605,-3.25437 7.27605,-7.27604 0,-4.02167 -3.25437,-7.27604 -7.27605,-7.27604 -3.94229,0 -1.87854,-4.60375 4.60375,-4.60375 6.56167,0 11.8798,5.31812 11.8798,11.87979 v 1.08479 c 0.52917,3.51896 3.54541,6.19125 7.19666,6.19125 4.02167,0 7.27604,-3.25437 7.27604,-7.27604 0,-4.02167 -3.25437,-7.27604 -7.27604,-7.27604 -3.94229,0 -1.87854,-4.60375 4.60375,-4.60375 6.56167,0 11.87979,5.31812 11.87979,11.87979 v 1.08479 c 0.52917,3.51896 3.54542,6.19125 7.19667,6.19125 4.02167,0 7.27604,-3.25437 7.27604,-7.27604 0,-4.02167 -3.25437,-7.27604 -7.27604,-7.27604 -3.94229,0 -1.87854,-4.60375 4.60375,-4.60375 6.64104,-0.0265 11.95917,5.31812 11.95917,11.87979 z"
       id="path52-5-5-4"
       style="fill:#ffffff;fill-opacity:1;stroke-width:0.264583"
       clip-path="url(#clipPath4126)" />
    <path
       class="st0"
       d="m 607.14576,150.13545 v 36.40667 h -94.74729 v -18.70604 h -0.0529 v -16.61584 c 0.52917,3.51896 3.54542,6.19125 7.19667,6.19125 4.02166,0 7.27604,-3.25437 7.27604,-7.27604 0,-4.02167 -3.25438,-7.27604 -7.27604,-7.27604 -3.94229,0 -1.87855,-4.60375 4.60375,-4.60375 6.56166,0 11.87979,5.31812 11.87979,11.87979 v 1.08479 c 0.52916,3.51896 3.54541,6.19125 7.19666,6.19125 4.02167,0 7.27605,-3.25437 7.27605,-7.27604 0,-4.02167 -3.25438,-7.27604 -7.27605,-7.27604 -3.94229,0 -1.87854,-4.60375 4.60375,-4.60375 6.56167,0 11.8798,5.31812 11.8798,11.87979 v 1.08479 c 0.52916,3.51896 3.54541,6.19125 7.19666,6.19125 4.02167,0 7.27604,-3.25437 7.27604,-7.27604 0,-4.02167 -3.25437,-7.27604 -7.27604,-7.27604 -3.94229,0 -1.87854,-4.60375 4.60375,-4.60375 6.56167,0 11.87979,5.31812 11.87979,11.87979 v 1.08479 c 0.52917,3.51896 3.54542,6.19125 7.19667,6.19125 4.02167,0 7.27604,-3.25437 7.27604,-7.27604 0,-4.02167 -3.25437,-7.27604 -7.27604,-7.27604 -3.94229,0 -1.87854,-4.60375 4.60375,-4.60375 6.64104,-0.0265 11.95917,5.31812 11.95917,11.87979 z"
       id="path52-8"
       style="fill:#ffffff;fill-opacity:1;stroke-width:0.264583"
       clip-path="url(#clipPath4122)" />
    <path
       class="st0"
       d="m 630.82597,150.13545 v 36.40667 h -94.74729 v -18.70604 h -0.0529 v -16.61584 c 0.52917,3.51896 3.54542,6.19125 7.19667,6.19125 4.02166,0 7.27604,-3.25437 7.27604,-7.27604 0,-4.02167 -3.25438,-7.27604 -7.27604,-7.27604 -3.94229,0 -1.87855,-4.60375 4.60375,-4.60375 6.56166,0 11.87979,5.31812 11.87979,11.87979 v 1.08479 c 0.52916,3.51896 3.54541,6.19125 7.19666,6.19125 4.02167,0 7.27605,-3.25437 7.27605,-7.27604 0,-4.02167 -3.25438,-7.27604 -7.27605,-7.27604 -3.94229,0 -1.87854,-4.60375 4.60375,-4.60375 6.56167,0 11.8798,5.31812 11.8798,11.87979 v 1.08479 c 0.52916,3.51896 3.54541,6.19125 7.19666,6.19125 4.02167,0 7.27604,-3.25437 7.27604,-7.27604 0,-4.02167 -3.25437,-7.27604 -7.27604,-7.27604 -3.94229,0 -1.87854,-4.60375 4.60375,-4.60375 6.56167,0 11.87979,5.31812 11.87979,11.87979 v 1.08479 c 0.52917,3.51896 3.54542,6.19125 7.19667,6.19125 4.02167,0 7.27604,-3.25437 7.27604,-7.27604 0,-4.02167 -3.25437,-7.27604 -7.27604,-7.27604 -3.94229,0 -1.87854,-4.60375 4.60375,-4.60375 6.64104,-0.0265 11.95917,5.31812 11.95917,11.87979 z"
       id="path52-5-3"
       style="fill:#ffffff;fill-opacity:1;stroke-width:0.264583"
       clip-path="url(#clipPath4118)" />
    <path
       class="st0"
       d="m 559.78534,150.13545 v 36.40667 h -94.74729 v -18.70604 h -0.0529 v -16.61584 c 0.52917,3.51896 3.54542,6.19125 7.19667,6.19125 4.02166,0 7.27604,-3.25437 7.27604,-7.27604 0,-4.02167 -3.25438,-7.27604 -7.27604,-7.27604 -3.94229,0 -1.87855,-4.60375 4.60375,-4.60375 6.56166,0 11.87979,5.31812 11.87979,11.87979 v 1.08479 c 0.52916,3.51896 3.54541,6.19125 7.19666,6.19125 4.02167,0 7.27605,-3.25437 7.27605,-7.27604 0,-4.02167 -3.25438,-7.27604 -7.27605,-7.27604 -3.94229,0 -1.87854,-4.60375 4.60375,-4.60375 6.56167,0 11.8798,5.31812 11.8798,11.87979 v 1.08479 c 0.52916,3.51896 3.54541,6.19125 7.19666,6.19125 4.02167,0 7.27604,-3.25437 7.27604,-7.27604 0,-4.02167 -3.25437,-7.27604 -7.27604,-7.27604 -3.94229,0 -1.87854,-4.60375 4.60375,-4.60375 6.56167,0 11.87979,5.31812 11.87979,11.87979 v 1.08479 c 0.52917,3.51896 3.54542,6.19125 7.19667,6.19125 4.02167,0 7.27604,-3.25437 7.27604,-7.27604 0,-4.02167 -3.25437,-7.27604 -7.27604,-7.27604 -3.94229,0 -1.87854,-4.60375 4.60375,-4.60375 6.64104,-0.0265 11.95917,5.31812 11.95917,11.87979 z"
       id="path52-5-5-5"
       style="fill:#ffffff;fill-opacity:1;stroke-width:0.264583"
       clip-path="url(#clipPath4114)" />
    <path
       class="st0"
       d="m 488.74472,150.13545 v 36.40667 h -94.74729 v -18.70604 h -0.0529 v -16.61584 c 0.52918,3.51896 3.54543,6.19125 7.19668,6.19125 4.02166,0 7.27603,-3.25437 7.27603,-7.27604 0,-4.02167 -3.25437,-7.27604 -7.27603,-7.27604 -3.94229,0 -1.87855,-4.60375 4.60375,-4.60375 6.56165,0 11.87978,5.31812 11.87978,11.87979 v 1.08479 c 0.52917,3.51896 3.54541,6.19125 7.19666,6.19125 4.02167,0 7.27605,-3.25437 7.27605,-7.27604 0,-4.02167 -3.25437,-7.27604 -7.27605,-7.27604 -3.94229,0 -1.87854,-4.60375 4.60375,-4.60375 6.56167,0 11.8798,5.31812 11.8798,11.87979 v 1.08479 c 0.52917,3.51896 3.54541,6.19125 7.19666,6.19125 4.02167,0 7.27604,-3.25437 7.27604,-7.27604 0,-4.02167 -3.25437,-7.27604 -7.27604,-7.27604 -3.94229,0 -1.87854,-4.60375 4.60375,-4.60375 6.56167,0 11.87979,5.31812 11.87979,11.87979 v 1.08479 c 0.52917,3.51896 3.54542,6.19125 7.19667,6.19125 4.02167,0 7.27604,-3.25437 7.27604,-7.27604 0,-4.02167 -3.25437,-7.27604 -7.27604,-7.27604 -3.94229,0 -1.87854,-4.60375 4.60375,-4.60375 6.64104,-0.0265 11.95917,5.31812 11.95917,11.87979 z"
       id="path52-5-5-4-1"
       style="fill:#ffffff;fill-opacity:1;stroke-width:0.264583"
       clip-path="url(#clipPath4110)" />
    <path
       class="st0"
       d="m 393.99743,150.13545 v 36.40667 h -94.74729 v -18.70604 h -0.0529 v -16.61584 c 0.52917,3.51896 3.54542,6.19125 7.19667,6.19125 4.02166,0 7.27604,-3.25437 7.27604,-7.27604 0,-4.02167 -3.25438,-7.27604 -7.27604,-7.27604 -3.94229,0 -1.87855,-4.60375 4.60375,-4.60375 6.56166,0 11.87979,5.31812 11.87979,11.87979 v 1.08479 c 0.52916,3.51896 3.54541,6.19125 7.19666,6.19125 4.02167,0 7.27605,-3.25437 7.27605,-7.27604 0,-4.02167 -3.25438,-7.27604 -7.27605,-7.27604 -3.94229,0 -1.87854,-4.60375 4.60375,-4.60375 6.56167,0 11.8798,5.31812 11.8798,11.87979 v 1.08479 c 0.52916,3.51896 3.54541,6.19125 7.19666,6.19125 4.02167,0 7.27604,-3.25437 7.27604,-7.27604 0,-4.02167 -3.25437,-7.27604 -7.27604,-7.27604 -3.94229,0 -1.87854,-4.60375 4.60375,-4.60375 6.56167,0 11.87979,5.31812 11.87979,11.87979 v 1.08479 c 0.52917,3.51896 3.54542,6.19125 7.19667,6.19125 4.02167,0 7.27604,-3.25437 7.27604,-7.27604 0,-4.02167 -3.25437,-7.27604 -7.27604,-7.27604 -3.94229,0 -1.87854,-4.60375 4.60375,-4.60375 6.64104,-0.0265 11.95917,5.31812 11.95917,11.87979 z"
       id="path52-1"
       style="fill:#ffffff;fill-opacity:1;stroke-width:0.264583"
       clip-path="url(#clipPath4106)" />
    <path
       class="st0"
       d="m 417.67764,150.13545 v 36.40667 h -94.74729 v -18.70604 h -0.0529 v -16.61584 c 0.52917,3.51896 3.54542,6.19125 7.19667,6.19125 4.02166,0 7.27604,-3.25437 7.27604,-7.27604 0,-4.02167 -3.25438,-7.27604 -7.27604,-7.27604 -3.94229,0 -1.87855,-4.60375 4.60375,-4.60375 6.56166,0 11.87979,5.31812 11.87979,11.87979 v 1.08479 c 0.52916,3.51896 3.54541,6.19125 7.19666,6.19125 4.02167,0 7.27605,-3.25437 7.27605,-7.27604 0,-4.02167 -3.25438,-7.27604 -7.27605,-7.27604 -3.94229,0 -1.87854,-4.60375 4.60375,-4.60375 6.56167,0 11.8798,5.31812 11.8798,11.87979 v 1.08479 c 0.52916,3.51896 3.54541,6.19125 7.19666,6.19125 4.02167,0 7.27604,-3.25437 7.27604,-7.27604 0,-4.02167 -3.25437,-7.27604 -7.27604,-7.27604 -3.94229,0 -1.87854,-4.60375 4.60375,-4.60375 6.56167,0 11.87979,5.31812 11.87979,11.87979 v 1.08479 c 0.52917,3.51896 3.54542,6.19125 7.19667,6.19125 4.02167,0 7.27604,-3.25437 7.27604,-7.27604 0,-4.02167 -3.25437,-7.27604 -7.27604,-7.27604 -3.94229,0 -1.87854,-4.60375 4.60375,-4.60375 6.64104,-0.0265 11.95917,5.31812 11.95917,11.87979 z"
       id="path52-5-7"
       style="fill:#ffffff;fill-opacity:1;stroke-width:0.264583"
       clip-path="url(#clipPath4102)" />
    <path
       class="st0"
       d="m 346.63701,150.13545 v 36.40667 h -94.74729 v -18.70604 h -0.0529 v -16.61584 c 0.52917,3.51896 3.54542,6.19125 7.19667,6.19125 4.02166,0 7.27604,-3.25437 7.27604,-7.27604 0,-4.02167 -3.25438,-7.27604 -7.27604,-7.27604 -3.94229,0 -1.87855,-4.60375 4.60375,-4.60375 6.56166,0 11.87979,5.31812 11.87979,11.87979 v 1.08479 c 0.52916,3.51896 3.54541,6.19125 7.19666,6.19125 4.02167,0 7.27605,-3.25437 7.27605,-7.27604 0,-4.02167 -3.25438,-7.27604 -7.27605,-7.27604 -3.94229,0 -1.87854,-4.60375 4.60375,-4.60375 6.56167,0 11.8798,5.31812 11.8798,11.87979 v 1.08479 c 0.52916,3.51896 3.54541,6.19125 7.19666,6.19125 4.02167,0 7.27604,-3.25437 7.27604,-7.27604 0,-4.02167 -3.25437,-7.27604 -7.27604,-7.27604 -3.94229,0 -1.87854,-4.60375 4.60375,-4.60375 6.56167,0 11.87979,5.31812 11.87979,11.87979 v 1.08479 c 0.52917,3.51896 3.54542,6.19125 7.19667,6.19125 4.02167,0 7.27604,-3.25437 7.27604,-7.27604 0,-4.02167 -3.25437,-7.27604 -7.27604,-7.27604 -3.94229,0 -1.87854,-4.60375 4.60375,-4.60375 6.64104,-0.0265 11.95917,5.31812 11.95917,11.87979 z"
       id="path52-5-5-0"
       style="fill:#ffffff;fill-opacity:1;stroke-width:0.264583"
       clip-path="url(#clipPath4098)" />
    <path
       class="st0"
       d="m 275.59639,150.13545 v 36.40667 H 180.8491 v -18.70604 h -0.0529 v -16.61584 c 0.52918,3.51896 3.54543,6.19125 7.19668,6.19125 4.02166,0 7.27603,-3.25437 7.27603,-7.27604 0,-4.02167 -3.25437,-7.27604 -7.27603,-7.27604 -3.94229,0 -1.87855,-4.60375 4.60375,-4.60375 6.56165,0 11.87978,5.31812 11.87978,11.87979 v 1.08479 c 0.52917,3.51896 3.54541,6.19125 7.19666,6.19125 4.02167,0 7.27605,-3.25437 7.27605,-7.27604 0,-4.02167 -3.25437,-7.27604 -7.27605,-7.27604 -3.94229,0 -1.87854,-4.60375 4.60375,-4.60375 6.56167,0 11.8798,5.31812 11.8798,11.87979 v 1.08479 c 0.52917,3.51896 3.54541,6.19125 7.19666,6.19125 4.02167,0 7.27604,-3.25437 7.27604,-7.27604 0,-4.02167 -3.25437,-7.27604 -7.27604,-7.27604 -3.94229,0 -1.87854,-4.60375 4.60375,-4.60375 6.56167,0 11.87979,5.31812 11.87979,11.87979 v 1.08479 c 0.52917,3.51896 3.54542,6.19125 7.19667,6.19125 4.02167,0 7.27604,-3.25437 7.27604,-7.27604 0,-4.02167 -3.25437,-7.27604 -7.27604,-7.27604 -3.94229,0 -1.87854,-4.60375 4.60375,-4.60375 6.64104,-0.0265 11.95917,5.31812 11.95917,11.87979 z"
       id="path52-5-5-4-13"
       style="fill:#ffffff;fill-opacity:1;stroke-width:0.264583"
       clip-path="url(#clipPath4094)" />
    <path
       class="st0"
       d="m 180.8491,150.13545 v 36.40667 H 86.101807 v -18.70604 h -0.0529 v -16.61584 c 0.52917,3.51896 3.54542,6.19125 7.19667,6.19125 4.02166,0 7.276043,-3.25437 7.276043,-7.27604 0,-4.02167 -3.254383,-7.27604 -7.276043,-7.27604 -3.94229,0 -1.87855,-4.60375 4.60375,-4.60375 6.561663,0 11.879793,5.31812 11.879793,11.87979 v 1.08479 c 0.52916,3.51896 3.54541,6.19125 7.19666,6.19125 4.02167,0 7.27605,-3.25437 7.27605,-7.27604 0,-4.02167 -3.25438,-7.27604 -7.27605,-7.27604 -3.94229,0 -1.87854,-4.60375 4.60375,-4.60375 6.56167,0 11.8798,5.31812 11.8798,11.87979 v 1.08479 c 0.52916,3.51896 3.54541,6.19125 7.19666,6.19125 4.02167,0 7.27604,-3.25437 7.27604,-7.27604 0,-4.02167 -3.25437,-7.27604 -7.27604,-7.27604 -3.94229,0 -1.87854,-4.60375 4.60375,-4.60375 6.56167,0 11.87979,5.31812 11.87979,11.87979 v 1.08479 c 0.52917,3.51896 3.54542,6.19125 7.19667,6.19125 4.02167,0 7.27604,-3.25437 7.27604,-7.27604 0,-4.02167 -3.25437,-7.27604 -7.27604,-7.27604 -3.94229,0 -1.87854,-4.60375 4.60375,-4.60375 6.64104,-0.0265 11.95917,5.31812 11.95917,11.87979 z"
       id="path52-81"
       style="fill:#ffffff;fill-opacity:1;stroke-width:0.264583"
       clip-path="url(#clipPath4090)" />
    <path
       class="st0"
       d="m 204.52931,150.13545 v 36.40667 h -94.74729 v -18.70604 h -0.0529 v -16.61584 c 0.52917,3.51896 3.54542,6.19125 7.19667,6.19125 4.02166,0 7.27604,-3.25437 7.27604,-7.27604 0,-4.02167 -3.25438,-7.27604 -7.27604,-7.27604 -3.94229,0 -1.87855,-4.60375 4.60375,-4.60375 6.56166,0 11.87979,5.31812 11.87979,11.87979 v 1.08479 c 0.52916,3.51896 3.54541,6.19125 7.19666,6.19125 4.02167,0 7.27605,-3.25437 7.27605,-7.27604 0,-4.02167 -3.25438,-7.27604 -7.27605,-7.27604 -3.94229,0 -1.87854,-4.60375 4.60375,-4.60375 6.56167,0 11.8798,5.31812 11.8798,11.87979 v 1.08479 c 0.52916,3.51896 3.54541,6.19125 7.19666,6.19125 4.02167,0 7.27604,-3.25437 7.27604,-7.27604 0,-4.02167 -3.25437,-7.27604 -7.27604,-7.27604 -3.94229,0 -1.87854,-4.60375 4.60375,-4.60375 6.56167,0 11.87979,5.31812 11.87979,11.87979 v 1.08479 c 0.52917,3.51896 3.54542,6.19125 7.19667,6.19125 4.02167,0 7.27604,-3.25437 7.27604,-7.27604 0,-4.02167 -3.25437,-7.27604 -7.27604,-7.27604 -3.94229,0 -1.87854,-4.60375 4.60375,-4.60375 6.64104,-0.0265 11.95917,5.31812 11.95917,11.87979 z"
       id="path52-5-55"
       style="fill:#ffffff;fill-opacity:1;stroke-width:0.264583"
       clip-path="url(#clipPath4086)" />
    <path
       class="st0"
       d="m 133.48868,150.13545 v 36.40667 H 38.741387 v -18.70604 h -0.0529 v -16.61584 c 0.52917,3.51896 3.54542,6.19125 7.19667,6.19125 4.02166,0 7.27604,-3.25437 7.27604,-7.27604 0,-4.02167 -3.25438,-7.27604 -7.27604,-7.27604 -3.94229,0 -1.87855,-4.60375 4.60375,-4.60375 6.56166,0 11.87979,5.31812 11.87979,11.87979 v 1.08479 c 0.52916,3.51896 3.54541,6.19125 7.19666,6.19125 4.02167,0 7.27605,-3.25437 7.27605,-7.27604 0,-4.02167 -3.25438,-7.27604 -7.27605,-7.27604 -3.94229,0 -1.87854,-4.60375 4.60375,-4.60375 6.56167,0 11.8798,5.31812 11.8798,11.87979 v 1.08479 c 0.52916,3.51896 3.54541,6.19125 7.19666,6.19125 4.02167,0 7.276043,-3.25437 7.276043,-7.27604 0,-4.02167 -3.254373,-7.27604 -7.276043,-7.27604 -3.94229,0 -1.87854,-4.60375 4.60375,-4.60375 6.561673,0 11.879793,5.31812 11.879793,11.87979 v 1.08479 c 0.52917,3.51896 3.54542,6.19125 7.19667,6.19125 4.02167,0 7.27604,-3.25437 7.27604,-7.27604 0,-4.02167 -3.25437,-7.27604 -7.27604,-7.27604 -3.94229,0 -1.87854,-4.60375 4.60375,-4.60375 6.64104,-0.0265 11.95917,5.31812 11.95917,11.87979 z"
       id="path52-5-5-7"
       style="fill:#ffffff;fill-opacity:1;stroke-width:0.264583"
       clip-path="url(#clipPath4082)" />
    <path
       class="st0"
       d="m 62.448057,150.13545 v 36.40667 h -94.74729 v -18.70604 h -0.0529 v -16.61584 c 0.52918,3.51896 3.54543,6.19125 7.19668,6.19125 4.02166,0 7.27603,-3.25437 7.27603,-7.27604 0,-4.02167 -3.25437,-7.27604 -7.27603,-7.27604 -3.94229,0 -1.87855,-4.60375 4.60375,-4.60375 6.56165,0 11.8797804,5.31812 11.8797804,11.87979 v 1.08479 c 0.52917,3.51896 3.54541,6.19125 7.19666,6.19125 4.02167,0 7.27605,-3.25437 7.27605,-7.27604 0,-4.02167 -3.25437,-7.27604 -7.27605,-7.27604 -3.94229,0 -1.87854,-4.60375 4.60375,-4.60375 6.56167,0 11.8797996,5.31812 11.8797996,11.87979 v 1.08479 c 0.52917,3.51896 3.54541,6.19125 7.19666,6.19125 4.02167,0 7.27604,-3.25437 7.27604,-7.27604 0,-4.02167 -3.25437,-7.27604 -7.27604,-7.27604 -3.94229,0 -1.87854,-4.60375 4.60375,-4.60375 6.56167,0 11.87979,5.31812 11.87979,11.87979 v 1.08479 c 0.52917,3.51896 3.54542,6.19125 7.19667,6.19125 4.02167,0 7.27604,-3.25437 7.27604,-7.27604 0,-4.02167 -3.25437,-7.27604 -7.27604,-7.27604 -3.94229,0 -1.87854,-4.60375 4.60375,-4.60375 6.64104,-0.0265 11.95917,5.31812 11.95917,11.87979 z"
       id="path52-5-5-4-5"
       style="fill:#ffffff;fill-opacity:1;stroke-width:0.264583"
       clip-path="url(#clipPath4078)" />
  </g>
  <style
     type="text/css"
     id="style1">
	.st0{fill:#FFFFFF;}
	.st1{fill:#5DBCA2;}
	.st2{fill:#E61D46;}
	.st3{fill:#522A42;}
</style>
</svg>
